<svg width="327" height="333" viewBox="0 0 327 333" fill="none" xmlns="http://www.w3.org/2000/svg">
<path fill-rule="evenodd" clip-rule="evenodd" d="M23.2468 116.333C22.176 119.346 21.2092 120.023 20.2496 118.431C19.5557 117.281 19.482 117.301 19.0386 118.774C18.7787 119.636 18.1389 120.6 17.6166 120.915C17.0459 121.259 16.9404 121.941 17.3525 122.624C17.7296 123.25 17.7426 123.94 17.3811 124.158C17.0201 124.375 16.2719 125.699 15.7185 127.098C15.165 128.498 14.4696 129.79 14.1724 129.969C13.8757 130.148 13.9073 131.04 14.2443 131.951C14.8247 133.522 14.9443 133.532 16.6019 132.125C17.6326 131.251 18.3447 130.945 18.3395 131.378C18.3358 131.782 17.7783 132.462 17.1019 132.889C16.0427 133.558 16.1745 133.631 18.0482 133.418C19.2449 133.282 19.9174 133.384 19.5417 133.646C19.1663 133.906 19.279 134.817 19.7926 135.668L20.7258 137.216L19.079 136.486C17.1831 135.646 16.1257 136.014 16.8741 137.255C17.4947 138.284 16.0577 139.308 15.0961 138.521C14.6147 138.128 14.2278 138.56 13.7828 139.986C13.0376 142.378 8.60497 146.173 6.86595 145.91C5.18295 145.655 2.82988 148.969 3.9747 149.982C4.85602 150.762 3.50056 153.46 1.67318 154.562C1.14856 154.878 0.63253 155.713 0.526018 156.417C0.392375 157.3 0.529854 157.577 0.970926 157.311C2.06508 156.651 2.40829 158.119 1.40095 159.153C0.319569 160.263 0.297219 160.101 1.97696 163.366C3.14451 165.636 3.29952 165.72 4.42679 164.708C5.8802 163.404 6.86985 164.12 10.4296 169.051C10.6437 169.349 10.8304 169.073 10.8439 168.44C10.8569 167.808 11.7368 166.687 12.7987 165.951L14.7287 164.611L14.0353 167.284C13.6536 168.754 13.7013 170.554 14.1411 171.284C14.5813 172.014 14.8195 173.103 14.6706 173.704C14.4602 174.554 14.5517 174.706 15.082 174.386C15.4572 174.16 16.0243 174.407 16.3424 174.934C16.7182 175.557 17.2009 174.404 17.7202 171.646C18.2206 168.983 18.8105 167.548 19.3013 167.8C19.7315 168.021 20.4108 167.781 20.8113 167.267C21.3948 166.517 21.5014 166.829 21.3482 168.841C21.2426 170.221 21.6037 172.091 22.1495 172.996C22.6956 173.902 23.0293 175.099 22.8913 175.657C22.3928 177.671 24.0661 177.537 25.602 175.44C26.4082 174.34 27.1862 173.637 27.3312 173.878C27.4763 174.118 27.3137 176.002 26.9701 178.064L26.3449 181.813L28.0185 180.285C28.9384 179.444 29.9158 178.621 30.1892 178.456C30.4626 178.292 30.4551 177.773 30.1723 177.304C29.8894 176.835 29.9138 176.297 30.2264 176.108C31.4416 175.375 31.5901 177.309 30.4999 179.684C29.871 181.055 29.4691 183.304 29.6065 184.68C29.7443 186.058 29.6434 187.314 29.3825 187.471C28.7868 187.83 31.2622 192.132 32.7458 193.317C33.75 194.119 33.928 193.828 34.6803 190.151C35.1363 187.924 36.0006 185.806 36.6014 185.444C37.2016 185.082 37.6964 184.435 37.7011 184.005C37.7058 183.576 38.3944 182.804 39.2315 182.29C40.0686 181.776 41.5636 180.177 42.553 178.737C44.7538 175.534 44.6455 175.599 45.4827 176.987C45.9434 177.751 46.5475 177.896 47.3228 177.428C49.1876 176.304 50.0303 177.694 49.3717 180.806C48.7632 183.678 49.1876 185.607 50.2823 184.947C50.5949 184.758 51.0657 184.961 51.3283 185.396C52.1264 186.72 53.7727 185.945 54.5547 183.878C54.9606 182.804 55.5724 181.757 55.914 181.551C56.255 181.345 56.3032 180.793 56.0204 180.324C55.7376 179.855 55.7619 179.317 56.0745 179.128C56.3872 178.94 56.8774 179.175 57.1637 179.649C57.6598 180.472 58.7303 179.81 60.9801 177.291C61.8683 176.295 65.129 175.888 65.1191 176.774C65.1147 177.204 65.4944 177.325 65.9633 177.042C66.4322 176.759 66.8196 176.177 66.8243 175.747C66.838 174.499 68.4181 173.892 69.027 174.902C69.4641 175.626 69.6683 175.581 69.9793 174.688C70.1972 174.063 70.636 173.49 70.9551 173.414C71.2737 173.338 72.1543 172.43 72.9117 171.395C74.0405 169.853 74.0884 169.316 73.1772 168.41C72.3316 167.57 72.3003 167.039 73.0463 166.19C73.5876 165.574 74.5627 165.155 75.224 165.256C75.8825 165.355 76.8279 164.975 77.3241 164.409C77.8204 163.844 78.5516 163.549 78.9489 163.753C80.0561 164.322 81.9446 162.905 81.3635 161.941C80.673 160.796 82.1986 159.951 83.3446 160.843C84.0653 161.405 84.6848 161.192 86.3019 159.826C88.2311 158.198 88.3968 158.181 89.2086 159.527C89.6824 160.313 90.2812 160.828 90.5398 160.672C90.7979 160.516 91.5163 161.818 92.136 163.566C92.7551 165.313 93.5339 166.811 93.8665 166.893C94.1985 166.976 95.767 166.316 97.352 165.428C99.6833 164.121 100.69 163.944 102.62 164.501L105.005 165.189L104.946 168.102C104.914 169.704 105.058 171.722 105.265 172.587C105.499 173.563 105.268 174.227 104.656 174.336C104.098 174.435 103.877 174.855 104.148 175.305C104.686 176.196 102.842 181.976 101.876 182.424C100.286 183.162 99.9077 183.85 100.201 185.469C100.375 186.43 100.256 187.375 99.9358 187.568C99.6152 187.761 99.708 188.507 100.142 189.227C101.159 190.914 100.743 192.508 99.0123 193.551C97.8721 194.239 97.839 194.453 98.8196 194.795C101.59 195.762 104.197 197.876 104.876 199.707C105.263 200.753 106.219 202.158 106.999 202.829C107.906 203.609 108.447 204.607 108.498 205.59C108.556 206.736 108.934 207.312 109.971 207.839C111.072 208.398 111.307 208.782 111.089 209.663C110.758 211.003 112.155 213.536 112.958 213.052C113.271 212.864 113.801 213.164 114.136 213.72C114.841 214.889 114.049 217.796 112.389 220.142C111.034 222.055 112.217 224.842 114.231 224.482C114.904 224.361 116.176 224.523 117.056 224.841C118.456 225.347 118.801 225.863 119.802 228.943C120.432 230.881 120.793 232.777 120.604 233.156C120.415 233.535 120.73 235.031 121.304 236.478C122.561 239.655 122.338 239.956 115.567 244.184C112.608 246.031 110.561 247.637 110.756 247.96C110.942 248.268 112.901 248.914 115.109 249.395C118.37 250.106 119.348 250.641 120.316 252.246C120.972 253.334 122.084 254.31 122.787 254.417C123.491 254.524 124.448 255.243 124.914 256.016C125.473 256.942 126.209 257.288 127.077 257.032C127.801 256.819 128.674 257.11 129.017 257.679C129.466 258.423 130.174 258.46 131.539 257.813C134.435 256.437 135.889 257.54 135.969 261.175C136.006 262.827 136.243 264.521 136.496 264.94C136.749 265.359 136.399 267.319 135.718 269.294C134.772 272.039 134.71 273.44 135.456 275.237C135.993 276.53 136.836 278.629 137.331 279.903C138.119 281.931 138.762 282.446 142.525 284.068C144.888 285.086 147.041 286.283 147.309 286.729C147.689 287.358 148.251 287.15 149.828 285.794L151.859 284.049L152.654 287.159C153.642 291.021 153.448 292.47 151.884 292.932C151.214 293.13 150.662 293.673 150.657 294.139C150.652 294.606 150.171 295.275 149.589 295.626C148.857 296.068 148.751 296.907 149.245 298.353C149.638 299.502 149.675 301.923 149.327 303.733C148.98 305.542 148.934 307.419 149.226 307.903C149.517 308.386 149.825 309.829 149.909 311.11C150.049 313.253 150.209 313.518 151.916 314.439C152.936 314.989 154.164 316.091 154.644 316.887C155.124 317.683 156.57 319.458 157.859 320.83C159.834 322.934 160.303 323.156 160.844 322.246C161.198 321.652 162.559 320.278 163.871 319.193C165.925 317.492 167.086 317.106 172.266 316.406C180.5 315.291 185.302 315.831 189.274 318.317C191.641 319.799 192.402 320.57 192.092 321.175C191.456 322.412 194.351 325.223 195.549 324.532C197.695 323.293 201.333 325.055 199.958 326.666C199.349 327.38 200.572 328.206 206.498 331.085C211.193 333.365 211.776 333.456 213.3 332.139C214.147 331.407 215.097 331.376 216.672 332.026C217.877 332.524 219.14 332.765 219.476 332.562C219.813 332.359 221.333 332.131 222.854 332.054C225.342 331.928 225.728 331.736 226.699 330.15C227.477 328.881 227.519 327.94 226.848 326.788C226.128 325.55 226.186 325.054 227.106 324.59C228.016 324.13 228.192 322.843 227.858 319.097C227.426 314.28 227.467 314.143 230.419 310.324C232.784 307.265 233.906 306.284 235.723 305.68C237.739 305.01 238.136 304.569 238.876 302.167C239.342 300.657 239.9 299.314 240.116 299.184C240.332 299.054 240.581 297.708 240.668 296.194C240.82 293.591 241.035 293.295 244.651 290.743C248.038 288.352 252.158 285.728 257.548 282.529C258.49 281.969 260.608 281.058 262.257 280.502C264.697 279.68 265.482 279.122 266.479 277.499C267.997 275.027 275.895 270.325 277.959 270.662C278.699 270.784 280.197 270.562 281.288 270.17C283.044 269.539 283.385 268.969 284.261 265.201C285.067 261.735 285.478 260.98 286.478 261.132C287.154 261.234 287.883 260.974 288.098 260.554C288.785 259.216 291.393 258.853 293.084 259.859C293.983 260.394 294.961 260.686 295.256 260.508C296.025 260.045 297.193 253.802 296.673 252.94C296.434 252.543 296.568 251.663 296.972 250.984C297.437 250.201 297.203 247.703 296.329 244.139C295.269 239.819 295.148 237.66 295.804 234.762C296.273 232.692 297.186 230.465 297.833 229.814C298.481 229.163 298.878 228.078 298.716 227.403C298.099 224.828 301.813 220.087 304.557 219.946C305.693 219.888 305.987 219.63 305.843 218.82C305.708 218.062 306.219 217.554 307.687 216.987C309.969 216.106 314.545 211.884 314.07 211.097C313.901 210.816 313.418 210.793 312.997 211.046C312.577 211.3 311.458 211.274 310.51 210.988C309.008 210.535 308.775 210.229 308.691 208.596C308.638 207.566 308.808 206.595 309.067 206.439C309.327 206.282 309.175 205.549 308.729 204.809C308.283 204.07 308.052 202.389 308.216 201.075C308.396 199.62 307.956 197.507 307.089 195.673C305.861 193.072 305.833 192.497 306.885 191.469C307.895 190.482 307.9 189.939 306.921 188.314C306.022 186.824 305.964 186.03 306.678 185.019C307.194 184.286 307.44 183.392 307.223 183.032C306.393 181.655 307.458 178.659 309.764 175.881C311.319 174.007 312.112 172.375 312.021 171.236C311.943 170.271 312.329 169.084 312.879 168.6C313.428 168.115 314.319 166.62 314.858 165.279C315.743 163.08 315.691 162.741 314.332 161.836C312.847 160.846 310.229 160.772 308.729 161.677C306.827 162.824 297.171 158.158 296.46 155.748C296.252 155.045 294.671 153.516 292.946 152.35C290.539 150.723 289.575 149.65 288.797 147.732C287.631 144.861 286.951 141.011 287.44 140.059C287.624 139.7 287.492 138.575 287.148 137.559C286.804 136.542 286.758 134.219 287.046 132.396C287.334 130.573 287.425 127.774 287.249 126.174C287.073 124.575 287.199 122.648 287.529 121.891C287.858 121.136 287.887 120.117 287.593 119.63C287.299 119.141 287.455 117.139 287.94 115.179C288.425 113.22 288.703 108.39 288.557 104.445C288.313 97.825 288.434 97.1522 290.125 95.6814C292.154 93.9176 293.725 91.2375 293.221 90.4018C293.041 90.1039 291.809 89.9392 290.481 90.0352C289.153 90.1306 287.923 90.1831 287.746 90.1506C287.57 90.1184 287.933 87.3611 288.554 84.0229C289.648 78.1351 291.202 74.8114 293.04 74.4216C293.532 74.3172 294.259 73.3914 294.655 72.3629C295.052 71.3345 295.87 70.1953 296.474 69.8313C297.078 69.4673 297.935 68.557 298.381 67.8085C299.222 66.3959 306.186 59.0049 310.085 55.3873C312.324 53.31 312.51 52.7584 312.668 47.7279C312.73 45.775 313.888 43.1493 316.861 38.2222C323.214 27.6947 325.203 23.8945 326.01 20.7489C327.057 16.6685 326.856 14.493 325.388 13.9806C324.75 13.7582 324.142 13.093 324.036 12.5015C323.932 11.9103 323.106 11.2432 322.202 11.0192C321.298 10.7952 320.117 10.2682 319.578 9.84882C318.186 8.76374 318.191 6.17736 319.587 5.83415C321.069 5.46982 321.652 4.24581 321.071 2.71924C320.741 1.84952 320.141 1.64676 318.978 2.01145C317.955 2.33293 317 2.0972 316.41 1.37695C315.838 0.67817 315.07 0.472333 314.444 0.850031C313.878 1.19106 312.917 1.29563 312.307 1.0832C310.87 0.58205 307.411 3.18917 306.793 5.23751C306.54 6.0777 306.077 6.70131 305.764 6.62364C304.791 6.38213 303.741 8.8179 304.547 9.44605C305.794 10.4182 300.739 12.8118 297.563 12.7531C294.23 12.6921 290.799 14.7386 290.346 17.0584C289.933 19.1719 288.926 19.7143 286.999 18.8602C283.697 17.3962 278.436 18.3456 277.785 20.5235C277.651 20.9719 276.88 22.1151 276.072 23.0623C274.884 24.4565 274.334 24.7188 273.192 24.4353C272.199 24.1892 271.828 23.7733 271.94 23.0312C272.027 22.4513 271.81 21.905 271.456 21.8174C271.102 21.7301 270.412 21.0672 269.922 20.3453C269.432 19.6228 268.206 18.635 267.197 18.1495C265.725 17.4414 264.904 17.5426 263.05 18.6606C261.438 19.6323 260.246 19.8843 259.113 19.4932C258.216 19.1829 256.543 19.3821 255.381 19.9359C254.222 20.4888 252.018 21.0945 250.483 21.2822C246.693 21.7452 246.165 22.6477 247.951 25.6092L249.419 28.0443L246.274 29.8204C244.545 30.7975 242.734 31.5931 242.25 31.5873C241.766 31.582 241.313 32.2284 241.242 33.0238C241.13 34.2901 240.985 34.4012 240.086 33.9128C238.503 33.0538 237.197 33.6065 234.92 36.0987C233.146 38.0416 232.57 38.3748 231.086 38.319C230.126 38.2826 228.863 37.8338 228.28 37.3218C227.697 36.8088 226.777 36.6567 226.235 36.9833C225.693 37.31 224.781 37.461 224.208 37.319C223.424 37.1248 222.842 37.4984 221.87 38.8171C221.157 39.7833 220.042 40.6681 219.393 40.7837C218.735 40.9009 218.197 41.444 218.18 42.008C218.157 42.76 217.438 42.7999 215.396 42.1625C213.883 41.6897 212.376 41.4642 212.048 41.662C211.72 41.8598 211.025 41.4995 210.504 40.8607C209.672 39.8427 209.28 39.8954 207.308 41.2902C205.699 42.4288 203.989 42.9457 201.291 43.1094C199.219 43.2351 196.678 43.5699 195.646 43.8528C194.614 44.1357 193.658 44.0382 193.522 43.6359C193.386 43.2327 193.018 43.058 192.706 43.2465C192.393 43.435 192.446 44.1009 192.823 44.7263C193.626 46.0573 192.668 46.8182 190.441 46.6198C188.909 46.4833 188.873 46.4266 189.21 44.7C189.401 43.7221 189.1 42.0733 188.54 41.0367C187.662 39.4085 187.254 39.2285 185.536 39.7103C184.319 40.0521 183.604 40.5298 183.695 40.9414C183.929 42.0141 182.284 42.6721 181.717 41.7323C181.421 41.2411 180.689 41.1893 179.99 41.6106C179.324 42.0126 177.985 42.0838 177.016 41.7696L175.254 41.1977L173.386 44.0665C172.191 45.902 170.166 47.8588 167.764 49.4993C164.354 51.8285 163.66 52.0603 160.182 52.0283C158.076 52.0095 155.445 52.3198 154.337 52.7187C153.227 53.1179 152.047 53.3041 151.713 53.133C150.83 52.6792 146.86 56.1656 146.307 57.8807C146.047 58.6866 146.072 59.741 146.364 60.2242C146.776 60.9076 146.65 61.0424 145.8 60.8317C145.199 60.6826 144.149 60.8966 143.468 61.3072C142.788 61.7174 141.71 61.8715 141.073 61.6493C140.436 61.4271 138.789 61.6892 137.412 62.231C136.036 62.7731 133.852 62.9964 132.558 62.7281C129.76 62.1463 128.083 63.4692 127.106 67.0282C126.699 68.5144 126.194 69.2205 125.715 68.9748C125.302 68.7626 124.968 68.2378 124.972 67.8086C124.986 66.556 123.549 67.7576 119.997 71.9662C115.806 76.9324 109.168 81.1098 102.069 83.2474C99.3853 84.0554 95.6153 85.4317 93.6906 86.3055C91.7665 87.1788 89.5614 87.7379 88.7908 87.5474C87.9726 87.3446 86.8757 87.6618 86.152 88.3114C85.4712 88.9227 84.7811 89.2024 84.6186 88.9329C84.4565 88.664 82.8161 89.3523 80.9733 90.4635C78.0205 92.244 77.2777 92.4105 74.7106 91.8668L71.7983 91.249L70.8313 93.5927C69.7189 96.2878 68.4946 97.1585 50.7166 107.903L39.3556 114.77L36.069 113.818C31.6724 112.544 28.9115 112.76 28.332 114.424C27.9765 115.444 27.7332 115.534 26.963 114.934C26.4225 114.513 25.7518 114.556 25.3788 115.035C24.9323 115.609 24.6722 115.538 24.5423 114.809C24.2975 113.434 24.2621 113.475 23.2468 116.333ZM289.964 98.5314C290.329 98.7191 290.917 98.502 291.269 98.0492C292.172 96.8899 291.843 96.6571 290.471 97.4848C289.827 97.8728 289.599 98.3438 289.964 98.5314Z" fill="#39919D"/>
</svg>
