<svg width="216" height="382" viewBox="0 0 216 382" fill="none" xmlns="http://www.w3.org/2000/svg">
<path fill-rule="evenodd" clip-rule="evenodd" d="M97.7729 1.21087C97.4115 1.48146 96.6474 1.90006 96.075 2.14108C95.1338 2.53726 94.822 2.53949 92.8119 2.16304C91.3588 1.89073 90.4056 1.5974 90.0583 1.31551C89.2098 0.626936 88.6961 0.860127 88.6931 1.93478C88.6814 6.10334 88.5309 6.34073 85.3682 7.17417C85.1276 7.23757 84.3014 7.16974 83.5324 7.02334C82.4443 6.81619 82.042 6.63086 81.7189 6.18761C81.1025 5.34213 80.4201 5.12201 79.1216 5.34964C77.8569 5.57117 76.4666 6.46565 76.338 7.1402C76.2938 7.37256 76.1689 7.54579 76.0606 7.52517C75.952 7.5045 75.6537 8.23886 75.3977 9.15709C74.6454 11.852 73.5372 13.1384 71.9701 13.1357C71.3465 13.1346 70.951 12.971 70.4039 12.4878C69.6784 11.8472 68.8061 11.5096 68.7406 11.8445C68.7219 11.94 68.1769 12.1167 67.5292 12.2366C66.8818 12.3568 66.1278 12.5009 65.8539 12.5573C64.3154 12.8729 61.5048 12.759 58.8488 12.2733C55.3828 11.6394 54.793 11.3328 51.5008 8.45184L50.6291 7.6891L50.3204 9.30956C49.882 11.6104 49.2812 12.2881 47.2723 12.748C45.921 13.0572 44.6163 13.8804 44.5661 14.4554C44.4839 15.3976 44.264 15.8212 43.6022 16.3115C42.9149 16.8207 42.8957 16.8798 42.1366 20.864C41.3176 25.1627 41.2338 25.3479 39.9069 25.7875C39.6441 25.8746 39.1758 26.3507 38.8659 26.8457C38.5562 27.3405 38.0679 27.8599 37.7809 27.9999C37.2789 28.2447 37.2693 28.2823 37.5358 28.9823C38.4464 31.3758 38.5105 33.6857 37.7286 35.9223C37.2838 37.1943 36.6055 37.6687 35.2853 37.6307C34.741 37.6151 34.2266 37.6651 34.1423 37.7422C34.0577 37.8192 33.2163 38.0972 32.2721 38.3606C30.4236 38.8755 29.8114 38.7677 29.0362 37.79C27.438 35.774 27.505 35.8343 27.5879 36.483C27.6181 36.7204 27.7868 37.5131 27.9625 38.2446C28.1383 38.9764 28.2628 39.6765 28.2392 39.8007C28.2155 39.9249 28.3001 40.0463 28.4271 40.0705C28.5541 40.0947 28.6297 40.2628 28.5952 40.4439C28.4825 41.0355 29.1411 42.8163 29.9261 44.0427L30.2814 44.598L30.7676 43.9289C31.0348 43.561 31.4626 43.2348 31.7181 43.2038C32.3087 43.1322 32.8767 43.8713 32.8852 44.7223C32.9076 46.9771 33.1209 48.574 33.452 48.9651C33.7432 49.3092 33.6526 50.7733 33.1728 53.484C32.6162 56.6275 32.6789 57.4054 33.6171 59.0058C33.8887 59.4691 34.3125 60.2175 34.5584 60.669C35.1042 61.6701 37.4883 65.6035 38.3777 66.9695C39.2351 68.2869 40.0261 69.8923 40.281 70.8318C40.3943 71.2502 40.5321 71.6553 40.5869 71.7319C40.6417 71.8085 40.9567 72.4097 41.2866 73.0679C42.3093 75.1078 44.6378 78.4241 45.6134 79.2302C47.0332 80.4033 47.7197 82.4757 47.5373 85.0393C47.4774 85.8823 47.3056 86.4127 46.9338 86.9031C46.2005 87.8698 46.1996 88.1178 46.9253 89.6346C47.7602 91.3801 48.5334 94.2371 48.785 96.5052C48.8447 97.0458 48.9413 97.6631 48.9993 97.8769C49.0572 98.0907 49.1131 98.6426 49.1232 99.1032C49.1336 99.5639 49.175 100.033 49.2154 100.147C49.256 100.26 50.2184 99.7127 51.3546 98.9303C53.7491 97.2814 54.5912 97.1808 54.8645 98.511C55.1551 99.9259 53.3176 103.342 51.6541 104.479C51.0188 104.914 50.7732 104.935 49.6012 104.659C48.3314 104.36 48.2196 104.379 47.1794 105.072C46.3952 105.595 45.9611 105.738 45.6349 105.582C45.3853 105.463 45.1048 105.449 45.0117 105.551C44.9185 105.653 44.9474 105.757 45.076 105.782C45.6911 105.899 45.4326 107.765 43.793 115.039C42.8782 119.098 42.0227 122.557 41.892 122.726C41.7229 122.944 41.3429 122.953 40.5711 122.756C39.4067 122.458 38.5158 122.764 38.3739 123.509C38.2363 124.231 37.3808 124.522 36.1093 124.28C34.7335 124.018 33.0799 124.523 32.6074 125.348C31.9273 126.537 31.2897 133.569 31.7876 134.39C31.8737 134.532 31.909 134.833 31.8661 135.058C31.6896 135.985 32.2511 137.525 33.4881 139.509C33.8734 140.127 34.4612 141.28 34.7941 142.071C35.1272 142.862 35.4419 143.571 35.4935 143.647C35.6821 143.924 36.0028 144.837 36.0597 145.258C36.0917 145.496 36.1931 145.705 36.2848 145.722C36.3767 145.739 36.5148 146.009 36.5917 146.322C36.7493 146.96 37.8367 148.891 38.6986 150.063C40.4664 152.467 41.0058 153.127 41.3574 153.318C41.5718 153.434 41.7288 153.627 41.7061 153.746C41.6834 153.865 41.8121 153.991 41.992 154.025C42.1719 154.059 42.3386 154.173 42.3626 154.278C42.3865 154.382 42.8054 154.915 43.2935 155.462C44.4528 156.761 45.5307 158.433 45.6032 159.046C45.6348 159.315 45.7575 159.553 45.876 159.575C45.9944 159.598 46.0706 159.725 46.0452 159.859C46.0199 159.992 46.2052 160.432 46.4572 160.836C46.7091 161.241 46.8901 161.704 46.8595 161.865C46.8288 162.026 46.8993 162.175 47.0164 162.198C47.1333 162.22 47.2377 162.565 47.2484 162.964C47.259 163.362 47.3376 163.702 47.4228 163.718C47.508 163.735 47.6471 164.438 47.7322 165.281C47.8173 166.124 47.9326 167.039 47.9886 167.314C48.3965 169.32 48.1046 175.705 47.4794 178.463C47.024 180.471 47.0165 180.485 46.0082 181.091C45.0442 181.67 44.9814 181.77 44.7222 183.13C44.5723 183.917 44.5312 184.576 44.6307 184.595C44.9162 184.65 45.3572 186.078 45.2547 186.615C45.2038 186.883 45.2558 187.12 45.3703 187.141C45.4849 187.163 45.5314 187.822 45.4739 188.605C45.4164 189.388 45.4521 190.105 45.5528 190.198C45.6538 190.291 45.6879 190.622 45.6285 190.933C45.5691 191.245 45.6176 191.518 45.736 191.541C45.8545 191.563 45.9788 191.831 46.0122 192.135C46.0457 192.439 46.7048 193.614 47.4772 194.746C49.2394 197.329 49.5185 198.053 49.1686 199.131C48.8967 199.968 48.8458 201.603 48.9397 206.463L48.991 209.119L49.7734 209.388L50.5561 209.657L50.215 211.038C49.9336 212.176 49.9399 212.532 50.2498 213.07C50.5336 213.561 50.5567 213.898 50.3435 214.443C50.0929 215.084 50.2716 216.122 50.7473 216.79C50.8019 216.866 50.9388 217.243 51.0513 217.627C51.226 218.222 51.1819 218.462 50.7512 219.254C49.842 220.926 47.7111 222.947 46.9996 222.812C46.6036 222.736 45.2671 224.166 43.1532 226.926C41.9729 228.468 40.9413 229.771 40.8608 229.821C40.7299 229.904 40.1608 230.569 39.1789 231.786C38.9938 232.016 38.7702 232.244 38.6816 232.293C38.5932 232.342 38.1416 232.793 37.6779 233.295C36.5036 234.567 33.3409 236.705 32.4781 236.81C31.7027 236.904 31.5509 237.05 30.8473 238.379C30.3503 239.317 29.1465 240.34 28.6509 240.246C28.4842 240.214 28.3292 240.285 28.3065 240.404C28.2838 240.524 28.0215 240.65 27.7237 240.687C27.1176 240.76 26.0055 241.467 25.2406 242.265C24.8199 242.703 24.6495 243.296 24.2247 245.8C23.7427 248.641 23.667 248.871 22.8588 249.967C22.3881 250.605 21.7091 251.721 21.3503 252.446C20.5725 254.018 20.1121 254.834 19.4945 255.738C19.2421 256.106 19.0136 256.524 18.9866 256.667C18.9595 256.809 18.8086 257.088 18.6509 257.288C18.4934 257.488 18.0886 258.187 17.7511 258.842C17.2319 259.85 16.0397 261.226 15.4135 261.539C14.935 261.779 14.2984 263.43 14.1893 264.713C14.0887 265.9 13.9925 266.155 13.5251 266.475C13.2246 266.68 12.9289 267.11 12.8681 267.429C12.8073 267.748 12.6791 267.996 12.5837 267.98C12.4881 267.964 12.2493 268.014 12.0532 268.092C11.7609 268.209 11.7603 268.426 12.0494 269.293C12.4496 270.495 12.1943 270.879 11.1184 270.693C10.6187 270.607 10.43 270.719 10.187 271.248C9.03776 273.751 8.80394 274.212 8.62019 274.338C8.50683 274.415 8.359 274.768 8.29165 275.122C8.22434 275.475 8.0161 276.014 7.82893 276.319C7.43523 276.962 6.60497 279.07 5.97354 281.03C5.42032 282.747 4.45585 285.033 4.23563 285.149C3.84811 285.353 2.70974 288.092 2.45322 289.437C2.09228 291.329 1.02011 294.032 0.485512 294.398C0.149013 294.628 0.0779305 294.869 0.128745 295.606C0.16385 296.113 0.189425 297.194 0.18605 298.009C0.182437 298.825 0.242431 299.585 0.319117 299.699C0.396082 299.812 0.413222 300.145 0.357277 300.439C0.0731331 301.93 1.43956 304.823 2.52579 305.029C3.15805 305.15 3.83883 304.773 3.939 304.247C3.97574 304.054 4.10916 303.857 4.23547 303.808C4.36174 303.759 4.58462 303.461 4.73049 303.145C5.13026 302.28 6.86096 301.11 8.06033 300.894C9.45649 300.642 9.69142 300.885 9.25633 302.13C8.9316 303.058 9.0914 303.515 9.56051 303.001C9.82185 302.715 10.6311 302.905 10.9075 303.318C11.4467 304.123 11.6083 305.441 11.3405 306.846C11.0899 308.162 11.1183 308.383 11.6377 309.151C11.9536 309.618 12.4024 310.037 12.6349 310.081C13.221 310.193 14.995 311.629 15.6748 312.542C15.9849 312.959 16.4399 313.768 16.6858 314.34C17.0745 315.243 17.089 315.609 16.7962 317.146C16.5168 318.613 16.5239 318.999 16.8377 319.417C17.1474 319.828 17.2897 319.879 17.6224 319.694C17.8461 319.57 18.0651 319.278 18.1093 319.046C18.3109 317.988 19.2831 318.6 20.5132 320.558C20.892 321.161 21.1866 321.734 21.168 321.831C21.1495 321.929 21.2373 322.175 21.3628 322.379C21.78 323.056 21.9685 323.853 21.9391 324.816C21.9231 325.34 22.0741 326.031 22.2744 326.351C22.4749 326.671 22.6075 327.38 22.5689 327.925C22.4643 329.406 22.68 330.11 23.5076 330.986C24.5642 332.105 24.8716 332.087 25.503 330.873L26.0435 329.833L26.1779 330.609C26.2519 331.036 26.5202 331.53 26.7743 331.708C27.1688 331.984 27.2005 332.219 26.992 333.324C26.7759 334.472 26.8135 334.701 27.3242 335.345C27.6409 335.745 28.361 336.345 28.9245 336.679C29.7915 337.193 29.9312 337.379 29.8334 337.892C29.7699 338.226 29.5267 338.672 29.2931 338.885C28.6208 339.495 28.5306 340.513 29.0912 341.16C29.4173 341.537 29.5376 341.957 29.4503 342.415C29.2323 343.559 29.7969 344.928 31.6125 347.655C33.4043 350.347 33.5241 350.576 34.0383 352.294C34.2509 353.004 34.6022 353.5 35.1638 353.883C35.6129 354.19 36.2028 354.865 36.4748 355.384C36.747 355.903 37.0372 356.341 37.1201 356.357C37.463 356.422 38.0786 354.903 38.4064 353.182C38.8788 350.703 39.089 350.478 40.6511 350.775C42.0219 351.036 42.5499 351.53 42.3847 352.397C42.3305 352.682 42.3598 353.202 42.4498 353.554C42.6298 354.257 43.904 355.724 44.4199 355.822C44.7524 355.886 46.5398 356.822 47.3066 357.335C47.5401 357.491 48.2925 357.91 48.9786 358.267C50.0081 358.801 50.3542 358.888 50.9606 358.761C52.5799 358.422 53.5394 359.807 53.7748 362.824C53.9018 364.452 54.1837 364.707 56.0403 364.874C57.8575 365.036 58.986 365.555 59.3008 366.372C59.5638 367.055 58.9943 371.276 58.4205 372.894C58.1232 373.733 57.8346 374.162 57.4886 374.28C56.1952 374.722 55.2264 376.036 55.4048 377.105C55.5722 378.108 56.5372 380.258 56.8468 380.318C56.9948 380.346 57.1322 380.491 57.1519 380.64C57.1719 380.789 57.6424 381.052 58.1976 381.223C59.4453 381.609 60.3051 381.194 60.7392 379.999C60.9004 379.554 61.1229 379.208 61.2333 379.229C61.3436 379.25 61.4603 379.129 61.4926 378.959C61.5248 378.79 61.8267 378.478 62.1632 378.265C62.9415 377.774 65.6804 376.949 66.203 377.048C66.4215 377.09 66.6747 377.042 66.7663 376.941C66.8577 376.841 67.336 376.766 67.8294 376.774C70.4088 376.816 70.379 376.808 70.9124 377.596C71.1917 378.01 71.3966 378.471 71.3678 378.622C71.3391 378.773 71.5473 379.285 71.8304 379.76C72.2659 380.49 72.5072 380.654 73.3935 380.822C74.6984 381.071 75.8679 380.833 77.0139 380.087C77.7225 379.626 77.9338 379.327 78.0752 378.585C78.1723 378.075 78.3556 377.678 78.4826 377.702C78.6096 377.726 78.7402 377.606 78.7727 377.436C78.8222 377.176 80.9599 374.951 81.4421 374.657C81.9185 374.367 82.7177 373.057 82.8538 372.343C83.0489 371.319 82.2266 369.548 80.0667 366.341C79.2383 365.111 78.0855 363.208 77.5046 362.112C76.9238 361.016 76.3064 359.883 76.1324 359.594C75.9587 359.305 75.7926 358.867 75.7635 358.62C75.7344 358.373 75.6257 358.155 75.522 358.136C75.4184 358.116 75.3075 357.905 75.2755 357.668C75.2086 357.173 74.9046 356.385 74.5712 355.843C74.4455 355.638 74.3581 355.392 74.3766 355.294C74.3951 355.197 74.1008 354.623 73.7222 354.019C72.6504 352.307 71.3448 351.689 67.9738 351.299C63.0755 350.732 59.1506 349.804 59.2583 349.239C59.2799 349.126 59.1318 349.001 58.929 348.963C58.5214 348.885 57.2839 347.912 57.2149 347.614C57.1906 347.51 57.0606 347.404 56.9255 347.379C56.4073 347.28 54.5442 344.809 53.5308 342.878C52.2967 340.524 52.1385 340.407 50.7688 340.817C50.0503 341.032 49.8926 341.001 48.8505 340.44C47.4946 339.709 46.7915 338.844 47.0721 338.253C47.3538 337.659 46.9864 336.54 46.0323 335.084C43.9002 331.833 42.8342 328.229 43.3167 325.905C43.7644 323.749 46.0005 322.362 47.1372 323.537C47.5592 323.973 47.5564 324.132 47.0906 326.107C46.8175 327.265 46.4678 328.432 46.3134 328.701C46.069 329.126 46.1107 329.203 46.6369 329.303C46.9694 329.367 47.2611 329.314 47.2855 329.186C47.3098 329.059 47.7527 329.035 48.27 329.133L49.2103 329.312L49.3041 327.947C49.3555 327.196 49.3377 326.462 49.2643 326.316C49.1909 326.17 49.1656 325.569 49.208 324.982C49.2505 324.395 49.2658 323.099 49.2418 322.102C49.1725 319.225 49.1576 318.451 49.1424 316.911C49.1348 316.116 49.0705 315.267 48.9999 315.023C48.9294 314.78 48.9085 314.388 48.9536 314.151C48.9987 313.914 48.9755 312.853 48.9021 311.793C48.8287 310.732 48.7505 309.536 48.7285 309.135C48.6586 307.866 48.3993 306.437 48.1746 306.083C47.8191 305.522 47.5185 305.609 47.0459 306.409C46.8 306.826 46.487 307.145 46.3503 307.119C45.7656 307.008 45.2038 306.063 44.7738 304.469C44.5207 303.53 44.2078 302.599 44.0785 302.4C43.9493 302.2 43.8719 301.888 43.9067 301.705C43.9414 301.523 43.8849 301.358 43.7812 301.338C43.5597 301.296 43.2472 298.887 43.3756 298.213C43.4242 297.958 43.4019 297.658 43.3263 297.546C43.1713 297.317 43.177 294.79 43.3385 292.113C43.4568 290.153 43.5754 286.502 43.5638 285.18C43.5557 284.241 43.2356 283.287 42.6808 282.546C42.2887 282.023 40.2431 281.479 39.9358 281.816C39.8447 281.916 39.392 281.997 38.9301 281.996C38.4682 281.995 38.0713 282.094 38.048 282.216C38.0248 282.338 37.8188 282.402 37.5902 282.359C37.3616 282.315 37.0587 282.351 36.9169 282.439C36.7754 282.526 36.2715 282.655 35.7974 282.725C31.8692 283.309 29.8136 282.874 28.7426 281.231C28.081 280.216 28.1339 279.667 28.9656 278.917C30.109 277.887 30.2414 276.587 29.5222 273.45C29.4222 273.014 29.3625 272.541 29.3896 272.399C29.4166 272.257 29.3791 271.941 29.3059 271.698C28.8322 270.117 28.9306 268.529 29.7724 264.185C30.2452 261.744 30.8313 259.243 31.0744 258.627C32.1629 255.872 32.1884 255.713 31.6659 254.94C31.0653 254.052 31.2072 252.896 31.945 252.664C32.2243 252.576 32.8442 252.65 33.3463 252.832L34.2468 253.158L34.6308 251.053C34.915 249.497 35.166 248.738 35.5949 248.14C35.9137 247.695 36.254 247.292 36.3509 247.244C36.4478 247.196 36.6448 246.936 36.7889 246.666C36.9327 246.396 37.1472 246.193 37.2657 246.215C37.3841 246.238 37.511 246.1 37.5475 245.908C37.5839 245.717 37.7156 245.58 37.8403 245.603C37.9648 245.627 38.1817 245.398 38.3222 245.094C38.4627 244.79 38.6584 244.556 38.7567 244.575C38.8551 244.594 39.0315 244.438 39.1486 244.229C39.2661 244.019 39.4824 243.709 39.63 243.539C40.3376 242.721 40.6364 242.255 40.7134 241.851C40.7656 241.577 41.1249 241.324 41.6635 241.183C42.1398 241.057 42.6189 240.785 42.7283 240.576C42.8376 240.368 43.1932 238.787 43.5183 237.063C44.0649 234.166 44.1722 233.844 44.9322 232.823C45.3847 232.215 45.7726 231.625 45.7942 231.511C45.8159 231.397 46.0458 231.035 46.3053 230.705C46.5645 230.375 46.8222 229.871 46.8778 229.584C46.9332 229.297 47.0827 229.082 47.2097 229.106C47.3367 229.13 47.4891 228.895 47.5485 228.583C47.6079 228.271 47.7595 227.977 47.8855 227.928C48.0113 227.88 48.2528 227.486 48.4218 227.054C48.5908 226.622 48.8283 226.287 48.9496 226.31C49.0708 226.333 49.1969 226.211 49.2296 226.039C49.3424 225.447 52.5232 221.694 53.001 221.589C53.1087 221.565 53.2347 221.346 53.2813 221.101C53.328 220.856 53.4617 220.674 53.5788 220.697C53.6956 220.719 53.9188 220.438 54.0749 220.072C54.2309 219.707 54.4659 219.366 54.5971 219.315C54.7283 219.265 54.8928 218.923 54.9629 218.555C55.033 218.187 55.1911 217.847 55.3143 217.799C55.4375 217.752 55.6882 217.229 55.8714 216.636C56.0545 216.044 56.3259 215.543 56.4743 215.523C56.6227 215.503 56.7796 215.299 56.8232 215.07C56.8668 214.842 57.5966 214.12 58.4451 213.466C59.2935 212.812 60.0081 212.258 60.0333 212.234C60.0584 212.211 60.8901 208.287 61.8819 203.515C63.0189 198.044 63.8095 194.684 64.0218 194.421C64.4771 193.858 65.5545 191.85 65.6385 191.409C65.6758 191.213 65.7993 191.035 65.9132 191.012C66.0268 190.99 66.4101 190.341 66.7646 189.57C67.3513 188.295 67.395 188.066 67.2499 187.027C67.1624 186.399 66.8653 185.513 66.5899 185.058C65.3975 183.089 64.9839 182.324 65.0143 182.146C65.0321 182.041 65.4828 181.64 66.0158 181.254C66.549 180.868 67.0008 180.474 67.02 180.379C67.0394 180.283 67.1636 180.226 67.2959 180.251C67.4282 180.276 67.8062 180.126 68.1357 179.917C68.4653 179.708 69.2447 179.409 69.8676 179.252C72.2911 178.641 73.4266 178.559 76.0793 178.804C81.6146 179.316 81.826 179.292 82.0447 178.145C82.1844 177.411 82.3728 177.432 82.9842 178.25C83.6988 179.205 85.7593 180.46 87.6991 181.122C91.6902 182.482 92.3071 183.48 90.5298 185.699C89.597 186.864 88.8328 189.204 87.5571 194.802C86.7477 198.354 86.1168 199.95 85.5645 199.845C85.1909 199.774 85.0247 201.273 85.3285 201.972C85.9629 203.431 86.6246 203.933 87.3116 203.476C87.801 203.151 89.9763 203.091 91.4087 203.363C92.9402 203.655 95.3489 204.56 96.2505 205.184C96.7884 205.556 97.3796 205.717 98.612 205.827C99.5162 205.908 100.44 205.922 100.665 205.859C100.891 205.795 101.68 205.673 102.42 205.589C103.16 205.504 103.989 205.394 104.262 205.344C104.534 205.295 105.286 205.18 105.931 205.091L107.105 204.927L108.312 206.694C109.843 208.933 110.28 209.379 110.908 209.342C111.25 209.322 111.558 209.539 111.856 210.01C112.197 210.549 112.523 210.751 113.295 210.898C114.203 211.071 114.284 211.14 114.185 211.66C113.929 213.006 115.794 216.906 116.785 217.095C117.126 217.16 117.239 216.983 117.402 216.13C117.514 215.542 117.709 215.106 117.848 215.132C118.246 215.208 118.597 215.872 118.567 216.493C118.544 216.963 118.658 217.078 119.187 217.122C119.741 217.168 119.819 217.261 119.722 217.765C119.658 218.104 119.478 218.329 119.3 218.295C118.804 218.201 118.073 218.885 117.944 219.564C117.855 220.031 117.974 220.284 118.412 220.563C118.735 220.768 119.161 221.063 119.36 221.219C119.559 221.375 119.931 221.542 120.187 221.591C120.443 221.64 120.632 221.784 120.608 221.912C120.583 222.039 120.748 222.179 120.974 222.222C121.199 222.265 121.562 222.48 121.78 222.7C121.997 222.921 122.448 223.225 122.781 223.377C123.271 223.6 123.402 223.574 123.466 223.236C123.51 223.006 123.757 222.612 124.015 222.36C124.708 221.683 125.618 222.044 125.918 223.116C126.219 224.193 126.731 225.242 126.977 225.289C127.083 225.31 127.296 225.512 127.45 225.74C127.753 226.187 128.366 226.403 128.427 226.084C128.448 225.975 128.361 225.515 128.234 225.06C127.827 223.605 129.483 217.828 130.263 217.977C130.363 217.996 130.494 217.75 130.554 217.431C130.615 217.112 130.561 216.831 130.434 216.807C130.307 216.783 130.224 216.654 130.249 216.521C130.308 216.213 130.158 215.948 128.413 213.283C127.623 212.076 126.994 210.997 127.016 210.885C127.037 210.774 126.934 210.607 126.787 210.516C126.64 210.424 126.358 209.845 126.16 209.228C125.882 208.361 125.865 207.656 126.086 206.117C126.243 205.022 126.347 203.743 126.318 203.274C126.173 200.982 125.963 199.362 125.807 199.331C125.712 199.311 125.67 199.11 125.713 198.883C125.756 198.656 125.691 198.237 125.567 197.953C125.444 197.669 125.26 196.879 125.159 196.198C125.057 195.517 124.927 194.735 124.87 194.459C124.577 193.045 125.133 188.592 125.739 187.497C126.222 186.625 126.727 186.514 128.6 186.871C129.749 187.09 131.323 186.812 131.615 186.338C131.727 186.157 131.732 185.729 131.627 185.388C131.461 184.854 131.504 184.716 131.943 184.383C132.223 184.17 132.589 184.022 132.757 184.054C133.176 184.134 135.889 182.291 136.492 181.518C136.762 181.172 137.254 180.517 137.587 180.061C137.919 179.606 138.906 178.727 139.781 178.108C140.656 177.49 141.408 176.792 141.452 176.558C141.497 176.323 141.637 176.092 141.763 176.043C141.888 175.995 142.13 175.601 142.299 175.169C142.468 174.737 142.705 174.402 142.827 174.425C142.948 174.448 143.069 174.35 143.097 174.208C143.159 173.881 145.199 172.471 145.521 172.533C145.653 172.558 145.81 172.504 145.871 172.415C146.033 172.175 148.442 171.279 149.305 171.137C150.22 170.986 152.476 170.86 154.384 170.852C156.137 170.845 157.087 170.804 158.92 170.655C160.929 170.493 162.131 170.781 163.333 171.713L164.358 172.509L173.251 174.188C182.183 175.876 183.066 175.986 185.757 175.746C186.9 175.645 187.814 175.756 189.967 176.257C191.479 176.61 193.014 177.079 193.378 177.299C194.005 177.679 194.584 179.025 194.442 179.773C194.368 180.159 194.79 181.697 195.094 182.151C195.636 182.961 197.517 182.473 197.707 181.472C197.744 181.279 198.049 180.952 198.384 180.745C199.05 180.334 201.311 179.546 201.643 179.609C202.41 179.755 205.255 178.712 206.329 177.891C207.962 176.642 208.498 175.481 208.871 172.391C209.14 170.155 209.198 169.977 210.022 168.842C210.667 167.954 210.891 167.441 210.893 166.845C210.895 166.238 210.991 166.026 211.289 165.972C211.505 165.932 211.705 165.776 211.734 165.624C211.779 165.387 210.538 162.642 210.201 162.236C209.959 161.944 210.107 160.333 210.421 159.841C210.6 159.562 211.099 159.074 211.53 158.759C213.321 157.448 213.438 156.958 212.086 156.432C211.295 156.125 210.988 155.783 211.072 155.304C211.116 155.051 212.084 154.796 213.146 154.758C213.587 154.743 213.837 154.586 213.894 154.289C213.94 154.043 214.083 153.802 214.21 153.754C214.337 153.704 214.734 152.823 215.093 151.794C215.941 149.359 215.945 147.688 215.105 146.504C214.598 145.79 214.396 145.676 213.552 145.63C212.253 145.56 211.553 144.908 211.086 143.333C210.646 141.85 210.956 139.44 211.6 139.323C212.625 139.136 211.516 137.951 210.057 137.673C209.725 137.609 209.412 137.452 209.363 137.323C209.314 137.193 208.768 136.917 208.15 136.708C207.532 136.5 207.044 136.234 207.066 136.118C207.088 136.003 206.841 135.858 206.518 135.796C205.804 135.66 204.318 133.534 203.894 132.042C203.509 130.683 203.417 130.495 202.342 128.883C201.46 127.56 201.289 127.142 200.983 125.554C200.912 125.184 200.599 124.639 200.287 124.343C199.328 123.431 199.186 123.094 199.224 121.817C199.268 120.363 201.921 108.62 202.508 107.284C202.73 106.778 203.147 105.147 203.433 103.66C203.907 101.2 203.921 100.84 203.579 99.6886C203.163 98.2852 202.101 96.6738 200.716 95.3426C200.216 94.8614 199.787 94.383 199.763 94.2791C199.738 94.1752 199.617 94.0709 199.492 94.0471C198.781 93.9118 196.265 90.4176 195.745 88.8439C195.551 88.2557 195.079 87.5183 194.695 87.2052C194.311 86.8921 193.974 86.4402 193.946 86.2005C193.918 85.9611 193.798 85.7467 193.679 85.7242C193.561 85.7016 193.493 85.5265 193.53 85.335C193.566 85.1435 193.516 84.9715 193.418 84.9528C193.32 84.9341 193.11 84.4883 192.951 83.9619C192.792 83.4357 192.612 82.9413 192.551 82.8635C192.49 82.7857 192.024 81.6144 191.515 80.2607C191.006 78.907 190.525 77.733 190.445 77.6517C190.366 77.5704 190.273 77.2548 190.238 76.9507C190.204 76.6463 190.079 76.3791 189.96 76.3566C189.842 76.334 189.766 76.203 189.792 76.0656C189.852 75.7513 188.828 74.2167 188.519 74.1579C188.393 74.1339 188.274 74.0087 188.254 73.8799C188.223 73.6722 186.947 73.1848 183.607 72.1052C182.488 71.7434 180.981 70.8156 181.037 70.5224C181.057 70.4191 180.886 70.2992 180.657 70.2557C180.429 70.2122 180.162 70.0594 180.064 69.9159C179.715 69.4039 177.878 68.6854 175.528 68.1417C173.547 67.6833 172.997 67.6354 172.292 67.8596C171.416 68.1383 171.063 68.8012 171.47 69.403C171.864 69.9853 171.242 70.7281 170.121 71.0136C169.53 71.1642 168.851 71.4676 168.611 71.6878C168.021 72.2305 167.399 73.0264 167.346 73.3068C167.322 73.4335 167.006 73.6916 166.644 73.8804C166.282 74.0691 165.803 74.6017 165.58 75.0641C165.039 76.1849 164.186 76.8964 163.374 76.905C160.909 76.9312 160.574 76.9919 157.359 77.995C156.257 78.3389 155.217 79.0612 154.897 79.7052C154.71 80.0796 154.467 80.2669 154.284 80.1768C154.118 80.0945 153.734 79.9131 153.431 79.7738C153.129 79.6344 152.701 79.3613 152.481 79.1666C152.132 78.8585 152.132 78.7405 152.476 78.2523C153.353 77.0067 153.05 76.0646 151.687 75.8051C150.973 75.6692 147.387 73.3042 147.106 72.7834C147.057 72.6933 146.746 72.3628 146.414 72.0487C145.491 71.1739 145.313 70.9583 144.235 69.3951C143.385 68.1621 143.101 67.9163 142.365 67.7762C141.317 67.5767 140.684 67.831 138.65 69.2697C136.889 70.5148 136.046 70.7519 134.899 70.3253C133.976 69.9817 133.125 70.3856 132.377 71.5217C131.758 72.4622 130.379 73.4322 129.814 73.3247C129.326 73.2317 126.882 74.6832 126.8 75.1151C126.745 75.4025 125.386 76.0799 124.288 76.3667C123.873 76.4752 123.058 76.8019 122.478 77.0922C121.435 77.6146 120.778 78.014 117.619 80.0436C115.126 81.646 114.482 81.5928 112.904 79.6548L112.023 78.573L112.521 75.9737C113.178 72.5431 114.063 70.7785 115.709 69.6155C116.703 68.9131 117.578 67.666 118.397 65.784C119.241 63.8442 119.363 63.163 119.239 61.1178C119.159 59.8046 118.969 59.1753 118.358 58.1972C117.929 57.5116 117.596 56.8595 117.617 56.7481C117.667 56.4842 118.298 55.7025 118.684 55.4263C119.442 54.8834 121.56 53.1226 121.814 52.8236C121.969 52.641 122.18 52.4534 122.284 52.407C122.759 52.1931 123.67 50.0935 123.969 48.5242C124.15 47.5787 124.413 46.7603 124.555 46.7056C124.697 46.6508 124.852 46.4027 124.9 46.1544C124.947 45.906 125.349 45.2108 125.792 44.6097C126.818 43.2189 127.009 42.2166 126.482 40.9902C126.254 40.4599 126.098 39.8624 126.136 39.6623C126.175 39.4622 126.132 39.1814 126.042 39.0387C125.77 38.6053 125.821 36.0122 126.148 33.7064C126.448 31.589 126.476 31.5178 127.139 31.1715C127.656 30.9019 127.862 30.6034 127.988 29.9428C128.202 28.8212 127.86 28.5586 125.066 27.6983C123.885 27.3346 122.327 26.8224 121.605 26.56C120.101 26.0137 119.493 26.0612 118.525 26.8007C116.76 28.1494 116.594 28.2315 115.899 28.0993C115.509 28.0249 114.845 27.7363 114.426 27.458C113.459 26.8163 112.584 26.6492 111.66 26.9298C110.586 27.2556 110.167 27.0945 109.5 26.0991C108.806 25.0651 108.601 24.413 108.431 22.7084C108.216 20.5576 108.409 20.0646 110.715 16.8891C112.65 14.2247 112.875 13.8123 113.132 12.4634C113.391 11.1024 113.088 10.2448 112.293 10.0935C111.817 10.0029 110.703 8.02252 110.361 6.66029C110.005 5.23866 109.22 3.97588 108.621 3.86188C108.051 3.75338 107.264 4.12898 105.779 5.21903C105.103 5.71545 104.257 6.21397 103.9 6.32653C103.319 6.50953 103.222 6.47661 102.998 6.02067C102.86 5.73964 102.808 5.1698 102.883 4.75401C102.958 4.33818 102.916 3.97842 102.789 3.95424C102.662 3.93006 102.579 3.79839 102.605 3.66167C102.742 2.94255 100.595 1.13116 99.3174 0.887908C98.6602 0.762788 98.2597 0.846502 97.7729 1.21087ZM128.26 229.471C128.015 230.761 128.643 231.903 129.239 231.25C129.428 231.043 128.92 228.854 128.619 228.577C128.531 228.496 128.37 228.898 128.26 229.471ZM48.9739 330.992C48.8508 331.19 48.8223 331.583 48.9101 331.866C48.9978 332.149 48.9954 332.78 48.9045 333.267C48.7389 334.154 48.8712 335.665 49.2474 337.185C49.4841 338.142 50.4951 339.281 51.0221 339.185C51.3267 339.13 51.2984 338.865 50.8693 337.745C50.58 336.99 50.2453 335.978 50.1252 335.495C50.0055 335.012 49.8376 334.333 49.7525 333.986C49.6674 333.639 49.5077 332.743 49.3974 331.994C49.2566 331.036 49.131 330.739 48.9739 330.992Z" fill="#D94433"/>
</svg>
