<svg width="350" height="198" viewBox="0 0 350 198" fill="none" xmlns="http://www.w3.org/2000/svg">
<path fill-rule="evenodd" clip-rule="evenodd" d="M198.346 0.772425C197.944 1.22378 197.443 1.59307 197.233 1.59307C197.024 1.59307 196.147 2.56197 195.286 3.74616L193.72 5.89925L192.056 6.07295C190.831 6.20097 189.957 6.50953 188.74 7.24401C187.044 8.2668 186.348 8.3888 184.299 8.02198C182.725 7.74049 181.868 8.01432 181.297 8.98049C181.031 9.43102 180.602 9.79949 180.345 9.79949C180.087 9.79949 179.679 9.99617 179.439 10.2366C179.044 10.6313 178.939 10.633 178.36 10.253C177.55 9.72235 176.708 9.93407 176.132 10.8133L175.684 11.4963L174.941 10.7845C174.533 10.3934 173.959 10.076 173.666 10.0793C173.131 10.0859 171.669 10.8751 169.369 12.3982C168.688 12.8495 167.917 13.3458 167.657 13.5009C167.343 13.6877 167.139 14.2512 167.05 15.1747C166.929 16.4305 166.826 16.6094 165.999 17.0039C165.181 17.3943 164.96 17.3981 163.944 17.0397C162.128 16.3988 162.027 16.4538 162.047 18.0743C162.057 18.8643 162.064 20.8913 162.063 22.5791C162.062 24.2669 162.18 25.9596 162.325 26.3403C162.495 26.7881 162.494 27.033 162.321 27.033C161.969 27.033 161.972 31.7648 162.324 32.1171C162.473 32.2656 162.897 33.7584 163.268 35.435C163.795 37.8184 163.883 38.6809 163.67 39.3916C163.194 40.982 163.154 44.5632 163.597 45.8979C163.82 46.5697 164.054 48.3546 164.117 49.8643C164.18 51.3743 164.363 53.2251 164.525 53.9774C164.814 55.3219 165.41 63.9553 165.388 66.4823C165.382 67.1916 165.214 68.0678 165.015 68.4297C164.816 68.7916 164.387 69.5712 164.06 70.1626C163.734 70.7537 162.63 72.0318 161.607 73.0023C160.584 73.9729 158.687 75.8439 157.393 77.1599C155.258 79.3308 152.654 81.4689 152.144 81.4689C151.838 81.4689 148.335 83.1941 147.487 83.7628C147.073 84.0402 146.734 84.4336 146.734 84.6365C146.734 85.5409 144.943 86.9789 142.128 88.3352C137.619 90.5074 135.023 91.3007 131.772 91.5001C129.296 91.6522 128.831 91.6054 127.618 91.0835C126.867 90.7604 126.007 90.4959 125.708 90.4959C125.003 90.4959 123.345 88.5513 122.774 87.0544C122.382 86.0305 122.202 85.8648 121.33 85.7332C120.782 85.6506 119.777 85.5907 119.095 85.6002C116.504 85.6366 112.042 83.175 110.436 80.8236C109.607 79.6098 109.528 79.316 109.528 77.4455C109.528 76.2619 109.364 75.0326 109.139 74.5347C107.535 70.9772 106.792 68.9182 106.792 68.0298C106.792 67.4616 106.677 66.7137 106.536 66.3682C106.395 66.0227 106.207 65.2861 106.117 64.7316C106.027 64.1768 105.533 63.1117 105.019 62.3646C104.157 61.1112 104.11 60.9386 104.412 60.1366C104.702 59.3706 104.677 59.2213 104.21 58.8791C103.917 58.6657 103.405 58.4909 103.071 58.4909C101.978 58.4909 99.485 57.3715 99.1389 56.7251C98.9565 56.384 98.0676 55.7516 97.164 55.3197C95.6167 54.5803 93.9345 53.0793 93.9345 52.4381C93.9345 52.0204 92.9127 50.7328 91.2887 49.1044C89.6437 47.4549 88.3199 46.4379 86.4112 45.3568C84.2983 44.1603 81.3727 41.6883 80.3561 40.2406C79.8511 39.5209 79.1885 38.6226 78.8838 38.2443C78.5281 37.8025 78.1706 36.6282 77.8841 34.9617C77.4639 32.5181 77.4664 32.2558 77.9263 30.4523C78.1946 29.3991 78.5826 28.2946 78.788 27.9978C79.2452 27.3374 79.2722 26.5685 78.8433 26.4254C78.2346 26.2224 73.3997 27.8074 72.1128 28.6313C71.4004 29.0876 69.2786 30.1886 67.3978 31.0785C59.0053 35.0479 57.9181 35.5679 57.2334 35.9397C56.834 36.1563 56.3278 36.3336 56.1087 36.3336C55.8896 36.3336 55.2568 36.6413 54.7025 37.0174C54.1483 37.3936 53.5037 37.7013 53.2704 37.7013C53.037 37.7013 52.5191 37.9218 52.1197 38.191C50.3899 39.3576 48.4675 39.8383 44.9647 39.98C43.0838 40.0563 40.9294 40.3014 40.1771 40.5251C39.4248 40.7486 38.1092 41.1319 37.2531 41.3767C35.4415 41.8948 34.405 42.931 34.1486 44.4795C34.0562 45.0395 33.8414 45.8667 33.6718 46.318C33.2951 47.3195 30.6313 51.9433 29.601 53.3835C29.189 53.9596 28.713 54.8519 28.5431 55.3667C28.3152 56.0571 28.0755 56.3025 27.6285 56.3025C27.1714 56.3025 26.8415 56.6609 26.282 57.766C25.8744 58.5708 25.5409 59.2924 25.5409 59.3693C25.5409 59.573 22.8123 63.728 22.2555 64.3722C21.9954 64.6731 21.6892 65.2885 21.5751 65.7399C21.2521 67.0176 21.0772 73.429 21.1454 81.5055L21.1744 84.9618L19.911 87.3868C18.7453 89.6241 16.6185 92.3109 15.2687 93.2514C14.9604 93.4661 14.341 94.1957 13.8921 94.8727C13.2954 95.7724 12.3469 96.5591 10.3665 97.7972C8.87638 98.7286 7.09267 100.03 6.40244 100.689C5.71222 101.348 4.90408 102.024 4.60643 102.191C4.08937 102.48 4.06913 102.754 4.14847 108.326C4.22151 113.454 4.1657 114.404 3.68695 116.195C3.38711 117.315 3.19451 118.317 3.25853 118.42C3.37753 118.613 2.98605 120.017 2.54012 120.996C1.29481 123.731 0.67845 128.862 1.36211 130.8C1.79792 132.035 1.72569 135.673 1.25405 136.241C0.828095 136.754 0.0240602 139.961 0.000532842 141.239C-0.0104101 141.841 0.148537 143.401 0.353991 144.707C0.637687 146.509 0.662309 147.696 0.456581 149.631L0.185469 152.181L1.35609 155.242C2.37078 157.894 3.67217 162.117 4.40015 165.12L4.61901 166.023L6.24897 165.154C7.79631 164.328 7.95525 164.298 9.39179 164.564C11.2436 164.908 11.715 164.579 12.6687 162.278C13.2361 160.909 13.2659 160.641 12.9554 159.7C12.519 158.378 12.7053 157.887 13.7299 157.662C14.3148 157.534 14.8633 157.024 15.7004 155.83C17.2185 153.666 18.5872 152.318 19.2645 152.318C19.5644 152.318 20.651 151.894 21.6794 151.376C23.4275 150.496 23.5898 150.335 24.1678 148.911C24.7957 147.364 25.0372 147.192 26.621 147.16C26.9895 147.152 27.605 146.893 27.9888 146.583C28.3729 146.274 29.1201 145.716 29.6494 145.345L30.6121 144.67L32.6587 145.155C35.1401 145.745 35.9561 145.604 37.6709 144.296C38.3953 143.743 39.1135 143.291 39.2669 143.291C39.4204 143.291 40.1158 142.789 40.8121 142.176C41.8421 141.27 42.207 141.097 42.769 141.252C44.1407 141.63 45.5769 141.425 47.1155 140.631C48.4087 139.964 48.7684 139.607 49.3418 138.423C49.959 137.148 50.1139 137.01 50.9294 137.005C51.4262 137.001 52.709 136.8 53.78 136.556C56.013 136.048 57.7045 136.275 60.1956 137.418C61.3523 137.948 61.7774 138.019 62.5194 137.806C64.0128 137.378 64.8677 137.49 65.39 138.182L65.8696 138.818L67.2492 138.286C69.0748 137.582 71.8037 137.612 73.4399 138.354C74.1042 138.655 75.1399 138.904 75.7418 138.906C77.0596 138.911 79.6287 139.973 79.7915 140.58C79.8558 140.819 80.5545 141.226 81.3443 141.485L82.7803 141.954L83.8434 141.251C84.8305 140.598 84.9965 140.57 86.1606 140.863C87.106 141.101 87.964 141.102 89.6486 140.865C93.8395 140.277 94.1626 140.091 94.6047 138.025C94.7907 137.155 95.1075 137.105 96.5684 137.713C97.8892 138.264 98.0279 138.48 98.037 140.008C98.0446 141.334 98.6635 143.683 99.1644 144.287C99.334 144.491 99.8666 144.658 100.348 144.658C100.94 144.658 101.415 144.879 101.817 145.342C102.144 145.718 102.524 146.026 102.662 146.026C103.046 146.026 105.93 143.606 106.243 143.022C106.394 142.738 106.519 142.199 106.519 141.824C106.519 141.209 106.675 141.112 108.092 140.85C108.957 140.69 110.219 140.413 110.896 140.234C113.172 139.635 114.758 139.647 116.358 140.278C117.176 140.6 118.001 141.086 118.19 141.357C118.38 141.627 119.602 142.307 120.906 142.867C123.742 144.085 124.164 144.049 126.998 142.345C129.131 141.062 130.616 140.71 133.192 140.877C134.473 140.96 134.555 141.009 134.474 141.649C134.217 143.671 134.286 144.235 134.802 144.337C135.121 144.4 135.55 144.147 135.926 143.675C136.528 142.921 136.555 142.916 138.01 143.239C138.821 143.419 139.977 143.566 140.579 143.564C141.181 143.562 142.686 143.633 143.925 143.72L146.177 143.879L147.27 145.12C147.871 145.803 148.441 146.779 148.536 147.288C148.685 148.082 148.821 148.214 149.484 148.214C149.91 148.214 150.336 148.339 150.43 148.492C150.524 148.644 151.107 149.027 151.725 149.343C153.489 150.242 154.857 149.973 157.923 148.124C159.338 147.271 160.754 146.574 161.07 146.574C161.386 146.575 162.198 146.944 162.875 147.394C163.552 147.844 164.296 148.212 164.527 148.213C164.758 148.214 165.374 148.579 165.895 149.024C167.06 150.02 167.43 150.037 169.057 149.172C169.764 148.796 170.517 148.488 170.731 148.488C170.943 148.488 171.721 148.228 172.459 147.911C173.828 147.322 174.259 146.71 173.962 145.774C173.842 145.398 174.155 144.845 175.066 143.818C175.766 143.031 176.456 142.048 176.6 141.634C176.808 141.038 177.184 140.777 178.418 140.377C179.481 140.032 180.06 139.674 180.246 139.25C180.546 138.566 181.838 138.097 183.428 138.095C183.987 138.094 184.573 137.909 184.771 137.671C185.014 137.379 185.208 137.337 185.406 137.535C185.824 137.952 186.738 137.883 187.457 137.379C187.972 137.018 188.069 136.736 187.996 135.807C187.914 134.759 187.958 134.674 188.586 134.674C189.218 134.674 189.258 134.756 189.178 135.868C189.104 136.9 189.281 137.37 190.483 139.338C191.679 141.294 191.877 141.818 191.893 143.068C191.919 145.029 192.076 145.328 193.584 146.284C194.299 146.738 194.883 147.208 194.883 147.331C194.883 147.453 195.314 148.01 195.841 148.568C196.527 149.296 196.799 149.835 196.802 150.472C196.806 151.565 197.395 153.839 197.948 154.894C198.262 155.493 198.742 155.799 199.973 156.183C201.953 156.801 202.73 156.817 204.047 156.267C205.018 155.861 205.101 155.868 205.671 156.404C206.002 156.714 206.409 156.968 206.576 156.968C206.744 156.968 207.146 157.306 207.471 157.72C208.351 158.843 209.096 159.174 209.779 158.746C210.088 158.553 210.938 158.31 211.668 158.208C212.798 158.048 213.088 158.106 213.611 158.597C214.156 159.11 214.264 159.128 214.573 158.755C214.967 158.281 215.831 158.197 216.085 158.609C216.178 158.76 216.742 158.883 217.338 158.883C218.229 158.883 218.478 158.761 218.734 158.199C219.188 157.203 219.924 157.345 220.509 158.541C221.002 159.55 221.041 159.569 222.925 159.731C224.527 159.868 224.962 159.811 225.592 159.381L226.344 158.866V160.874C226.344 162.063 226.484 163.06 226.686 163.321C227.268 164.067 229.622 165.401 231.403 165.994C232.567 166.381 233.212 166.767 233.454 167.22C233.649 167.584 234.067 167.919 234.384 167.964C234.741 168.015 235.146 168.443 235.451 169.093C235.846 169.933 236.251 170.274 237.504 170.82C238.363 171.194 239.373 171.682 239.75 171.904C240.126 172.127 240.959 172.576 241.601 172.902C242.508 173.362 243.204 174.125 244.719 176.318C246.635 179.093 248.791 181.164 250.871 182.227C251.991 182.8 252.715 184.002 253.377 186.392C254.362 189.947 255.521 191.484 257.517 191.883C258.463 192.072 259.262 192.937 259.757 194.305C260.075 195.185 260.129 195.21 261.885 195.31C263.47 195.4 263.937 195.568 265.762 196.706C267.68 197.902 267.971 198 269.608 198H271.38L272.679 196.495C273.393 195.668 274.104 194.991 274.258 194.991C274.413 194.991 275.461 195.36 276.589 195.812C279.138 196.832 279.793 196.831 281.306 195.807C281.968 195.358 282.716 194.991 282.968 194.991C283.681 194.991 284.501 193.903 285.03 192.256C285.905 189.527 286.718 188.233 288.289 187.073C289.105 186.47 289.852 185.728 289.948 185.424C290.174 184.713 291.129 184.482 292.956 184.697C294.334 184.859 294.477 184.816 295.56 183.912C297.321 182.44 297.957 182.57 300.33 184.89C302.706 187.212 303.661 187.875 304.637 187.877C305.634 187.879 306.783 187.416 307.54 186.707C308.059 186.221 308.248 186.177 308.634 186.455C309.956 187.408 311.719 187.918 314.899 188.269C316.763 188.474 318.521 188.581 318.806 188.507C319.136 188.42 319.588 187.715 320.057 186.552C320.731 184.882 320.778 184.524 320.628 182.177C320.476 179.786 320.507 179.565 321.11 178.758C321.464 178.283 321.894 177.463 322.065 176.937C322.299 176.217 322.869 175.63 324.356 174.575C325.445 173.803 326.978 172.849 327.762 172.455C329.166 171.751 329.937 170.887 329.619 170.372C329.53 170.228 329.595 169.851 329.765 169.534C330.008 169.079 329.982 168.858 329.64 168.48C329.103 167.887 329.329 167.636 330.399 167.636C331.154 167.636 332.659 167.073 334.406 166.136C335.297 165.658 336.017 164.427 336.269 162.95C336.511 161.532 337.92 160.336 338.796 160.804C339.511 161.187 340.306 161.133 340.685 160.677C340.865 160.46 341.337 160.245 341.735 160.198C342.206 160.143 342.747 159.725 343.288 158.998C343.857 158.233 344.548 157.714 345.486 157.348C346.56 156.929 346.87 156.669 346.931 156.139C347.079 154.825 347.27 154.266 347.723 153.813C348.092 153.444 348.118 153.255 347.86 152.84C347.388 152.085 347.424 151.972 348.769 150.007C349.446 149.018 350 148.022 350 147.792C350 147.563 349.705 146.793 349.344 146.081C348.983 145.369 348.541 144.234 348.362 143.559C348.183 142.885 347.673 141.739 347.23 141.014L346.424 139.694L347.011 138.744C347.518 137.925 347.573 137.554 347.413 136.063C347.25 134.538 347.048 134.083 345.715 132.235C344.528 130.589 344.238 129.992 344.37 129.467C344.496 128.963 344.367 128.649 343.849 128.198C342.948 127.415 342.977 127.241 344.118 126.568C344.952 126.076 345.076 125.866 345.076 124.936C345.076 123.49 344.429 122.921 342.208 122.415C341.201 122.185 340.356 121.957 340.331 121.907C339.945 121.153 339.057 117.948 339.057 117.307C339.057 116.368 338.507 115.134 337.844 114.583C337.608 114.388 337.41 113.843 337.403 113.372C337.392 112.67 337.119 112.3 335.886 111.313C333.925 109.744 333.721 109.347 334.419 108.459C334.721 108.075 335.211 107.685 335.508 107.59C335.936 107.454 336.048 107.174 336.048 106.238C336.048 105.288 336.154 105.03 336.595 104.915C336.95 104.822 337.142 104.541 337.142 104.117C337.142 103.186 336.644 102.806 335.428 102.806C334.057 102.806 333.42 102.446 332.874 101.361C332.63 100.877 332.05 100.08 331.586 99.5914C330.868 98.8347 330.551 98.7023 329.46 98.7023C328.408 98.7023 328.152 98.8005 328.035 99.2494C327.939 99.6149 327.662 99.7965 327.198 99.7965C326.817 99.7965 326.429 99.9196 326.336 100.07C326.243 100.221 325.69 100.344 325.107 100.344C324.242 100.344 323.94 100.494 323.463 101.164C323.142 101.616 322.794 101.985 322.691 101.985C322.427 101.985 322.468 96.7271 322.735 96.305C322.855 96.1146 323.427 95.7174 324.006 95.422C325.077 94.876 325.278 94.4681 325.528 92.3355C325.586 91.8503 325.714 91.1054 325.815 90.68C325.95 90.1067 325.838 89.6911 325.381 89.0735C324.819 88.3125 324.794 88.1418 325.098 87.1111C325.282 86.4904 325.588 85.7978 325.779 85.5721C326.168 85.1122 326.533 82.4908 326.295 81.8707C326.21 81.6497 325.907 81.4689 325.623 81.4689C324.993 81.4689 324.955 81.1127 325.535 80.6315C325.772 80.4351 326.204 79.8071 326.495 79.2362C326.787 78.665 327.363 78.0222 327.775 77.8077C329.184 77.0746 329.699 76.176 330.852 72.4418C331.827 69.2804 331.974 68.4929 331.869 66.9709C331.692 64.4066 330.853 62.773 329.48 62.32C328.766 62.0845 328.182 61.6271 327.738 60.9556C327.273 60.2525 326.417 59.6037 324.924 58.8219C323.224 57.9312 322.649 57.4662 322.15 56.5796C321.718 55.8134 321.158 55.2986 320.371 54.9452C314.648 52.3757 314.94 52.5585 315.033 51.5975C315.104 50.8685 315.272 50.6685 315.984 50.4656C316.707 50.2599 316.898 50.0246 317.147 49.0366C317.564 47.3789 317.518 46.5232 316.995 46.2308C316.692 46.0606 316.591 45.7485 316.683 45.2649C316.803 44.6346 316.714 44.5304 315.924 44.3822C315.415 44.2867 314.4 44.3956 313.569 44.6352C310.845 45.4211 309.377 45.49 308.366 44.8803C307.867 44.5797 306.793 44.1174 305.979 43.8531C304.736 43.4496 304.282 43.4223 303.153 43.6827C301.316 44.1067 300.029 44.0722 298.276 43.5525C295.955 42.8642 294.786 42.1582 292.494 40.0593C290.62 38.3436 290.206 38.0911 289.021 37.9393C288.08 37.8189 287.339 37.497 286.557 36.8689C285.585 36.0876 285.353 36.0102 284.774 36.2739C284.408 36.4405 283.587 37.268 282.949 38.113C281.776 39.6662 280.709 40.4368 279.729 40.4368C279.434 40.4368 278.893 40.7935 278.526 41.2295C277.981 41.8773 277.522 42.0748 276.024 42.3081C273.773 42.6585 271.849 43.7771 271.607 44.8754C271.389 45.87 271.069 46.0286 270.095 45.6251C269.42 45.3459 269.08 45.3688 268.046 45.7633C267.036 46.149 266.664 46.1774 266.035 45.917C265.353 45.6344 265.235 45.4011 265.022 43.9125C264.738 41.9241 264.249 41.5414 261.985 41.5351C260.603 41.531 259.999 41.3269 256.528 39.6925C254.925 38.9372 253.803 37.5054 253.664 36.0357C253.613 35.5107 253.273 34.7826 252.886 34.3714C251.008 32.377 250.671 31.7763 250.978 30.9685C251.452 29.7214 251.117 29.1437 249.535 28.4792C248.742 28.1463 247.724 27.7915 247.273 27.6911C246.821 27.5905 246.206 27.2934 245.905 27.0308C245.604 26.7682 244.819 26.2194 244.161 25.811C242.97 25.0714 242.965 25.0637 243.138 23.8073C243.233 23.1133 243.556 22.0394 243.856 21.4203C244.66 19.7588 244.58 19.1816 243.511 18.9546C243.022 18.8506 242.418 18.5858 242.168 18.3659C241.769 18.0141 241.606 18.022 240.815 18.431C239.627 19.0457 236.933 18.8082 235.004 17.9186C233.693 17.3146 233.143 16.8354 230.628 14.1079C229.51 12.8952 228.533 12.7604 227.897 13.7309C227.084 14.9723 226.272 14.8062 224.525 13.0405C223.467 11.9717 222.723 11.4408 222.283 11.4408C221.698 11.4408 221.643 11.35 221.789 10.6218C222.002 9.55603 221.049 8.8366 219.79 9.11316C219.071 9.27099 218.958 9.21847 218.958 8.72691C218.958 8.09118 218.642 8.01541 217.82 8.455C216.958 8.91647 215.982 8.54007 215.799 7.67539C215.712 7.26398 215.583 6.64302 215.512 6.29589C215.419 5.84153 214.906 5.43859 213.682 4.85977C212.747 4.41744 211.774 4.05527 211.52 4.05527C211.267 4.05499 210.296 3.20344 209.364 2.16259C208.432 1.12147 207.532 0.329826 207.364 0.403137C207.195 0.476447 206.764 0.905369 206.406 1.35645L205.754 2.17682L206.581 3.04752C207.224 3.72564 207.448 4.26644 207.594 5.49221C207.754 6.84326 207.713 7.09191 207.303 7.24948C206.976 7.37476 206.689 7.23279 206.394 6.79922C206.157 6.45099 205.563 5.74032 205.074 5.21976C204.353 4.45246 204.185 4.04952 204.185 3.08636C204.185 2.43313 204.06 1.82148 203.907 1.72711C203.754 1.63246 203.689 1.45711 203.764 1.3373C203.838 1.21721 203.667 0.91002 203.385 0.654527C203.048 0.349795 202.809 0.289888 202.691 0.481098C202.438 0.890871 201.167 0.826314 200.355 0.362105C199.383 -0.19347 199.168 -0.149429 198.346 0.772425Z" fill="#F5D31F"/>
</svg>
