<svg width="398" height="574" viewBox="0 0 398 574" fill="none" xmlns="http://www.w3.org/2000/svg">
<path fill-rule="evenodd" clip-rule="evenodd" d="M332.689 1.47549C332.524 1.88928 332.642 2.72761 332.949 3.33915C333.352 4.14013 333.058 4.9111 331.896 6.09415C330.533 7.48436 330.352 8.14361 330.724 10.3707C331.153 12.9447 331.203 12.9911 332.93 12.4292C333.902 12.1134 334.739 12.106 334.79 12.4127C334.841 12.7194 334.299 16.0152 333.585 19.7361C332.384 25.9958 329.873 33.1354 328.808 33.3154C328.559 33.3576 328.006 31.2968 327.579 28.7364C326.982 25.1615 327.01 23.1689 327.699 20.1562C329.461 12.454 326.788 8.13218 322.456 11.6791C319.851 13.8134 318.976 16.484 316.939 28.5248C316.279 32.4262 315.473 36.0882 315.146 36.6631C314.82 37.238 314.64 39.4248 314.746 41.5221C314.958 45.7121 313.854 48.7209 311.865 49.3721C310.809 49.7173 310.548 49.478 310.289 47.9273C310.015 46.282 310.201 46.0088 311.91 45.5473L313.841 45.0264L312.707 38.2252L311.572 31.424L313.977 25.9391C316.288 20.6701 316.349 20.3282 315.522 17.2543C314.707 14.2229 314.743 13.992 316.208 12.8739C319.103 10.664 318.491 8.57423 314.28 6.28689C312.76 5.46184 311.145 5.1223 309.802 5.34619C307.926 5.65891 307.616 5.99976 306.909 8.52939C306.472 10.0872 306.175 12.8593 306.247 14.6883L306.378 18.0142L303.522 16.8901C299.723 15.3945 298.89 15.6326 296.945 18.7695C293.372 24.5324 293.488 27.405 297.298 27.4988C300.506 27.5772 300.618 28.3637 297.701 30.3187L295.081 32.0734L295.964 34.9855C296.752 37.5862 296.725 37.8867 295.716 37.7893C294.007 37.6238 290.809 41.5053 289.863 44.8931C289.402 46.5427 288.585 48.8231 288.046 49.9608C287.295 51.5471 287.201 53.2659 287.642 57.3364L288.217 62.6435L286.075 58.4264C284.896 56.107 283.865 53.2762 283.783 52.1357C283.651 50.3027 283.841 50.0276 285.418 49.7649C286.965 49.5068 287.387 48.939 288.608 45.4608C289.814 42.0289 289.908 40.9653 289.263 38.0434C288.562 34.8639 288.417 34.6601 287.109 35.0313C286.337 35.2501 285.017 36.257 284.174 37.2681C283.332 38.2791 282.299 39.1638 281.879 39.2338C280.859 39.4037 274.957 48.2982 275.139 49.3895C275.218 49.8613 275.664 50.5266 276.131 50.8682C276.756 51.3257 276.833 51.7006 276.42 52.2924C276.008 52.8834 275.442 52.8101 274.27 52.0153C273.256 51.3271 271.884 51.0678 270.489 51.3004C268.577 51.6191 268.214 51.9649 267.646 54.0125L266.995 56.3593L265.017 54.7559L263.038 53.1526L261.106 54.5995C258.09 56.8582 258.566 58.3669 263.139 61.0445C265.279 62.2973 267.778 63.3646 268.692 63.4156C269.606 63.4666 270.614 63.5274 270.931 63.5513C271.249 63.5746 271.784 65.1047 272.119 66.9514L272.73 70.3091L269.154 67.5398C266.09 65.1687 265.193 64.799 262.904 64.9632L260.232 65.1558L260.925 67.2289C261.702 69.5536 261.256 69.9965 259.815 68.3315C258.354 66.6426 257.135 67.2494 256.885 69.7892C256.761 71.042 255.809 74.1323 254.768 76.6559C253.727 79.18 252.373 84.1668 251.759 87.7377C251.144 91.3087 250.345 94.3875 249.983 94.58C249.614 94.7762 249.718 93.1002 250.218 90.7768C251.697 83.9027 251.963 68.3696 250.597 68.5972C250.37 68.6352 249.122 69.4322 247.826 70.3684C244.68 72.6384 243.5 76.5598 244.522 81.3412C245.109 84.0878 245.047 85.0361 244.198 86.3407C243.621 87.2267 242.97 88.6957 242.753 89.6057L242.357 91.2598L242.359 89.6709C242.36 88.7969 242.462 85.9475 242.586 83.3391C242.827 78.2799 242.031 75.1092 240.581 75.3509C239.096 75.5986 236.438 77.917 234.085 81.0171C230.425 85.8387 230.942 82.4872 234.671 77.2189C237.624 73.0478 237.949 72.773 239.018 73.5551C239.907 74.2056 240.519 74.204 241.677 73.5471C243.94 72.2623 244.609 70.2787 243.367 68.5335C242.443 67.2354 242.495 67.0285 244.036 65.8858C245.478 64.8155 245.643 64.3278 245.243 62.3119C244.742 59.7812 242.693 57.746 239.6 56.7071C236.949 55.8166 236.55 56.0737 235.814 59.1463C234.99 62.5883 235.877 65.9674 237.531 65.6916C238.139 65.5902 238.884 65.7972 239.187 66.1514C239.576 66.6051 239.29 66.7399 238.213 66.6086C233.986 66.0925 226.507 65.923 225.338 66.3166C224.27 66.6764 224.082 67.1621 224.362 68.8402C224.704 70.8892 224.734 70.9058 226.572 70.016C229.28 68.706 229.513 68.7753 228.367 70.5492C227.684 71.6068 227.532 72.5963 227.913 73.4846C228.32 74.4316 228.222 74.8694 227.579 74.9765C227.079 75.0599 226.432 76.1807 226.141 77.4665C225.745 79.2204 224.966 80.2388 223.025 81.539C220.805 83.0264 220.512 83.4774 220.964 84.7163C221.368 85.8227 221.229 86.203 220.366 86.3468C219.476 86.4953 219.32 87.0023 219.617 88.7848L219.993 91.0354L223.298 90.119C225.116 89.6152 226.929 88.8165 227.328 88.3453C227.726 87.8734 228.426 87.5757 228.882 87.6839C229.423 87.8124 229.298 88.0912 228.524 88.4846C227.071 89.2225 225.807 92.3907 226.149 94.4379C226.287 95.2682 227.036 96.3649 227.812 96.8754C228.862 97.5665 229.074 98.004 228.641 98.5834C228.222 99.1432 227.937 99.1475 227.631 98.5973C227.397 98.1756 226.487 97.2184 225.61 96.4698C224.451 95.4809 223.689 95.2776 222.824 95.7268C221.506 96.4116 221.189 98.0762 221.736 101.431C222.154 103.998 221.261 105.393 218.159 107.019C216.982 107.635 215.711 108.805 215.333 109.618C214.396 111.636 215.2 116.206 216.583 116.718C217.533 117.07 217.537 117.363 216.628 119.443C215.887 121.139 214.106 122.884 210.093 125.848C203.413 130.782 202.033 132.259 202.346 134.137C202.624 135.808 204.791 136.395 209.832 136.165C212.146 136.06 213.467 135.662 214.747 134.685C215.709 133.951 216.539 133.604 216.59 133.915C216.642 134.225 216.136 136.512 215.466 138.996C214.478 142.659 214.124 143.301 213.593 142.398C213.234 141.785 212.821 140.691 212.676 139.966C212.345 138.308 211.385 138.111 205.785 138.554C201.415 138.9 201.286 138.952 201.51 140.294C201.637 141.054 203.255 142.978 205.106 144.569C206.957 146.16 208.349 147.636 208.2 147.851C208.051 148.065 206.98 147.328 205.82 146.212C203.901 144.367 198.455 141.474 197.272 141.672C196.503 141.8 197.147 144.213 199.06 148.364C200.643 151.799 201.016 152.204 202.634 152.236L204.44 152.272L202.061 154.764L199.683 157.255L198.427 151.588C196.996 145.133 196.294 144.516 194.149 147.83C192.95 149.68 192.424 150.001 190.582 150.002C188.764 150.003 188.121 150.378 186.543 152.356C185.51 153.649 184.7 154.916 184.743 155.17C184.785 155.425 186.672 155.828 188.936 156.067C195.378 156.746 194.965 157.554 187.835 158.217L181.641 158.793L180.158 161.141C178.074 164.44 177.385 168.384 178.54 170.397C179.66 172.349 180.872 172.187 183.074 169.788C185.443 167.208 189.029 165.267 190.451 165.794C192.218 166.449 191.273 167.536 188.986 167.48C185.862 167.404 184.528 168.774 184.997 171.583C185.451 174.303 188.423 176.828 190.721 176.445C191.741 176.275 192.057 176.49 191.908 177.252C191.796 177.824 191.804 178.887 191.925 179.615C192.105 180.69 191.244 180.284 187.36 177.464C182.026 173.593 180.798 173.438 178.386 176.333C176.69 178.369 176.469 179.456 177.795 179.235C178.869 179.056 181.317 181.068 180.847 181.743C180.644 182.034 180.132 181.832 179.709 181.294C178.732 180.05 175.307 180.495 175.531 181.837C175.616 182.347 175.414 182.809 175.081 182.865C174.749 182.92 174.434 182.707 174.381 182.391C174.203 181.325 172.129 180.231 171.264 180.749C170.633 181.127 170.577 181.995 171.053 184.029C172.008 188.109 174.191 189.099 179.746 187.974C183.367 187.24 184.444 187.293 187.678 188.368C191.101 189.507 191.266 189.64 189.612 189.938C188.617 190.116 184.583 190.224 180.648 190.177C170.462 190.053 168.423 191.177 172.453 194.693L174.334 196.335L170.939 196.901C168.478 197.311 167.405 197.227 167.041 196.597C166.755 196.102 165.787 195.853 164.791 196.019C163.321 196.264 163.085 196.561 163.305 197.882C163.449 198.747 163.102 200.162 162.534 201.029C161.681 202.33 161.644 203.134 162.321 205.645C162.772 207.318 163.454 209.322 163.837 210.099C164.319 211.079 164.304 211.416 163.785 211.198C163.374 211.025 162.704 209.958 162.296 208.828C161.139 205.625 159.822 205.183 158.232 207.465C156.724 209.629 155.248 216.846 156.109 217.849C156.425 218.218 157.755 218.52 159.064 218.519L161.445 218.518L159.541 219.894C157.724 221.205 157.589 221.22 156.621 220.213C154.756 218.272 153.413 219.207 153.515 222.376C153.565 223.947 153.335 226.101 153.004 227.164C152.532 228.674 152.584 229.203 153.242 229.589C154.674 230.427 158.986 230.66 162.468 230.088L165.792 229.541L164.203 231.048C162.802 232.377 162.48 232.468 161.488 231.815C159.896 230.768 158.231 231.198 154.685 233.574L151.597 235.643L151.035 232.276C150.22 227.388 148.928 228.011 143.133 236.084C139.995 240.456 139.986 240.484 140.573 244.004C141.32 248.48 142.49 250.576 144.093 250.309C144.917 250.171 145.249 249.698 145.109 248.859C144.886 247.522 149.842 240.343 150.729 240.717C151.692 241.123 154.503 245.396 153.875 245.501C153.536 245.557 153.218 245.355 153.167 245.052C153.044 244.315 150.245 244.105 149.164 244.752C148.69 245.036 147.951 247.089 147.52 249.315C146.746 253.318 146.71 253.37 144.228 253.976C142.053 254.509 141.75 254.782 141.958 256.027C142.09 256.817 143.201 259.226 144.428 261.379C146.997 265.891 147.037 267.041 144.499 263.46C143.546 262.116 142.103 260.435 141.292 259.725C139.905 258.51 139.768 258.506 138.967 259.655C138.296 260.619 138.305 261.814 139.013 265.315C139.891 269.662 139.875 269.787 138.247 271.406L136.584 273.059L138.745 273.779C140.737 274.442 140.824 274.563 139.85 275.322C139.27 275.775 138.193 276.944 137.457 277.919L136.119 279.693L134.231 278.312C132.743 277.223 132.013 277.076 130.785 277.62C129.929 277.999 128.934 278.656 128.577 279.08C127.651 280.174 128.207 282.825 129.322 282.639C130.394 282.461 130.487 282.751 129.919 284.488C129.585 285.508 128.84 285.897 126.462 286.293C123.626 286.766 123.37 286.684 122.473 285.018C121.606 283.407 121.341 283.305 119.689 283.955C117.357 284.873 115.598 286.483 115.029 288.22C114.624 289.457 114.923 289.676 118.212 290.551C122.382 291.659 126.211 292.007 129.257 291.554C131.332 291.245 131.35 291.261 130.088 292.284L128.799 293.33L130.678 294.388C132.25 295.272 132.37 295.474 131.417 295.626C129.926 295.861 129.007 295.403 127.848 293.847C126.648 292.237 126.142 292.337 124.357 294.541L122.912 296.324L124.432 298.341C125.27 299.451 126.116 300.336 126.313 300.309C126.511 300.281 127.08 300.435 127.579 300.652C128.311 300.971 128.294 301.582 127.491 303.848C126.175 307.558 124.769 307.554 121.455 303.831C118.904 300.965 118.873 300.953 117.346 302.118C115.846 303.264 108.397 312.266 104.007 318.24C101.722 321.35 99.953 325.832 100.774 326.433C101.035 326.625 99.7134 328.822 97.8356 331.315C95.9583 333.808 94.5017 336.324 94.599 336.907C94.815 338.202 95.1833 338.155 98.2458 336.435C101.465 334.627 101.466 334.628 99.3876 337.432C98.3922 338.775 97.6764 340.466 97.7972 341.19C98.0693 342.821 102.839 346.79 104.245 346.556C104.813 346.461 105.8 345.582 106.439 344.601C107.077 343.621 108.073 342.74 108.652 342.644C110.205 342.385 114.863 339.209 116.825 337.073C118.564 335.178 118.772 332.946 117.31 331.876C116.77 331.48 117.07 330.873 118.355 329.766C120.774 327.682 124.865 324.782 124.92 325.111C125.069 326.002 122.174 330.222 121.316 330.365C119.259 330.708 118.938 335.966 120.948 336.393C122.532 336.728 123.979 335.2 124.076 333.087C124.176 330.908 125.167 330.314 125.488 332.24C125.766 333.903 123.705 336.8 121.633 337.658C116.79 339.663 115.493 340.42 114.529 341.803L113.47 343.323L114.959 343.619L116.448 343.916L115.298 345.682C113.964 347.73 111.927 348.246 108.49 347.409C105.6 346.705 104.327 347.284 102.752 350.016C101.387 352.384 100.629 352.832 101.264 350.895C101.582 349.924 101.325 348.929 100.281 347.087C99.504 345.715 98.2566 343.479 97.5093 342.118C96.0557 339.472 94.9268 339.211 93.1643 341.115C92.6023 341.722 91.7679 342.281 91.3094 342.357C90.678 342.463 84.5331 339.756 81.1225 337.87C80.9487 337.774 81.0456 337.101 81.3384 336.373C81.9872 334.761 81.3861 330.666 80.5215 330.81C80.1778 330.868 78.6717 331.834 77.1745 332.957C75.6773 334.081 73.7634 335.115 72.9213 335.255C71.6955 335.459 71.4419 335.815 71.6464 337.041C71.8374 338.186 72.5228 338.777 74.3662 339.386L76.8306 340.201L75.1403 341.235C71.7344 343.319 70.6841 344.274 70.6629 345.304C70.6239 347.189 73.8079 347.965 79.7848 347.528C87.2389 346.983 88.2263 347.095 88.4626 348.511C88.795 350.504 88.3028 351.755 87.1078 351.955C86.1997 352.106 85.8884 351.692 85.5966 349.942C85.244 347.829 85.15 347.76 83.2979 348.26C81.6467 348.706 81.2224 349.263 80.3699 352.111C79.2022 356.01 76.865 358.206 71.69 360.267C68.8952 361.381 68.3449 361.819 68.8031 362.567C69.1146 363.075 69.5595 363.888 69.7914 364.374C70.0239 364.859 71.1427 365.719 72.2789 366.284C74.3387 367.308 74.3408 367.313 73.1415 368.257C71.6582 369.423 71.3637 369.22 69.563 365.797C66.8369 360.614 59.4004 358.742 55.5179 362.26C54.5535 363.135 53.8352 364.271 53.9211 364.786C54.1136 365.939 54.0551 365.95 51.7266 365.165C49.4975 364.414 47.313 364.663 46.8946 365.716C46.7302 366.131 46.8222 367.679 47.0986 369.158L47.6017 371.846L44.1263 373.208C42.2146 373.957 40.6806 374.749 40.7169 374.966C40.8577 375.81 47.2173 377.574 50.483 377.675C52.3711 377.734 56.3855 377.51 59.4039 377.18C62.4224 376.849 65.0026 376.571 65.1378 376.562C65.2731 376.554 64.3996 377.567 63.1961 378.814L61.0087 381.081L58.3309 380.179C52.1868 378.111 34.9091 377.958 33.2197 379.958C32.1812 381.188 32.3582 382.305 33.7204 383.119C34.4584 383.56 34.6248 383.984 34.2621 384.505C33.975 384.917 33.8236 385.755 33.9257 386.367C34.0748 387.261 34.6178 387.4 36.6826 387.074C39.992 386.551 41.1151 387.027 46.3763 391.18L50.7228 394.611L48.6167 394.709C46.661 394.8 46.4617 395.001 45.8236 397.529C45.4463 399.027 44.9386 400.108 44.6967 399.931C44.4547 399.753 44.5428 398.692 44.8924 397.572C45.8304 394.566 44.4874 390.332 42.1309 388.865C40.7174 387.985 39.5526 387.844 37.0986 388.253C33.3541 388.877 28.8634 390.987 27.4837 392.77C26.2936 394.309 26.8109 398.352 28.3132 399.25C30.023 400.272 29.6606 401.04 27.8543 400.221C26.7372 399.715 26.0801 398.892 25.8914 397.761C25.6323 396.208 25.3612 396.067 22.7391 396.135C21.1618 396.176 18.9574 396.361 17.8403 396.548C15.9874 396.856 15.8375 397.048 16.1199 398.741C16.3661 400.217 16.1683 400.639 15.1522 400.809C13.776 401.038 9.58287 404.221 9.70366 404.945C10.0229 406.859 26.8976 410.708 35.2011 410.761C37.5898 410.776 37.8666 410.871 36.3969 411.173C33.4635 411.776 26.4715 411.283 20.7997 410.073C17.9854 409.473 15.338 409.039 14.9163 409.109C14.494 409.18 12.9729 408.474 11.5355 407.54C7.69721 405.048 6.45412 404.74 4.90445 405.895C2.93996 407.358 3.13003 408.204 5.93854 410.485L8.50155 412.568L7.15585 413.837C5.50214 415.395 5.63281 416.383 7.85751 419.148C9.86616 421.645 9.54731 422.983 6.66371 424.156C4.0145 425.234 2.81379 428.063 3.76615 430.984C4.84127 434.28 8.19031 438.949 10.0514 439.746C10.8934 440.107 12.9994 440.519 14.7305 440.66L17.8782 440.918L15.4672 441.354C13.9138 441.634 12.106 441.391 10.3855 440.669C5.04473 438.429 3.18071 440.286 4.26264 446.771C4.80686 450.034 4.85921 450.102 7.09476 450.464C8.68829 450.722 9.31493 451.124 9.18145 451.806C9.07642 452.341 9.05936 453.192 9.14342 453.696C9.26627 454.432 8.79572 454.425 6.74512 453.661C5.3421 453.138 3.69483 452.896 3.08514 453.124C1.54772 453.697 1.75789 457.026 3.38481 457.868C4.48565 458.437 4.44857 458.516 2.96662 458.763C0.862401 459.114 1.08373 460.876 3.48975 462.93C4.93068 464.16 5.69559 464.335 7.84734 463.926C9.28274 463.653 11.5019 462.64 12.7782 461.674C14.0552 460.708 15.2274 459.897 15.3833 459.871C15.9131 459.782 15.2221 463.963 14.5474 464.932C13.9932 465.726 13.3491 465.841 10.8608 465.586C7.98643 465.292 7.80359 465.354 6.94634 466.908C4.62742 471.112 6.00339 478.15 9.19818 478.425C10.0191 478.496 11.2085 478.148 11.8403 477.651C12.9568 476.773 13.0102 476.874 13.7498 481.251C14.1685 483.727 14.8208 486.108 15.2005 486.541C16.2928 487.789 18.3014 485.468 21.2162 479.592C25.2291 471.503 27.5267 469.694 34.9043 468.821L38.7861 468.361L36.5766 471.099L34.3669 473.837L34.1216 471.826C33.892 469.944 33.7624 469.848 32.0987 470.328C29.6405 471.036 27.1425 472.889 24.8709 475.691C23.3678 477.545 23.031 478.489 23.3296 480.015C23.5392 481.089 23.5212 481.971 23.2886 481.976C21.2273 482.022 20.4007 482.732 20.179 484.645C20.0089 486.112 19.0931 487.561 17.1471 489.44C14.2519 492.237 14.0071 493.249 15.6308 495.705C16.3517 496.795 16.4867 497.578 16.167 498.811L15.7399 500.46L11.5089 498.645C6.67744 496.572 3.77162 496.223 3.01131 497.625C2.73249 498.138 2.7909 501.094 3.14083 504.193C3.83538 510.347 3.28741 513.323 1.07515 515.408C-0.0397578 516.46 -0.179311 517.082 0.29586 518.881C0.874504 521.069 0.880558 521.072 4.88897 521.092C7.09635 521.103 9.08826 520.968 9.31549 520.793C10.1121 520.178 9.35738 518.342 7.48565 516.338C6.44629 515.226 5.57725 514.204 5.55467 514.069C5.53197 513.933 7.02455 514.088 8.87225 514.414C10.7193 514.74 13.2523 514.846 14.4999 514.649C16.7077 514.301 16.7608 514.229 16.4642 511.959C16.2397 510.242 16.3005 510.022 16.6947 511.127C16.9894 511.951 17.8307 513.038 18.5653 513.54C20.8002 515.071 20.7356 517.65 18.3548 521.937C17.0775 524.237 16.3112 526.437 16.4654 527.361C16.786 529.283 16.6465 529.306 13.576 527.852C12.2114 527.205 10.3887 526.794 9.52477 526.938C7.46405 527.282 7.01774 530.126 7.83751 537.705C8.35394 542.483 8.73011 543.822 10.3524 546.661C12.8331 551.001 16.8504 554.673 23.2589 558.457C27.2105 560.79 28.2429 561.668 27.6293 562.17C26.2912 563.264 26.4526 566.591 27.9011 567.766C29.226 568.841 31.7383 568.781 32.1817 567.664C32.3253 567.301 33.3149 567.687 34.3794 568.522C36.5005 570.185 45.9847 573.606 47.689 573.322C48.2756 573.224 49.9182 572.235 51.3387 571.124C53.0108 569.817 55.5582 568.636 58.5663 567.773C63.5062 566.358 67.7696 563.793 71.8068 559.809C75.7437 555.925 83.0988 545.823 84.0627 542.977C85.4234 538.962 86.3543 537.794 89.8177 535.761C91.5601 534.737 93.2944 533.535 93.6719 533.088C94.194 532.47 94.7827 532.611 96.1319 533.679C97.3316 534.628 98.5215 534.979 99.8101 534.765C104.153 534.041 109.169 522.325 108.409 514.68C108.118 511.752 108.228 511.418 109.619 511.004C110.793 510.654 111.09 510.199 110.897 509.043C110.759 508.215 110.949 507.488 111.319 507.426C111.802 507.346 112.301 509.922 113.09 516.584C113.695 521.682 114.471 526.414 114.816 527.099C115.352 528.165 115.91 528.268 118.663 527.809C121.619 527.316 122.073 527.432 124.228 529.234C125.518 530.313 127.667 532.814 129.004 534.793C130.34 536.771 131.716 538.342 132.061 538.285C133.116 538.109 135.704 533.654 136.991 529.797C138.088 526.511 138.122 525.384 137.33 518.661C136.577 512.276 136.602 510.597 137.501 507.192C138.805 502.253 141.067 498.79 143.603 497.85C145.781 497.043 147.706 494.216 150.338 487.955C153.725 479.898 153.56 470.894 149.888 463.41C145.583 454.637 145.525 450.819 149.671 449.282C152.592 448.2 155.471 443.908 155.865 440.046C156.471 434.114 154.704 430.59 147.462 423.286C144.968 420.77 144.453 419.862 144.007 417.189C143.716 415.448 143.829 411.727 144.26 408.836C144.954 404.18 144.874 402.561 143.518 393.707C141.712 381.913 141.411 375.457 142.462 371.112C143.32 367.569 142.825 363.245 140.979 358.166C139.95 355.334 139.92 354.732 140.719 353.12C141.218 352.113 142.94 346.649 144.544 340.979C146.935 332.535 147.892 330.129 149.829 327.695C153.138 323.538 154.834 323.113 164.157 324.102C171.384 324.868 174.241 323.444 175.637 318.375C176.426 315.513 176.255 308.372 175.336 305.789C174.869 304.479 173.894 303.655 171.747 302.758C167.203 300.86 167.273 300.186 173.456 286.345C177.457 277.389 178.865 272.858 179.686 266.3C180.299 261.404 180.249 259.326 179.277 249.002C178.846 244.417 178.592 239.584 178.713 238.261L178.935 235.858L183.075 235.101C190.561 233.731 193.3 230.272 191.942 223.899C191.38 221.258 191.456 220.921 192.747 220.35C195.879 218.963 200.642 211.139 204.717 200.684C207.53 193.465 207.519 191.034 204.643 184.716C203.505 182.218 202.485 179.633 202.374 178.973C202.264 178.313 203.102 176.708 204.237 175.407C205.567 173.883 206.902 171.107 207.992 167.602C210.988 157.965 213.765 153.538 217.17 152.971C217.805 152.865 219.49 153.442 220.915 154.253C227.387 157.938 229.214 153.423 229.239 133.67C229.243 130.971 229.758 130.912 234.091 133.113C235.547 133.852 237.523 134.326 238.482 134.166C239.442 134.006 243.165 134.699 246.755 135.706C254.48 137.873 255.576 137.62 257.174 133.308C258.235 130.445 258.228 130.23 257.011 128.573C255.808 126.934 255.792 126.724 256.733 124.828C257.888 122.499 258.188 118.724 257.62 113.689C257.273 110.624 256.974 109.94 255.455 108.737C254.485 107.969 253.77 107.228 253.866 107.09C253.962 106.952 256.546 106.747 259.608 106.635C262.669 106.522 265.565 106.196 266.042 105.91C266.62 105.565 266.833 104.2 266.68 101.834C266.437 98.0978 266.985 96.3688 268.491 96.1177C270.134 95.8437 274.59 99.9803 280.004 106.806C282.944 110.512 285.96 114.025 286.707 114.613C287.453 115.201 289.928 115.947 292.204 116.27C294.481 116.593 296.958 117.071 297.708 117.333C298.806 117.716 299.775 117.354 302.67 115.476C304.648 114.193 306.21 112.805 306.141 112.391C306.072 111.978 306.459 110.808 307.002 109.792L307.988 107.943L309.941 109.477C311.334 110.571 312.739 111 314.837 110.974C316.625 110.951 319.104 111.572 321.153 112.558C323.008 113.45 324.97 114.016 325.512 113.815C326.089 113.601 327.19 111.043 328.167 107.641C329.579 102.731 330.205 101.519 332.215 99.8069L334.592 97.7818L332.916 89.6207C330.094 75.8822 330.201 65.0915 333.209 59.8715C334.53 57.5796 337.991 54.6653 339.747 54.3676C340.857 54.1787 341.585 53.561 346.494 48.6387C348.061 47.0663 349.814 45.7021 350.388 45.6064C350.962 45.5107 352.647 46.3757 354.132 47.5287C355.617 48.6817 359.717 51.0721 363.241 52.8416C366.767 54.6109 370.741 57.1079 372.074 58.3912L374.498 60.7241L373.115 65.327C372.354 67.8585 371.672 71.1013 371.599 72.5338C371.228 79.8282 378.251 84.95 379.719 78.4558C379.992 77.2494 380.096 75.5486 379.951 74.6768C379.451 71.6842 380.728 68.4972 384.532 63.2405C387.41 59.2637 388.274 57.5716 388.065 56.3221C387.72 54.2495 388.861 53.3214 393.339 52.036C395.247 51.4879 397.081 50.7348 397.413 50.3616C398.373 49.2858 396.996 46.1518 394.42 43.5493C392.261 41.3685 391.872 41.2148 389.934 41.7781C388.323 42.2469 387.595 42.144 386.908 41.3496C385.679 39.929 383.874 40.3481 383.358 42.1753L382.935 43.6758L382.662 42.2914C382.426 41.0935 382.063 40.9613 379.972 41.3099L377.556 41.7128L377.982 44.2675L378.408 46.8217L380.769 46.0875C383.014 45.3892 383.143 45.4338 383.385 46.9974C383.617 48.4972 383.553 48.5587 382.657 47.6939C381.431 46.5122 379.727 46.7608 378.141 48.3527C376.928 49.5697 376.924 49.5665 376.961 47.2739C377.006 44.49 375.656 40.0638 374.372 38.7795C373.776 38.1837 371.396 37.7638 367.84 37.6264L362.246 37.41L368.34 36.7207C376.411 35.8074 378.19 34.886 383.078 29.0897C385.297 26.458 387.618 24.0413 388.236 23.7203C389.698 22.9605 389.226 20.0391 387.126 16.8546C385.381 14.2082 381.217 12.5054 377.858 13.0653C376.132 13.3531 375.904 13.1992 375.631 11.5663C375.064 8.16819 369.558 6.8531 365.144 9.06191L362.554 10.3579L360.873 7.94497C359.347 5.75463 358.927 5.53555 356.32 5.56922C352.87 5.61372 352.088 6.35103 351.048 10.5362C350.556 12.5178 350.529 15.4271 350.967 19.2471L351.625 24.9832L349.875 24.2371C348.913 23.8262 347.997 23.4241 347.84 23.3436C347.683 23.2623 348.047 22.4403 348.648 21.5165C349.25 20.5932 349.664 19.0237 349.57 18.0291C349.428 16.5391 349.031 16.1248 347.315 15.6717C344.223 14.8553 343.962 13.7573 346.209 11.0137C348.576 8.12359 349.943 4.33314 349.127 2.9229C348.665 2.12231 348.099 2.05407 346.493 2.60332C344.644 3.23622 344.424 3.16361 344.206 1.85407C343.99 0.55936 343.619 0.425427 340.737 0.603375C338.962 0.71308 336.493 0.784749 335.249 0.763397C333.844 0.738864 332.874 1.00864 332.689 1.47549ZM297.475 12.0575C297.616 12.9064 298.202 13.6788 298.801 13.8057C300.061 14.073 300.62 13.4052 300.613 11.6442C300.61 10.6655 300.22 10.3924 298.915 10.4555C297.473 10.5243 297.259 10.7634 297.475 12.0575ZM289.439 16.0904C289.26 17.0168 289.25 18.5913 289.417 19.5892C289.684 21.193 289.93 21.3688 291.532 21.1017C293.326 20.8026 293.339 20.765 292.777 17.399C292.276 14.3965 292.067 14.0222 290.986 14.2023C290.229 14.3285 289.64 15.0477 289.439 16.0904ZM280.703 26.6812C280.135 27.4959 279.717 28.4413 279.773 28.7814C279.83 29.1215 278.9 29.5626 277.705 29.7617C276.043 30.0388 275.509 30.4253 275.425 31.4128C275.337 32.4397 274.807 32.7869 272.818 33.1197C267.521 34.0047 264.681 38.2281 268.285 39.8616C269.201 40.2765 270.042 41.1664 270.154 41.8385C270.326 42.8698 270.771 42.992 273 42.6203C280.819 41.317 286.614 34.1637 285.066 27.7275C284.556 25.6049 284.203 25.1478 283.09 25.1712C282.336 25.1864 281.279 25.8551 280.703 26.6812ZM288.206 29.6049C287.859 31.3747 289.53 34.8844 291.354 36.2193C292.951 37.388 293.214 37.4089 293.9 36.4246C294.32 35.8208 294.593 34.0474 294.506 32.4839C294.358 29.8123 294.226 29.6003 292.329 28.9684C289.796 28.1248 288.455 28.3318 288.206 29.6049ZM245.656 54.2964C244.834 55.4755 245.305 57.8284 246.41 58.0625C247.689 58.334 247.961 57.6932 247.568 55.3332C247.206 53.1648 246.653 52.8648 245.656 54.2964ZM230.794 60.2481C230.272 60.9973 230.525 61.6022 231.729 62.4831C233.212 63.5684 233.799 63.3962 233.932 61.835C234.065 60.2589 231.641 59.0324 230.794 60.2481ZM249.395 58.1939C248.229 59.984 248.287 61.6457 249.594 63.9228C250.529 65.5538 253.737 65.976 256.363 64.8144C257.77 64.1916 257.829 63.9493 257.143 61.596C255.81 57.026 254.776 55.8264 252.494 56.2068C251.159 56.4293 250.104 57.106 249.395 58.1939ZM253.011 72.4234C253.319 73.5052 253.92 74.1511 254.638 74.1699C255.557 74.1946 255.682 73.8701 255.288 72.4836C254.98 71.4019 254.379 70.756 253.661 70.7371C252.742 70.7124 252.617 71.037 253.011 72.4234ZM211.068 92.2551C207.335 96.4654 206.35 98.5857 206.819 101.401C207.176 103.538 207.058 103.817 205.708 104.042C204.106 104.309 203.91 105.495 205.297 106.51C205.935 106.977 205.938 107.426 205.308 108.433C204.169 110.255 204.437 111.063 206.649 112.475C209.163 114.08 209.919 113.894 210.67 111.487C211.422 109.077 213.377 107.488 217.089 106.268C218.612 105.768 220.082 104.964 220.356 104.482C220.629 103.999 220.789 101.321 220.711 98.5295C220.583 93.9512 220.418 93.2383 219.029 91.2527C216.794 88.0577 214.537 88.3424 211.068 92.2551ZM191.888 103.087C188.57 105.37 185.555 110.131 184.768 114.327C184.024 118.3 184.493 120.01 186.408 120.297C187.896 120.521 188.088 121.164 187.038 122.406C186.572 122.959 186.435 124.371 186.696 125.938C187.156 128.693 186.158 130.814 184.254 131.132C182.798 131.375 184.084 138.87 186.056 141.633C188.377 144.887 191.766 144.109 193.082 140.021C194.044 137.032 196.919 132.198 197.824 132.047C198.171 131.989 199.588 130.894 200.972 129.615C203.43 127.342 204.436 125.237 203.942 123.401C203.807 122.9 203.411 121.035 203.063 119.258C201.95 113.581 197.99 112.224 197.145 117.23C196.903 118.667 196.501 121.042 196.251 122.509C195.752 125.431 193.857 129.115 193.127 128.581C192.874 128.395 193.035 127.654 193.486 126.934C194.556 125.222 194.057 119.299 192.648 117.001C191.696 115.448 191.687 115.066 192.567 113.675C193.925 111.531 195.199 107.082 195.36 103.917C195.515 100.88 195.204 100.805 191.888 103.087ZM177.6 116.623C177.37 117.508 176.565 118.505 175.81 118.84C174.139 119.579 174.28 121.348 176.024 121.516C176.718 121.584 177.356 122.059 177.442 122.573C177.569 123.334 177.05 123.521 174.66 123.576C168.895 123.709 169.281 123.452 169.038 127.328C168.876 129.89 169.066 131.313 169.722 132.456C170.852 134.424 171.573 134.326 173.207 131.982C174.717 129.814 175.508 129.971 174.459 132.23C173.719 133.822 174.013 137.882 174.864 137.83C175.118 137.814 175.871 137.815 176.538 137.831C177.205 137.847 178.132 137.536 178.597 137.141C179.061 136.745 179.25 136.444 179.017 136.472C178.783 136.501 178.732 135.675 178.902 134.638C179.123 133.296 179.714 132.559 180.955 132.082C182.265 131.578 182.834 130.806 183.249 128.967C183.963 125.811 183.236 118.156 182.026 116.093C180.791 113.985 178.203 114.294 177.6 116.623ZM210.892 117.262C208.238 118.351 205.678 121.879 206.316 123.567C206.894 125.094 211.741 123.712 213.021 121.655C213.572 120.77 214.389 120.106 214.837 120.18C215.413 120.275 215.495 119.728 215.119 118.319C214.501 116 214.17 115.917 210.892 117.262ZM197.148 134.113C196.241 135.13 195.869 136.256 196.06 137.403C196.392 139.39 197.203 139.693 199.702 138.761C201.324 138.157 201.433 137.885 201.151 135.143C200.885 132.571 200.692 132.204 199.686 132.372C199.048 132.479 197.905 133.262 197.148 134.113ZM173.216 140.52C171.954 141.399 170.8 142.422 170.653 142.793C170.498 143.184 168.763 143.602 166.519 143.789C163.364 144.052 162.226 144.433 160.337 145.858L158.022 147.605L158.628 151.236C159.073 153.903 159.492 154.922 160.205 155.073C161.697 155.389 164.088 153.712 166.064 150.962C167.704 148.681 167.963 148.533 169.183 149.189C171.146 150.244 173.22 149.698 176.247 147.329C178.42 145.628 179.463 145.205 181.622 145.15L184.301 145.081L183.843 142.332C183.317 139.183 182.609 138.738 178.294 138.849C176.233 138.901 174.917 139.335 173.216 140.52ZM152.803 154.092C149.718 156.914 148.339 160.283 148.898 163.633C149.383 166.54 149.992 166.674 152.53 164.434C154.547 162.654 156.441 159.151 157.197 155.805C158.31 150.882 156.908 150.336 152.803 154.092ZM144.363 170.878C143.07 171.974 143.485 174.151 144.94 173.909C146.362 173.672 148.98 170.788 148.395 170.105C147.817 169.431 145.561 169.864 144.363 170.878ZM144.034 278.092C143.111 280.358 142.24 280.05 141.781 277.296L141.337 274.635L142.918 275.792C144.149 276.693 144.397 277.203 144.034 278.092ZM37.6484 434.055C37.2892 434.57 37.0138 434.654 36.9492 434.267C36.8115 433.441 37.4042 432.591 37.876 432.936C38.0769 433.083 37.9746 433.587 37.6484 434.055ZM50.4233 432.042C49.9627 432.959 49.4808 433.636 49.3529 433.547C48.9143 433.24 50.0384 430.58 50.6498 430.478C50.9857 430.422 50.8839 431.126 50.4233 432.042ZM39.7786 438.869C42.7411 440.418 46.9936 441.253 48.4781 440.579C49.4962 440.115 49.6292 439.554 49.2547 437.309C48.7167 434.084 49.3613 433.702 50.8361 436.371C52.4209 439.237 52.345 439.516 49.6583 440.707C45.758 442.437 44.4973 444.654 45.4494 448.109C45.7152 449.074 45.4863 449.227 43.9792 449.097C41.6015 448.891 41.4731 448.736 42.4244 447.214C43.8484 444.937 42.2369 441.162 39.1514 439.546L37.2571 438.554L34.9448 440.784C32.2305 443.403 31.6932 443.562 29.8355 442.301C27.4847 440.705 20.6495 439.124 19.1497 439.83C17.9745 440.382 17.9265 440.351 18.7749 439.585C20.2957 438.213 24.3052 438.556 28.1081 440.385C32.3334 442.416 33.8282 441.926 35.544 437.948C36.624 435.444 36.8284 435.255 37.1958 436.415C37.4265 437.143 38.5888 438.247 39.7786 438.869Z" fill="#F5891F"/>
</svg>
