<svg width="884" height="557" viewBox="0 0 884 557" fill="none" xmlns="http://www.w3.org/2000/svg">
<path d="M259.654 172.765C259.302 170.958 256.827 159.267 256.827 167.412C256.827 177.735 258.136 188.077 259.968 198.171C264.749 224.516 269.316 250.948 272.376 277.655C275.218 302.465 279.65 327.191 281.956 352.059C283.553 369.275 282.27 387.288 282.27 404.595C282.27 415.717 283.72 421.741 294.992 420.927C303.804 420.291 312.865 418.301 321.378 415.755C344.916 408.716 367.312 402.62 391.582 399.786C404.182 398.314 422.708 391.975 434.93 397.789C437.609 399.064 434.428 389.758 434.302 388.988C432.355 377.097 431.794 365.172 429.276 353.329C423.194 324.716 416.764 296.017 411.764 267.13C409.04 251.393 409.733 235.859 410.586 219.948C411.012 212.005 409.813 206.142 405.953 199.623C399.566 188.837 401.006 173.121 401.006 160.697C401.006 154.375 403.424 145 396.137 145C383.511 145 371.779 151.161 359.228 151.533C342.018 152.043 325.773 156.178 309.206 161.332C301.686 163.672 294.346 166.255 286.511 164.962C281.098 164.068 275.904 162.966 270.412 162.966C260.033 162.966 257.158 161.629 254 174.398" stroke="white" stroke-width="3" stroke-linecap="round"/>
<path d="M302.228 297C297.586 304.291 295.399 320.209 302.949 326.796C307.515 330.781 311.441 322.271 311.989 318.719C312.321 316.564 314.706 305.121 312.309 304.449C308.775 303.458 313.1 325.338 313.829 326.617C323.973 344.398 331.122 313.179 326.63 304.359C320.678 292.675 310.048 302.774 313.749 313.155" stroke="white" stroke-width="3" stroke-linecap="round"/>
<path d="M345.96 290.146C337.736 278.964 341.071 299.657 341.703 304.747C342.605 312.02 343.233 333.763 344.462 326.556C346.326 315.633 343.078 299.184 341.388 288.483C341.159 287.035 337.75 280.261 339.495 284.232C343.138 292.52 348.531 299.458 352.346 307.612C355.062 313.418 358.16 320.895 362.201 325.632C365.087 329.014 363.836 323.239 362.99 321.751" stroke="white" stroke-width="3" stroke-linecap="round"/>
<path d="M365.528 287.169C365.231 285.509 361.736 266.706 363.49 275.188C366.022 287.429 370.633 298.811 372.896 311.131C375.944 327.732 372.808 285.969 381.752 296.406C386.449 301.887 389.749 310.142 393.744 316.435C396.103 320.152 395.254 320.957 390.217 321.649C385.796 322.255 380.959 321.933 376.501 321.74C373.149 321.595 372.443 317.288 371.171 321.74" stroke="white" stroke-width="3" stroke-linecap="round"/>
<path d="M462 274C475.781 274.975 489.401 278.194 503 281" stroke="white" stroke-width="3" stroke-linecap="round"/>
<path d="M482 248C482 260.468 481.042 272.014 479.071 284.314C477.119 296.5 475.025 304.752 480.536 315" stroke="white" stroke-width="3" stroke-linecap="round"/>
<path d="M570.667 155.14C569.247 150.746 567.833 146.471 567.833 141.727C567.833 133.147 567.833 158.886 567.833 167.466C567.833 211.921 573.25 256.704 571.768 301.056C571.211 317.736 570.636 334.344 569.329 350.903C568.66 359.378 573.879 363.293 579.953 366.854C593.319 374.69 607.782 371.834 622.059 369.573C650.076 365.137 677.981 367.092 706.034 363.954C707.194 363.824 730.491 362.356 730.668 361.235C731.957 353.071 729.169 342.462 727.835 334.59C724.512 314.98 721.616 295.271 718.233 275.679C713.025 245.522 703.831 214.982 703.831 183.961C703.831 178.449 705.507 169.056 703.122 164.113C696.984 151.389 677.901 149.828 666.841 147.89C652.484 145.374 637.71 147.403 623.24 145.352C613.421 143.96 603.83 143.721 593.962 143.721C584.221 143.721 574.768 143.721 565 143.721" stroke="white" stroke-width="3" stroke-linecap="round"/>
<path d="M621.67 192C613.743 192.231 610.31 195.553 609.31 205.098C608.785 210.104 608.646 215.241 611.229 219.204C612.454 221.083 615.814 225.679 616.066 227.63C617.143 235.984 619.803 234.05 625.892 234.958C630.158 235.594 633.342 237.675 636.871 233.218C640.254 228.944 640.581 218.299 639.328 213.067C637.133 203.901 631.656 196.946 623.052 196.946" stroke="white" stroke-width="3" stroke-linecap="round"/>
<path d="M613 201C596.733 201.469 603.037 219.996 601.686 231.875C601.247 235.729 594.692 250.365 597.863 253.361C603.185 258.389 592.607 266 600.615 266" stroke="white" stroke-width="3" stroke-linecap="round"/>
<path d="M635.31 212.306C633.943 210.198 629.838 205.764 631.317 202.632C632.26 200.635 635.102 200.489 636.428 202.095C639.145 205.384 638.786 227.104 641.38 226.458C648.802 224.608 653.415 226.201 651.125 236.131C649.561 242.911 651.338 245.029 654 251" stroke="white" stroke-width="3" stroke-linecap="round"/>
<path d="M673.907 196C671.866 213.735 673.907 229.927 673.907 247.424C673.907 249.708 674.258 244.576 675 242.929" stroke="white" stroke-width="3" stroke-linecap="round"/>
<path d="M667.777 196.026C666.242 198.941 656.498 215.621 663.51 204.866C665.872 201.244 666.699 195.254 670.622 193.168C676.224 190.189 682 227.948 682 212.099" stroke="white" stroke-width="3" stroke-linecap="round"/>
<path d="M604.874 311.584C601.639 292.327 603.464 314.988 603.464 321.959C603.464 331.023 604.832 339.574 606.207 348.351C606.716 351.607 595 322.703 595 328.784C595 335.364 596.279 340.621 598.527 346.713C602.616 357.795 606.361 344.43 610.203 339.796C611.148 338.656 617.336 330.483 614.043 331.332C611.498 331.989 605.999 338.459 604.874 341.07" stroke="white" stroke-width="3" stroke-linecap="round"/>
<path d="M655.571 321.284C646.197 307.305 640 322.912 640 335.303C640 344.554 652.801 345.349 657.851 342.633C668.428 336.946 672.431 324.628 661.547 316.337C657.207 313.031 648.493 310.225 648.493 317.986" stroke="white" stroke-width="3" stroke-linecap="round"/>
<path d="M658 344C660.085 340.673 665.057 330.36 669.646 330.09C671.962 329.954 670.674 334.023 674.013 331.625C681.375 326.34 676.93 313.488 678.461 305.792C679.434 300.903 676.918 307.129 680.322 292.876C680.974 290.144 681.637 275.414 679.836 285.469" stroke="white" stroke-width="3" stroke-linecap="round"/>
<path d="M641.377 346C635.736 335.756 632.969 331.692 634.352 319.948C635.525 309.985 634.974 314.345 636.639 305.294C638.451 295.443 637.698 298.283 641.05 289.374C643.778 282.124 642.847 276.679 642.847 285.756" stroke="white" stroke-width="3" stroke-linecap="round"/>
<path d="M583.121 176C578.178 186.375 579.42 196.353 580.258 207.639C580.632 212.68 580.335 210.582 580.335 207.005C580.335 199.44 578.942 191.861 578.942 184.522C578.942 168.139 603.089 189.173 585.985 197.939C580.085 200.963 582.922 199.467 587.997 202.109C591.68 204.027 594.525 208.568 592.098 213.441C590.155 217.344 586.717 219.252 583.044 219.969C580.995 220.369 574.957 216.796 576.156 216.796" stroke="white" stroke-width="3" stroke-linecap="round"/>
<path d="M705 307C696.738 316.734 698.87 328.925 700.584 341.277C701.297 346.411 700.664 350.606 700.664 342.256" stroke="white" stroke-width="3" stroke-linecap="round"/>
<path d="M701 312.952C696.203 308.734 694.455 305.183 688.958 308.019C685.32 309.896 685.569 317.228 686.519 320.809C687.444 324.3 688.358 325.131 691.792 326.017C692.76 326.267 698.455 326.108 696.75 326.108C690.738 326.108 684 335.503 684 342.553C684 349.264 698.835 344.437 701 342.553" stroke="white" stroke-width="3" stroke-linecap="round"/>
<path d="M723.317 135.162C718.289 127.287 718.08 132.885 721.711 131.474C723.189 130.899 725.892 125.874 723.025 127.232C714.26 131.384 726.365 136.899 723.025 132.212C720.18 128.218 722.956 134.157 723.609 135.531C727.703 144.149 730.093 152.946 730.91 163.012C731.462 169.808 729.536 174.826 723.609 175C722.838 175.022 717.568 173.34 719.375 173.34" stroke="white" stroke-width="3" stroke-linecap="round"/>
<path d="M735.792 139C737.219 137.147 739.88 133.22 735.929 134C735.821 134.021 733.546 135.4 734.081 135.4C736.937 135.4 737.024 134.054 737.024 130" stroke="white" stroke-width="3" stroke-linecap="round"/>
<path d="M741.439 139C743.56 147.994 749.545 165.82 743.083 174.179C741.172 176.651 735.347 179.288 736.06 181" stroke="white" stroke-width="3" stroke-linecap="round"/>
<path d="M740.196 132.377C739.352 133.068 732.132 140.832 735.893 136.888C736.546 136.204 738.806 131.307 737.442 132.738C734.732 135.58 744.45 136.436 741.401 130.752C739.824 127.812 735.439 134.232 734 137.249" stroke="white" stroke-width="3" stroke-linecap="round"/>
<path d="M92 294C92.8133 317.397 93 387.719 93 364.284" stroke="white" stroke-width="3" stroke-linecap="round"/>
<path d="M93 326.325C95.1783 314.841 101.576 311.334 111.816 310.223C114.594 309.921 129.137 308.877 126.521 316.444C121.398 331.267 119.572 350.689 123.991 366.032C125.18 370.158 125.445 377.598 130 374.084" stroke="white" stroke-width="3" stroke-linecap="round"/>
<path d="M151.054 322.908C146.122 339.168 146.031 356.258 159.369 367.955C169.505 376.844 175.473 354.357 174.971 346.431C174.317 336.132 169.021 322 158.498 322C149.511 322 149.646 334.392 152.479 340.891" stroke="white" stroke-width="3" stroke-linecap="round"/>
<path d="M198 351C208.019 346.104 218.279 344 229 344" stroke="white" stroke-width="3" stroke-linecap="round"/>
<path d="M211.642 323C207.359 342.582 212.402 365.607 216 385" stroke="white" stroke-width="3" stroke-linecap="round"/>
<path d="M750 127.177C759.439 128.433 761.328 120.815 753.93 128.437C752.876 129.523 751.266 127.841 752.044 127.897C753.95 128.033 756.937 130.874 758.175 132.395C764.205 139.81 766.368 156.157 764.148 165.684C763.082 170.263 759.904 174.218 759.904 179" stroke="white" stroke-width="3" stroke-linecap="round"/>
</svg>
