<svg width="685" height="308" viewBox="0 0 685 308" fill="none" xmlns="http://www.w3.org/2000/svg">
<g filter="url(#filter0_d_169_52)">
<path d="M173.654 49.765C173.302 47.958 170.827 36.267 170.827 44.412C170.827 54.735 172.136 65.077 173.968 75.171C178.749 101.516 183.316 127.948 186.376 154.655C189.218 179.465 193.65 204.191 195.956 229.059C197.553 246.275 196.27 264.288 196.27 281.595C196.27 292.717 197.72 298.741 208.992 297.927C217.804 297.291 226.865 295.301 235.378 292.755C258.916 285.716 281.312 279.62 305.582 276.786C318.182 275.314 336.708 268.975 348.93 274.789C351.609 276.064 348.428 266.758 348.302 265.988C346.355 254.097 345.794 242.172 343.276 230.329C337.194 201.716 330.764 173.017 325.764 144.13C323.04 128.393 323.733 112.859 324.586 96.948C325.012 89.005 323.813 83.142 319.953 76.623C313.566 65.837 315.006 50.121 315.006 37.697C315.006 31.375 317.424 22 310.137 22C297.511 22 285.779 28.161 273.228 28.533C256.018 29.043 239.773 33.178 223.206 38.332C215.686 40.672 208.346 43.255 200.511 41.962C195.098 41.068 189.904 39.966 184.412 39.966C174.033 39.966 171.158 38.629 168 51.398" stroke="black" stroke-width="3" stroke-linecap="round"/>
<path d="M216.228 174C211.586 181.291 209.399 197.209 216.949 203.796C221.515 207.781 225.441 199.271 225.989 195.719C226.321 193.564 228.706 182.121 226.309 181.449C222.775 180.458 227.1 202.338 227.829 203.617C237.973 221.398 245.122 190.179 240.63 181.359C234.678 169.675 224.048 179.774 227.749 190.155" stroke="black" stroke-width="3" stroke-linecap="round"/>
<path d="M259.96 167.146C251.736 155.964 255.071 176.657 255.703 181.747C256.605 189.02 257.233 210.763 258.462 203.556C260.326 192.633 257.078 176.184 255.388 165.483C255.159 164.035 251.75 157.261 253.495 161.232C257.138 169.52 262.531 176.458 266.346 184.612C269.062 190.418 272.16 197.895 276.201 202.632C279.087 206.014 277.836 200.239 276.99 198.751" stroke="black" stroke-width="3" stroke-linecap="round"/>
<path d="M279.528 164.169C279.231 162.509 275.736 143.706 277.49 152.188C280.022 164.429 284.633 175.811 286.896 188.131C289.944 204.732 286.808 162.969 295.752 173.406C300.449 178.887 303.749 187.142 307.744 193.435C310.103 197.152 309.254 197.957 304.217 198.649C299.796 199.255 294.959 198.933 290.501 198.74C287.149 198.595 286.443 194.288 285.171 198.74" stroke="black" stroke-width="3" stroke-linecap="round"/>
<path d="M376 151C389.781 151.975 403.401 155.194 417 158" stroke="black" stroke-width="3" stroke-linecap="round"/>
<path d="M396 125C396 137.468 395.042 149.014 393.071 161.314C391.119 173.5 389.025 181.752 394.536 192" stroke="black" stroke-width="3" stroke-linecap="round"/>
<path d="M484.667 32.14C483.247 27.746 481.833 23.471 481.833 18.727C481.833 10.147 481.833 35.886 481.833 44.466C481.833 88.921 487.25 133.704 485.768 178.056C485.211 194.736 484.636 211.344 483.329 227.903C482.66 236.378 487.879 240.293 493.953 243.854C507.319 251.69 521.782 248.834 536.059 246.573C564.076 242.137 591.981 244.092 620.034 240.954C621.194 240.824 644.491 239.356 644.668 238.235C645.957 230.071 643.169 219.462 641.835 211.59C638.512 191.98 635.616 172.271 632.233 152.679C627.025 122.522 617.831 91.982 617.831 60.961C617.831 55.449 619.507 46.056 617.122 41.113C610.984 28.389 591.901 26.828 580.841 24.89C566.484 22.374 551.71 24.403 537.24 22.352C527.421 20.96 517.83 20.721 507.962 20.721C498.221 20.721 488.768 20.721 479 20.721" stroke="black" stroke-width="3" stroke-linecap="round"/>
<path d="M535.67 69C527.743 69.231 524.31 72.553 523.31 82.098C522.785 87.104 522.646 92.241 525.229 96.204C526.454 98.083 529.814 102.679 530.066 104.63C531.143 112.984 533.803 111.05 539.892 111.958C544.158 112.594 547.342 114.675 550.871 110.218C554.254 105.944 554.581 95.299 553.328 90.067C551.133 80.901 545.656 73.946 537.052 73.946" stroke="black" stroke-width="3" stroke-linecap="round"/>
<path d="M527 78C510.733 78.469 517.037 96.996 515.686 108.875C515.247 112.729 508.692 127.365 511.863 130.361C517.185 135.389 506.607 143 514.615 143" stroke="black" stroke-width="3" stroke-linecap="round"/>
<path d="M549.31 89.306C547.943 87.198 543.838 82.764 545.317 79.632C546.26 77.635 549.102 77.489 550.428 79.095C553.145 82.384 552.786 104.104 555.38 103.458C562.802 101.608 567.415 103.201 565.125 113.131C563.561 119.911 565.338 122.029 568 128" stroke="black" stroke-width="3" stroke-linecap="round"/>
<path d="M587.907 73C585.866 90.735 587.907 106.927 587.907 124.424C587.907 126.708 588.258 121.576 589 119.929" stroke="black" stroke-width="3" stroke-linecap="round"/>
<path d="M581.777 73.0259C580.242 75.9409 570.498 92.6209 577.51 81.8659C579.872 78.2439 580.699 72.2539 584.622 70.1679C590.224 67.1889 596 104.948 596 89.0989" stroke="black" stroke-width="3" stroke-linecap="round"/>
<path d="M518.874 188.584C515.639 169.327 517.464 191.988 517.464 198.959C517.464 208.023 518.832 216.574 520.207 225.351C520.716 228.607 509 199.703 509 205.784C509 212.364 510.279 217.621 512.527 223.713C516.616 234.795 520.361 221.43 524.203 216.796C525.148 215.656 531.336 207.483 528.043 208.332C525.498 208.989 519.999 215.459 518.874 218.07" stroke="black" stroke-width="3" stroke-linecap="round"/>
<path d="M569.571 198.284C560.197 184.305 554 199.912 554 212.303C554 221.554 566.801 222.349 571.851 219.633C582.428 213.946 586.431 201.628 575.547 193.337C571.207 190.031 562.493 187.225 562.493 194.986" stroke="black" stroke-width="3" stroke-linecap="round"/>
<path d="M572 221C574.085 217.673 579.057 207.36 583.646 207.09C585.962 206.954 584.674 211.023 588.013 208.625C595.375 203.34 590.93 190.488 592.461 182.792C593.434 177.903 590.918 184.129 594.322 169.876C594.974 167.144 595.637 152.414 593.836 162.469" stroke="black" stroke-width="3" stroke-linecap="round"/>
<path d="M555.377 223C549.736 212.756 546.969 208.692 548.352 196.948C549.525 186.985 548.974 191.345 550.639 182.294C552.451 172.443 551.698 175.283 555.05 166.374C557.778 159.124 556.847 153.679 556.847 162.756" stroke="black" stroke-width="3" stroke-linecap="round"/>
<path d="M497.121 53C492.178 63.375 493.42 73.353 494.258 84.639C494.632 89.68 494.335 87.582 494.335 84.005C494.335 76.44 492.942 68.861 492.942 61.522C492.942 45.139 517.089 66.173 499.985 74.939C494.085 77.963 496.922 76.467 501.997 79.109C505.68 81.027 508.525 85.568 506.098 90.441C504.155 94.344 500.717 96.252 497.044 96.969C494.995 97.369 488.957 93.796 490.156 93.796" stroke="black" stroke-width="3" stroke-linecap="round"/>
<path d="M619 184C610.738 193.734 612.87 205.925 614.584 218.277C615.297 223.411 614.664 227.606 614.664 219.256" stroke="black" stroke-width="3" stroke-linecap="round"/>
<path d="M615 189.952C610.203 185.734 608.455 182.183 602.958 185.019C599.32 186.896 599.569 194.228 600.519 197.809C601.444 201.3 602.358 202.131 605.792 203.017C606.76 203.267 612.455 203.108 610.75 203.108C604.738 203.108 598 212.503 598 219.553C598 226.264 612.835 221.437 615 219.553" stroke="black" stroke-width="3" stroke-linecap="round"/>
<path d="M637.317 12.162C632.289 4.28702 632.08 9.88502 635.711 8.47402C637.189 7.89902 639.892 2.87402 637.025 4.23202C628.26 8.38402 640.365 13.899 637.025 9.21203C634.18 5.21803 636.956 11.157 637.609 12.531C641.703 21.149 644.093 29.946 644.91 40.012C645.462 46.808 643.536 51.826 637.609 52C636.838 52.022 631.568 50.34 633.375 50.34" stroke="black" stroke-width="3" stroke-linecap="round"/>
<path d="M649.792 16C651.219 14.147 653.88 10.22 649.929 11C649.821 11.021 647.546 12.4 648.081 12.4C650.937 12.4 651.024 11.054 651.024 7" stroke="black" stroke-width="3" stroke-linecap="round"/>
<path d="M655.439 16C657.56 24.994 663.545 42.82 657.083 51.179C655.172 53.651 649.347 56.288 650.06 58" stroke="black" stroke-width="3" stroke-linecap="round"/>
<path d="M654.196 9.37703C653.352 10.068 646.132 17.832 649.893 13.888C650.546 13.204 652.806 8.30703 651.442 9.73803C648.732 12.58 658.45 13.436 655.401 7.75203C653.824 4.81203 649.439 11.232 648 14.249" stroke="black" stroke-width="3" stroke-linecap="round"/>
<path d="M6 171C6.8133 194.397 7 264.719 7 241.284" stroke="black" stroke-width="3" stroke-linecap="round"/>
<path d="M7 203.325C9.1783 191.841 15.576 188.334 25.816 187.223C28.594 186.921 43.137 185.877 40.521 193.444C35.398 208.267 33.572 227.689 37.991 243.032C39.18 247.158 39.445 254.598 44 251.084" stroke="black" stroke-width="3" stroke-linecap="round"/>
<path d="M65.054 199.908C60.122 216.168 60.031 233.258 73.369 244.955C83.505 253.844 89.473 231.357 88.971 223.431C88.317 213.132 83.021 199 72.498 199C63.511 199 63.646 211.392 66.479 217.891" stroke="black" stroke-width="3" stroke-linecap="round"/>
<path d="M112 228C122.019 223.104 132.279 221 143 221" stroke="black" stroke-width="3" stroke-linecap="round"/>
<path d="M125.642 200C121.359 219.582 126.402 242.607 130 262" stroke="black" stroke-width="3" stroke-linecap="round"/>
<path d="M664 4.17697C673.439 5.43297 675.328 -2.18503 667.93 5.43697C666.876 6.52297 665.266 4.84098 666.044 4.89698C667.95 5.03298 670.937 7.87398 672.175 9.39498C678.205 16.81 680.368 33.157 678.148 42.684C677.082 47.263 673.904 51.218 673.904 56" stroke="black" stroke-width="3" stroke-linecap="round"/>
</g>
<defs>
<filter id="filter0_d_169_52" x="0.5" y="0.499756" width="684" height="307" filterUnits="userSpaceOnUse" color-interpolation-filters="sRGB">
<feFlood flood-opacity="0" result="BackgroundImageFix"/>
<feColorMatrix in="SourceAlpha" type="matrix" values="0 0 0 0 0 0 0 0 0 0 0 0 0 0 0 0 0 0 127 0" result="hardAlpha"/>
<feOffset dy="4"/>
<feGaussianBlur stdDeviation="2"/>
<feComposite in2="hardAlpha" operator="out"/>
<feColorMatrix type="matrix" values="0 0 0 0 0 0 0 0 0 0 0 0 0 0 0 0 0 0 0.25 0"/>
<feBlend mode="normal" in2="BackgroundImageFix" result="effect1_dropShadow_169_52"/>
<feBlend mode="normal" in="SourceGraphic" in2="effect1_dropShadow_169_52" result="shape"/>
</filter>
</defs>
</svg>
