<svg width="185" height="149" viewBox="0 0 185 149" fill="none" xmlns="http://www.w3.org/2000/svg">
<path d="M12.3344 9.69055C8.4051 11.792 6.89137 13.7848 5.3299 18.6848C0.250999 19.3211 -0.673941 31.0103 1.66088 39.3383C3.9957 47.6664 8.18138 58.7008 5.997 62.6568C3.81261 66.6129 29.6496 76.6416 31.0131 81.3116C38.0443 79.1916 41.6298 78.924 47.6904 79.3129C53.1294 85.9258 54.7172 88.6608 57.6969 93.6371C50.0006 101.951 50.2224 108.129 53.0272 119.954C54.7032 119.133 55.4567 118.562 56.3627 117.289C61.8851 124.888 66.8071 127.619 75.0413 132.945C77.0189 134.455 77.0426 145.271 77.0426 145.271C77.0426 145.271 84.6311 148.819 88.3832 145.271C93.6874 144.36 96.077 144.605 99.3903 146.27C100.28 147.603 102.859 149.935 106.061 148.602C109.263 147.27 114.289 142.939 116.401 140.94C116.179 141.718 116.401 143.405 119.07 143.938C121.738 144.471 121.293 138.608 120.737 135.61C124.6 133.143 126.841 132.369 131.077 132.945C132.086 128.596 132.951 127.264 138.415 124.284C143.879 121.305 145.097 129.423 144.419 132.945C146.359 135.084 149.934 131.673 150.423 132.945C155.169 133.071 152.937 121.991 144.419 120.953C148.018 114.882 152.553 107.961 150.423 102.631C148.293 97.3015 153.984 83.077 157.761 86.3084C164.192 86.3836 167.678 75.5291 167.768 73.6498C169.547 72.6571 175.779 71.9451 178.108 73.6498C182.27 69.7502 183.775 67.8172 184.445 64.9887C181.248 63.3703 179.713 62.3438 173.771 61.9906C172.824 56.8929 173.557 53.8625 175.773 48.3326C177.06 43.533 175.64 41.9853 169.769 41.004C162.18 29.8405 156.742 24.4703 145.086 16.353C145.086 16.353 132.411 15.3536 128.742 13.688C125.073 12.0224 126.885 0.736944 120.737 0.0300308C115.22 -0.604419 109.73 9.02431 109.73 9.02431H96.3884C89.2653 3.94622 85.3499 1.6939 79.3775 5.35997L71.0388 2.695C63.7007 9.69055 63.3884 7.45231 61.6994 1.69564C56.6535 4.18357 50.3147 3.52891 35.0156 0.0300308C24.0086 4.69373 18.2698 4.3533 12.3344 9.69055Z" fill="#45305D"/>
</svg>
