<svg width="200" height="303" viewBox="0 0 200 303" fill="none" xmlns="http://www.w3.org/2000/svg">
<path d="M90.1151 16.8812C88.3368 10.0819 84.3373 -7.24477 84.3373 11.3257C84.3373 38.2144 88.3355 65.1567 93.1151 91.5479C96.9996 112.997 100.334 134.527 104.115 155.992C104.679 159.195 108.115 181.566 108.115 178.881" stroke="white" stroke-width="5" stroke-linecap="round"/>
<path d="M150.115 12.8812C150.516 42.9106 149.997 73.8855 153.004 103.77C154.278 116.429 158.115 129.492 158.115 142.215C158.115 154.522 157.708 166.339 155.115 178.437C153.184 187.447 152.115 185.647 152.115 178.881" stroke="white" stroke-width="5" stroke-linecap="round"/>
<path d="M108.115 178.881C73.7725 180.689 47.586 195.449 16.5595 207.437C15.723 207.76 2.7397 210.625 3.00398 211.77C5.67894 223.362 31.8607 238.429 40.2262 244.326C52.9817 253.317 66.307 259.533 80.1151 266.437C87.1936 269.976 93.1473 276.476 99.6706 280.881C101.588 282.176 139.394 303.403 140.004 299.437C143.782 274.88 162.861 252.865 175.893 232.437C183.537 220.453 188.584 207.287 196.115 195.326C201.412 186.914 176.397 190.813 171.671 191.326C167.102 191.821 145.343 195.653 146.115 194.881" stroke="white" stroke-width="5" stroke-linecap="round"/>
<path d="M156.115 184.881C151.986 188.385 146.337 193.03 146.337 199.103C146.337 201.297 149.336 194.087 147.671 192.659C144.143 189.636 149.409 181.707 146.115 194.881" stroke="white" stroke-width="5" stroke-linecap="round"/>
</svg>
