<svg width="368" height="328" viewBox="0 0 368 328" fill="none" xmlns="http://www.w3.org/2000/svg">
<path d="M55.505 155.997C54.22 141.861 49.244 125.755 53.56 111.997C51.002 108.8 51.137 107.439 55.56 106.997C60.094 106.544 63.892 104.997 68.56 104.997C72.695 104.997 76.43 103.115 80.56 102.997C83.244 102.92 86.058 101.891 88.56 100.997C93.85 99.1081 100.022 99.9971 105.56 99.9971C115.264 99.9971 124.693 102.104 134.56 101.997C142.093 101.915 149.459 100.182 157.005 100.553C163.351 100.865 169.65 100.997 176.005 100.997C188.132 100.997 199.573 98.1071 211.56 96.7751C224.149 95.3761 236.633 95.0091 249.282 93.9971C265.138 92.7291 280.009 87.9971 296.005 87.9971C299.701 87.9971 300.809 142.528 301.06 145.497C302.211 159.075 302.048 172.5 305.06 185.886C307.628 197.299 310.035 208.85 312.005 220.386C312.412 222.774 316.119 231.721 311.56 229.442C306.987 227.155 302.41 224.928 297.338 223.775C279.495 219.72 262.916 230.001 246.338 235.997C238.061 238.991 229.805 238.664 221.338 240.219C205.99 243.038 193.175 253.997 177.338 253.997C157.049 253.997 138.37 251.533 118.56 255.997C107.715 258.441 96.327 256.134 85.338 257.219C81.146 257.633 73.075 259.728 69.06 257.497C63.843 254.598 63.364 239.922 62.56 234.497C60.829 222.811 58.56 211.342 58.56 199.497C58.56 192.734 60.161 184.043 58.949 177.497C57.619 170.316 56.169 163.308 55.505 155.997Z" stroke="black" stroke-width="3" stroke-linecap="round"/>
<path d="M92.5601 216.997C95.7181 224.418 99.9031 230.274 104.949 236.442C106.892 238.816 106.56 236.844 106.56 234.442C106.56 230.326 107.635 226.26 108.338 222.219C108.84 219.333 108.56 213.321 108.56 219.997" stroke="black" stroke-width="3" stroke-linecap="round"/>
<path d="M121.56 214.997C121.594 217.032 124.66 236.898 125.56 235.997" stroke="black" stroke-width="3" stroke-linecap="round"/>
<path d="M137.56 216.997C135.174 213.848 132.353 209.245 130.116 214.997C128.372 219.481 134.762 223.31 137.449 225.997C143.463 232.011 145.186 234.841 136.56 236.997" stroke="black" stroke-width="3" stroke-linecap="round"/>
<path d="M148.56 211.997C146.377 201.353 149.502 220.445 150.06 223.053C150.556 225.366 152.68 238.639 153.56 235.997" stroke="black" stroke-width="3" stroke-linecap="round"/>
<path d="M149.56 214.997C148.536 212.371 146.035 206.583 150.56 211.108C154.191 214.739 156.909 219.424 159.56 223.775C161.436 226.854 172.521 235.581 163.56 231.997" stroke="black" stroke-width="3" stroke-linecap="round"/>
<path d="M149.56 228.997C152.067 228.46 164.56 222.868 164.56 226.997" stroke="black" stroke-width="3" stroke-linecap="round"/>
<path d="M14.5603 269.997C19.0438 274.481 21.5929 280.524 26.2825 284.608C33.6911 291.061 42.404 295.929 51.782 298.775C78.728 306.951 107.178 306.203 133.727 315.053C147.45 319.627 161.206 324.859 175.782 325.775C188.92 326.601 202.451 326.366 215.616 325.942C240.658 325.134 263.81 315.477 287.116 307.219C297.82 303.427 308.29 300.802 318.116 294.942C328.527 288.731 335.973 279.511 343.338 269.997C350.531 260.706 353.515 249.881 356.616 238.719C361.509 221.106 364.645 202.116 365.449 183.83C366.045 170.27 365.646 156.568 365.56 142.997C365.479 130.141 359.94 120.681 357.56 108.442C355.41 97.384 349.475 88.277 343.116 79.108C336.822 70.034 330.895 61.332 323.06 53.497C315.532 45.969 307.451 39.052 300.116 31.33C291.911 22.693 280.083 19.353 268.782 16.608C256.898 13.722 245.42 12.093 233.338 10.553C220.444 8.90799 207.848 4.72399 194.894 2.99709C161.403 -1.46831 129.787 9.95799 98.338 19.553C65.18 29.669 35.3202 49.93 17.6714 80.664C9.8379 94.305 1.7773 111.296 2.0047 127.442C2.1771 139.679 7.9514 153.911 13.0603 164.886C21.6668 183.374 24.9369 204.069 28.5603 223.997C30.2783 233.446 30.5603 243.078 30.5603 252.664C30.5603 261.604 28.997 272.128 32.6714 280.497C36.226 288.594 44.826 291.324 46.56 299.997" stroke="black" stroke-width="3" stroke-linecap="round"/>
<path d="M191.56 163.997C188.491 165.455 187.282 168.499 187.505 167.497C188.203 164.355 185.43 168.498 185.116 169.442C182.642 176.863 194.858 169.767 187.783 167.219C186.061 166.599 182.349 169.484 182.171 170.053C181.568 171.983 182.943 173.716 184.56 171.997C186.047 170.418 183.629 169.423 182.783 171.775C182.138 173.564 183.01 174.436 184.505 172.942C186.955 170.491 182.727 171.789 183.671 173.442C186.553 178.484 191.245 160.389 186.005 169.997C182.968 175.564 191.214 169.108 188.56 169.108C187.857 169.108 186.062 171.145 186.783 171.775C186.936 171.91 189.644 168.73 185.56 171.997" stroke="black" stroke-width="3" stroke-linecap="round"/>
<path d="M176.56 9.99707L174.56 15.9971" stroke="black" stroke-width="3" stroke-linecap="round"/>
<path d="M176.56 59.9971C176.01 63.4361 175.653 66.7181 174.56 69.9971" stroke="black" stroke-width="3" stroke-linecap="round"/>
<path d="M202.56 319.997C203.383 317.308 203.56 315.55 203.56 312.997" stroke="black" stroke-width="3" stroke-linecap="round"/>
<path d="M202.56 297.997L201.56 292.997" stroke="black" stroke-width="3" stroke-linecap="round"/>
<path d="M354.56 158.997C356.565 158.215 358.513 157.582 360.56 156.997" stroke="black" stroke-width="3" stroke-linecap="round"/>
<path d="M323.56 157.997C326.053 159.684 326.949 159.671 329.56 159.997" stroke="black" stroke-width="3" stroke-linecap="round"/>
<path d="M336.56 159.997L341.56 158.997" stroke="black" stroke-width="3" stroke-linecap="round"/>
<path d="M47.56 179.997C43.799 177.721 41.714 178.257 37.5603 177.997" stroke="black" stroke-width="3" stroke-linecap="round"/>
<path d="M26.5603 179.997L21.5603 180.997" stroke="black" stroke-width="3" stroke-linecap="round"/>
</svg>
