<svg width="485" height="485" viewBox="0 0 485 485" fill="none" xmlns="http://www.w3.org/2000/svg">
<path d="M114.505 251.997C113.22 237.861 108.244 221.755 112.56 207.997C110.002 204.8 110.137 203.439 114.56 202.997C119.094 202.544 122.892 200.997 127.56 200.997C131.695 200.997 135.43 199.115 139.56 198.997C142.244 198.92 145.058 197.891 147.56 196.997C152.85 195.108 159.022 195.997 164.56 195.997C174.264 195.997 183.693 198.104 193.56 197.997C201.093 197.915 208.459 196.182 216.005 196.553C222.351 196.865 228.65 196.997 235.005 196.997C247.132 196.997 258.573 194.107 270.56 192.775C283.149 191.376 295.633 191.009 308.282 189.997C324.138 188.729 339.009 183.997 355.005 183.997C358.701 183.997 359.809 238.528 360.06 241.497C361.211 255.075 361.048 268.5 364.06 281.886C366.628 293.299 369.035 304.85 371.005 316.386C371.412 318.774 375.119 327.721 370.56 325.442C365.987 323.155 361.41 320.928 356.338 319.775C338.495 315.72 321.916 326.001 305.338 331.997C297.061 334.991 288.805 334.664 280.338 336.219C264.99 339.038 252.175 349.997 236.338 349.997C216.049 349.997 197.37 347.533 177.56 351.997C166.715 354.441 155.327 352.134 144.338 353.219C140.146 353.633 132.075 355.728 128.06 353.497C122.843 350.598 122.364 335.922 121.56 330.497C119.829 318.811 117.56 307.342 117.56 295.497C117.56 288.734 119.161 280.043 117.949 273.497C116.619 266.316 115.169 259.308 114.505 251.997Z" stroke="white" stroke-width="3" stroke-linecap="round"/>
<path d="M151.56 312.997C154.718 320.418 158.903 326.274 163.949 332.442C165.892 334.816 165.56 332.844 165.56 330.442C165.56 326.326 166.635 322.26 167.338 318.219C167.84 315.333 167.56 309.321 167.56 315.997" stroke="white" stroke-width="3" stroke-linecap="round"/>
<path d="M180.56 310.997C180.594 313.032 183.66 332.898 184.56 331.997" stroke="white" stroke-width="3" stroke-linecap="round"/>
<path d="M196.56 312.997C194.174 309.848 191.353 305.245 189.116 310.997C187.372 315.481 193.762 319.31 196.449 321.997C202.463 328.011 204.186 330.841 195.56 332.997" stroke="white" stroke-width="3" stroke-linecap="round"/>
<path d="M207.56 307.997C205.377 297.353 208.502 316.445 209.06 319.053C209.556 321.366 211.68 334.639 212.56 331.997" stroke="white" stroke-width="3" stroke-linecap="round"/>
<path d="M208.56 310.997C207.536 308.371 205.035 302.583 209.56 307.108C213.191 310.739 215.909 315.424 218.56 319.775C220.436 322.854 231.521 331.581 222.56 327.997" stroke="white" stroke-width="3" stroke-linecap="round"/>
<path d="M208.56 324.997C211.067 324.46 223.56 318.868 223.56 322.997" stroke="white" stroke-width="3" stroke-linecap="round"/>
<path d="M73.5603 365.997C78.0438 370.481 80.5929 376.524 85.2825 380.608C92.6911 387.061 101.404 391.929 110.782 394.775C137.728 402.951 166.178 402.203 192.727 411.053C206.45 415.627 220.206 420.859 234.782 421.775C247.92 422.601 261.451 422.366 274.616 421.942C299.658 421.134 322.81 411.477 346.116 403.219C356.82 399.427 367.29 396.802 377.116 390.942C387.527 384.731 394.973 375.511 402.338 365.997C409.531 356.706 412.515 345.881 415.616 334.719C420.509 317.106 423.645 298.116 424.449 279.83C425.045 266.27 424.646 252.568 424.56 238.997C424.479 226.141 418.94 216.681 416.56 204.442C414.41 193.384 408.475 184.277 402.116 175.108C395.822 166.034 389.895 157.332 382.06 149.497C374.532 141.969 366.451 135.052 359.116 127.33C350.911 118.693 339.083 115.353 327.782 112.608C315.898 109.722 304.42 108.093 292.338 106.553C279.444 104.908 266.848 100.724 253.894 98.9971C220.403 94.5317 188.787 105.958 157.338 115.553C124.18 125.669 94.3202 145.93 76.6714 176.664C68.8379 190.305 60.7773 207.296 61.0047 223.442C61.1771 235.679 66.9514 249.911 72.0603 260.886C80.6668 279.374 83.9369 300.069 87.5603 319.997C89.2783 329.446 89.5603 339.078 89.5603 348.664C89.5603 357.604 87.997 368.128 91.6714 376.497C95.226 384.594 103.826 387.324 105.56 395.997" stroke="white" stroke-width="3" stroke-linecap="round"/>
<path d="M250.56 259.997C247.491 261.455 246.282 264.499 246.505 263.497C247.203 260.355 244.43 264.498 244.116 265.442C241.642 272.863 253.858 265.767 246.783 263.219C245.061 262.599 241.349 265.484 241.171 266.053C240.568 267.983 241.943 269.716 243.56 267.997C245.047 266.418 242.629 265.423 241.783 267.775C241.138 269.564 242.01 270.436 243.505 268.942C245.955 266.491 241.727 267.789 242.671 269.442C245.553 274.484 250.245 256.389 245.005 265.997C241.968 271.564 250.214 265.108 247.56 265.108C246.857 265.108 245.062 267.145 245.783 267.775C245.936 267.91 248.644 264.73 244.56 267.997" stroke="white" stroke-width="3" stroke-linecap="round"/>
<path d="M235.56 105.997L233.56 111.997" stroke="white" stroke-width="3" stroke-linecap="round"/>
<path d="M235.56 155.997C235.01 159.436 234.653 162.718 233.56 165.997" stroke="white" stroke-width="3" stroke-linecap="round"/>
<path d="M261.56 415.997C262.383 413.308 262.56 411.55 262.56 408.997" stroke="white" stroke-width="3" stroke-linecap="round"/>
<path d="M261.56 393.997L260.56 388.997" stroke="white" stroke-width="3" stroke-linecap="round"/>
<path d="M413.56 254.997C415.565 254.215 417.513 253.582 419.56 252.997" stroke="white" stroke-width="3" stroke-linecap="round"/>
<path d="M382.56 253.997C385.053 255.684 385.949 255.671 388.56 255.997" stroke="white" stroke-width="3" stroke-linecap="round"/>
<path d="M395.56 255.997L400.56 254.997" stroke="white" stroke-width="3" stroke-linecap="round"/>
<path d="M106.56 275.997C102.799 273.721 100.714 274.257 96.5603 273.997" stroke="white" stroke-width="3" stroke-linecap="round"/>
<path d="M85.5603 275.997L80.5603 276.997" stroke="white" stroke-width="3" stroke-linecap="round"/>
</svg>
