<svg width="224" height="413" viewBox="0 0 224 413" fill="none" xmlns="http://www.w3.org/2000/svg">
<path fill-rule="evenodd" clip-rule="evenodd" d="M0.74916 5.3389C0.824509 5.47846 1.38382 5.32436 1.99206 4.9962C3.30168 4.28963 3.18721 4.17853 1.69179 4.70471C1.09379 4.91537 0.673227 5.19827 0.74916 5.3389ZM27.0714 2.614C28.9446 3.86702 29.55 4.12401 30.0249 3.86814C30.6193 3.54784 30.585 3.16253 29.861 2.03238C28.8087 0.388642 27.819 0.0590393 25.8249 0.688023L24.7154 1.03785L27.0714 2.614ZM21.0696 5.24257C20.8516 5.55406 20.6549 6.15005 20.6326 6.56695C20.595 7.26015 20.7355 7.35406 22.2681 7.6616C25.3035 8.27077 30.6864 9.94801 32.7989 10.9424C38.2477 13.5076 40.8503 16.7318 40.1092 19.9981C39.9179 20.8414 39.9317 20.8644 41.1351 21.7191C44.7326 24.2732 49.1073 26.0074 51.8543 25.9676L53.1858 25.9484L54.5703 21.3877C55.3318 18.8794 55.9895 16.8918 56.0321 16.9707C56.0747 17.0495 55.8477 19.7677 55.5278 23.0112L54.9462 28.9086L60.2229 30.5256C65.4594 32.1307 71.0851 34.6028 78.7091 38.6492C82.5114 40.6674 84.2729 41.0929 84.5682 40.0651C84.9186 38.8469 83.8102 37.7517 78.3256 33.8971C75.3493 31.8057 72.9454 29.9859 72.9836 29.8536C73.0787 29.5232 75.9561 31.1448 78.853 33.1615C81.7352 35.1683 84.0835 35.9743 86.1006 35.6488C86.9126 35.5179 87.5518 35.3645 87.5214 35.3081C87.4908 35.2515 86.3219 34.514 84.9236 33.6689C82.136 31.9845 81.7978 31.607 82.1511 30.5749C82.3711 29.9327 82.5211 29.8741 84.169 29.7871L85.9494 29.6929L85.1454 28.636L84.3414 27.5791L85.7413 27.9898C86.9204 28.3355 87.2942 28.2994 88.1143 27.7593C88.9031 27.2395 89.1576 27.2044 89.4579 27.5746C89.8899 28.1075 89.6157 28.7415 88.7472 29.2178C88.072 29.5877 87.313 31.7488 87.6432 32.3605C87.7754 32.6051 88.4463 32.5798 89.4904 32.2908C90.3922 32.0412 91.1798 31.9291 91.2408 32.0421C91.3016 32.1548 91.1607 33.4646 90.9275 34.9527C90.6944 36.4407 90.5723 37.7855 90.6561 37.9408C90.7401 38.0963 91.8887 39.0863 93.2082 40.1408L95.608 42.0583L92.801 41.132C90.0385 40.2203 87.5492 40.13 86.6462 40.9087C86.0932 41.3855 88.2346 42.9144 92.7628 45.2757C95.639 46.7756 97.3709 47.9581 100.584 50.6148C102.854 52.4918 105.388 54.5029 106.216 55.0839C109.156 57.1475 112.746 57.8885 114.724 56.8403L115.512 56.4228L115.001 58.2659L114.49 60.109L116.113 61.9528C120.516 66.9567 122.911 68.124 125.769 66.6593C126.643 66.2111 126.646 66.2127 126.151 66.8703C123.53 70.3527 123.142 71.0115 123.096 72.0528C123.07 72.6714 123.166 73.3965 123.31 73.6643C123.723 74.4331 125.491 74.8334 126.373 74.3576C127.128 73.9504 127.197 73.9907 128.428 75.5644C129.129 76.4597 129.677 77.2795 129.646 77.3859C129.616 77.4924 128.675 78.2597 127.555 79.0916L125.519 80.6038L127.094 84.297C130.641 92.6147 131.9 99.2382 130.686 103.196C130.046 105.281 129.29 106.227 124.448 110.997C122.11 113.301 119.706 115.939 119.105 116.859C114.942 123.242 119.091 129.934 126.588 128.927C127.818 128.762 130.154 128.309 131.779 127.92C135.58 127.012 136.597 127.024 140.663 128.023C145.171 129.131 146.463 129.096 151.267 127.74C153.706 127.052 156.068 126.589 157.132 126.593C159.457 126.6 164.369 128.119 166.017 129.341C170.169 132.418 172.604 137.235 173.023 143.202C173.281 146.867 172.842 149.849 170.964 157.184C168.395 167.224 168.341 168.437 170.448 168.824C171.575 169.031 172.908 168.757 175.208 167.843C176.682 167.258 176.83 167.266 177.614 167.975C178.833 169.078 179.515 168.981 181.117 167.479C183.112 165.607 183.872 165.291 185.305 165.736C186.468 166.097 187.536 167.11 189.066 169.303C189.49 169.911 189.577 169.898 191.062 169.007C193.257 167.69 195.101 165.904 197.009 163.247C201.418 157.107 203.426 149.907 205.329 133.41C205.86 128.81 206.738 123.789 207.83 119.114C210.288 108.597 210.462 106.925 209.572 102.373C208.626 97.5316 208.613 96.7755 209.408 92.8436C209.772 91.0385 210.071 89.3053 210.071 88.9921C210.071 88.3555 209.627 88.4672 205.869 90.049L203.806 90.9171L202.761 88.5752C199.923 82.2191 201.222 76.1111 206.453 71.2112C209.227 68.6133 215.938 65.1121 218.121 65.124C218.558 65.1262 219.047 65.6643 220.139 67.3435C220.932 68.5627 221.65 69.4764 221.736 69.3739C221.821 69.2714 222.225 67.4755 222.633 65.3827L223.374 61.5783L222.02 60.8337C220.735 60.1271 220.591 59.9429 219.173 57.2016C218.352 55.6132 217.491 53.7329 217.26 53.0229L216.84 51.7323L220.018 46.8291L223.196 41.9256L220.929 37.7072C219.038 34.1874 218.556 33.0525 218.024 30.8585C217.093 27.0238 216.706 22.3842 217.007 18.6634C217.151 16.8686 217.191 15.254 217.095 15.0757C216.761 14.4568 211.983 14.3025 208.792 14.8072C207.863 14.9541 206.04 15.4738 204.742 15.9624C200.496 17.5588 196.73 21.1676 194.849 25.4407C194.436 26.3783 193.84 28.8046 193.523 30.8325C193.207 32.8604 192.662 35.0956 192.313 35.7996C190.311 39.8415 184.681 43.0149 177.991 43.8728C176.931 44.0087 173.889 44.2347 171.232 44.3753C161.831 44.8726 159.801 45.1867 155.737 46.7753C153.732 47.5588 151.455 47.7472 149.974 47.2523C149.329 47.0368 148.866 46.8256 148.945 46.783C149.025 46.7401 150.592 46.5928 152.428 46.4554L155.766 46.2054L154.866 45.5771C154.371 45.2315 152.444 44.2742 150.584 43.4495C145.733 41.2992 144.978 40.6068 140.943 34.6025C139.932 33.0984 138.566 31.3206 137.907 30.6516C136.6 29.3257 134.086 27.8606 133.572 28.1257C133.395 28.2171 133.418 27.9047 133.624 27.4318L133.998 26.5717L132.572 26.129C131.179 25.6965 129.054 26.0222 127.382 26.9244C126.886 27.192 126.614 27.0982 126.097 26.4802C124.799 24.9278 123.058 24.1163 121.184 24.1911C119.194 24.2704 116.067 25.3453 116.343 25.8556C116.601 26.3339 118.54 27.6308 119.728 28.1199C121.981 29.0476 122.663 29.739 123.635 32.0779C125.051 35.4839 125.381 35.9122 127.631 37.2663C130.233 38.8312 131.023 39.6329 131.355 41.0413C131.642 42.2626 131.282 43.0159 130.109 43.6487C129.082 44.2028 127.871 43.6703 126.442 42.0362C123.963 39.2005 123.095 38.9766 119.363 40.2065C116.684 41.0894 114.517 41.1842 111.297 40.5592C104.466 39.2333 100.889 35.3637 101.961 30.4594L102.26 29.0917L100.807 27.907C96.8774 24.7018 92.734 23.0165 90.0224 23.5204C89.6408 23.5912 89.2505 23.1894 88.4436 21.8948C87.1441 19.8098 86.0358 19.1806 84.1574 19.462C83.4304 19.5708 82.8085 19.5127 82.7755 19.3328C82.742 19.1528 83.3642 18.5172 84.1576 17.9202C84.951 17.3231 85.6179 16.7887 85.6395 16.7329C85.661 16.6769 85.1393 16.1962 84.4804 15.665L83.2821 14.6991L84.1135 13.8908C84.5709 13.4464 85.1618 12.9648 85.4265 12.821C85.9801 12.5199 85.7816 12.2753 83.3774 10.2958C80.3333 7.78918 77.3513 6.49194 74.7265 6.5326C72.5277 6.5666 71.4065 6.96332 70.0539 8.18574L68.8678 9.25817L67.0147 8.54481C65.9953 8.15211 65.1095 7.74087 65.0463 7.6308C64.9828 7.52088 65.4684 7.14064 66.1252 6.78628C67.4627 6.06468 67.4639 6.05628 66.3716 5.29739C63.8456 3.54283 59.1366 3.56332 51.9337 5.36044C48.5865 6.1957 48.5249 6.23975 49.1393 7.37761L49.6513 8.32604L48.0591 9.1851C47.1834 9.65758 46.4203 9.95099 46.3635 9.83748C46.3067 9.72398 46.5412 9.01589 46.8848 8.26431C47.2285 7.51274 47.4661 6.81734 47.4129 6.71897C47.1869 6.3003 45.0723 5.36863 44.6469 5.50049C43.954 5.7155 43.3427 7.61151 43.1759 10.0641C43.0232 12.3143 42.8186 12.8068 42.3762 11.9887C42.2354 11.7277 40.9649 10.8091 39.5531 9.94655C31.3716 4.9489 22.8026 2.76797 21.0696 5.24257ZM86.9741 17.6701L87.6773 18.7778L89.1761 18.063L90.6749 17.3481L88.6927 16.8503C87.6024 16.5763 86.6116 16.3995 86.4905 16.4571C86.3693 16.5152 86.5869 17.0609 86.9741 17.6701ZM111.489 13.4468C110.847 14.2336 110.657 15.9586 111.118 16.8127C111.728 17.9435 114.409 19.1791 117.313 19.6679C118.744 19.9086 120.065 20.0247 120.249 19.9255C120.664 19.7016 119.886 18.2097 118.317 16.2204C116.631 14.0813 115.215 12.9282 113.932 12.6482C112.74 12.388 112.213 12.5604 111.489 13.4468ZM105.259 21.4519C106.617 22.3176 107.885 22.0927 108.97 20.794C109.295 20.405 108.968 20.3729 107.362 20.6363C105.03 21.0191 104.75 21.1275 105.259 21.4519ZM103.548 29.4763C103.342 30.2879 103.4 30.5743 103.819 30.8174C104.403 31.1564 106.476 30.4292 106.229 29.9718C106.008 29.5629 104.179 28.2456 103.98 28.3527C103.887 28.4031 103.692 28.9087 103.548 29.4763ZM129.018 21.5638C128.551 22.0073 128.255 22.5305 128.36 22.7259C128.687 23.3307 130.89 23.632 131.718 23.185C132.145 22.9547 132.467 22.7155 132.433 22.6535C132.322 22.4475 129.99 20.6178 129.928 20.6879C129.894 20.726 129.485 21.12 129.018 21.5638ZM114.353 36.1209C113.336 36.8492 112.488 37.5036 112.467 37.5744C112.424 37.726 117.688 39.2788 118.067 39.2264C118.209 39.207 118.26 38.7856 118.181 38.29C118.103 37.7946 117.943 36.6136 117.827 35.6662L117.615 33.9432L116.908 34.3699C116.519 34.6045 115.37 35.3924 114.353 36.1209ZM132.914 28.6218C132.945 28.6787 132.728 29.2763 132.432 29.9497C132.073 30.7648 131.826 31.0502 131.693 30.8031C131.583 30.599 131.774 30.0255 132.118 29.5283C132.842 28.4837 132.84 28.4855 132.914 28.6218ZM160.385 41.8061C160.42 42.0597 160.674 42.5921 160.949 42.9891C161.35 43.5662 161.609 43.6475 162.243 43.3955C162.679 43.2221 163.129 42.842 163.243 42.5507C163.495 41.9066 162.994 40.8968 162.319 40.6872C161.637 40.4754 160.309 41.2438 160.385 41.8061ZM107.065 175.316C107.382 175.674 107.804 176.133 108.003 176.335C108.292 176.629 108.102 176.886 107.053 177.621C103.818 179.886 100.288 187.103 100.479 191.062C100.57 192.94 100.584 192.974 102.722 196.404C105.761 201.277 106.332 202.524 106.486 204.613C106.9 210.214 104.72 217.278 101.638 220.329C99.2165 222.727 98.5454 223.715 98.1005 225.539C97.5581 227.762 97.7498 230.263 98.7598 234.135C101.118 243.175 101.132 249.175 98.8148 257.935C97.39 263.32 96.1327 265.816 92.897 269.684C88.3073 275.171 87.6389 276.437 83.8113 286.897C80.1248 296.972 79.2118 298.576 73.9702 304.195C70.1588 308.28 69.341 309.508 66.8688 314.858C64.0239 321.013 63.6868 321.4 58.5545 324.388C53.3588 327.414 53.414 327.34 51.4117 333.918C50.1096 338.195 50.0781 338.427 50.7118 339.082C51.3942 339.787 51.3035 340.207 50.3585 340.717C49.1442 341.372 47.6776 344.25 46.317 348.65C45.5221 351.22 44.1681 354.721 43.3079 356.429C41.798 359.429 41.2168 361.787 41.673 363.061C41.8246 363.484 41.4804 364.073 40.3722 365.288C38.6487 367.177 38.1168 368.128 37.2614 370.844C35.8233 375.411 37.3567 379.218 40.726 379.446C41.3667 379.489 42.542 379.363 43.3379 379.165C45.4404 378.643 45.281 379.323 43.0147 380.545C40.9281 381.671 40.9253 381.699 42.7808 383.006L43.5324 383.536L38.0218 384.457C32.5433 385.372 32.5118 385.382 32.6113 386.091C32.6661 386.483 32.991 388.52 33.333 390.617C33.675 392.714 33.9797 394.614 34.0104 394.838C34.0627 395.221 35.4868 394.208 40.0446 390.545C41.2867 389.546 41.3382 390.413 40.1437 392.213C38.4336 394.791 38.6991 396.518 40.7497 396.155C41.3422 396.05 41.9466 396.079 42.0929 396.218C42.2392 396.357 42.3206 396.495 42.2736 396.524C40.8446 397.427 31.5629 403.997 31.5236 404.134C31.4648 404.339 35.1374 409.899 35.3847 409.98C35.463 410.005 36.1734 409.33 36.9632 408.48C37.7531 407.629 38.488 406.961 38.5966 406.994C38.705 407.028 38.8987 407.806 39.0268 408.723L39.2598 410.39L40.9592 409.473C41.8939 408.969 42.6836 408.602 42.714 408.659C42.7444 408.715 42.8276 409.307 42.8991 409.974C43.0704 411.572 44.0091 412.302 45.8194 412.243C46.9395 412.207 48.0758 411.737 53.3817 409.113C60.1854 405.749 60.2149 405.728 62.5159 402.511C64.9262 399.141 66.8403 398.695 70.7688 400.588C74.2095 402.246 74.9391 402.337 76.7906 401.338C77.6234 400.889 78.793 400.024 79.3897 399.415C81.0323 397.74 82.7369 396.968 86.4356 396.222C89.5769 395.589 89.8179 395.59 90.0765 396.237C90.2999 396.796 90.108 397.213 89.0867 398.393C88.0616 399.576 87.8729 399.989 88.0969 400.557C88.3277 401.143 88.5731 401.227 89.5707 401.065C91.5593 400.742 97.1912 397.831 100.174 395.583C101.618 394.495 102.965 393.515 103.168 393.406C103.37 393.297 103.997 393.538 104.561 393.943C107.397 395.98 110.002 394.724 117.943 387.49C123.291 382.62 126.846 377.741 129.678 371.388C131.814 366.595 132.908 362.972 133.176 359.808C133.53 355.622 134.021 354.824 138.26 351.546C140.951 349.465 141.792 348.47 142.014 347.104C142.18 346.084 141.833 344.308 141.443 344.187C141.331 344.152 140.574 344.808 139.762 345.644C138.951 346.48 138.245 347.187 138.194 347.215C138.037 347.299 137.612 342.692 137.349 338.048C136.915 330.401 137.382 324.73 138.874 319.51L139.658 316.768L137.724 312.782C133.633 304.357 132.466 298.853 133.858 294.556C134.59 292.296 135.187 291.355 138.388 287.405C139.662 285.834 142.421 282.159 144.52 279.24C148.114 274.244 149.957 272.044 152.115 270.178C152.911 269.489 152.998 269.237 152.754 268.317C152.599 267.732 152.632 266.796 152.827 266.236C153.374 264.668 154.819 264.277 160.925 264.049C163.847 263.94 166.439 263.742 166.686 263.609C167.064 263.405 166.972 263.068 166.097 261.448C164.777 259.002 165.259 258.799 167.32 260.932C169.168 262.845 169.653 262.683 170.095 260.005C170.676 256.486 169.448 254.884 166.104 254.795C164.612 254.756 160.835 255.422 158.047 256.217L157.231 256.449L155.556 253.348C153.554 249.64 153.126 247.597 153.817 245.048C154.336 243.136 155.035 242.036 157.925 238.585C161.848 233.901 162.489 231.857 162.211 224.918C161.948 218.353 162.239 216.507 165.244 205.63C166.781 200.069 168.25 194.303 168.508 192.817C169.029 189.814 169.571 184.737 169.404 184.428C169.345 184.318 168.298 184.205 167.078 184.175L164.861 184.122L161.905 181.25L158.949 178.379L159.547 176.479C159.876 175.434 160.809 172.532 161.621 170.031C163.432 164.446 163.202 164.079 160.03 167.485C158.856 168.746 157.751 169.938 157.575 170.134C157.398 170.331 157.597 169.701 158.018 168.734C158.438 167.767 159.057 166.269 159.393 165.405L160.005 163.834L158.885 163.829C156.154 163.818 152.436 166.847 149.922 171.132C148.227 174.021 148.21 174.295 149.698 174.757C150.362 174.963 151.504 175.012 152.235 174.865L153.564 174.599L152.089 176.2C151.278 177.081 150.549 177.837 150.468 177.881C150.387 177.925 150.021 177.407 149.656 176.73L148.991 175.498L144.733 175.333L140.475 175.169L139.984 176.059C139.714 176.548 138.799 178.375 137.95 180.118C137.1 181.861 135.867 184.069 135.21 185.023C133.318 187.769 132.078 188.129 129.99 186.537C128.835 185.657 128.524 185.181 126.044 180.493L123.352 175.405L122.6 175.703C122.187 175.867 121.077 176.54 120.136 177.199C118.054 178.654 116.913 178.9 115.054 178.29C113.364 177.737 112.033 176.051 112.143 174.602C112.271 172.909 113.144 172.01 115.78 170.858C117.079 170.29 118.275 169.782 118.439 169.729C118.602 169.676 118.629 169.335 118.498 168.973L118.26 168.314L112.374 171.489L106.489 174.665L107.065 175.316ZM143.94 162.188C143.462 162.617 142.893 163.304 142.675 163.716C142.213 164.591 142.183 167.316 142.62 168.777L142.925 169.795L143.835 169.054C146.113 167.195 147.06 164.394 146.4 161.462C146.218 160.654 146.15 160.618 145.507 160.997C145.124 161.223 144.419 161.759 143.94 162.188ZM142.571 171.7C140.845 173.957 142.473 174.846 145.42 173.256C146.332 172.764 146.668 172.352 147.069 171.238L147.572 169.838L145.944 169.925C143.959 170.031 143.772 170.13 142.571 171.7ZM32.5002 380.221C32.6098 380.424 32.9229 381.181 33.1962 381.903L33.693 383.216L35.3764 382.926C36.3021 382.766 37.2058 382.615 37.3847 382.591C37.6045 382.561 37.2481 381.886 36.2848 380.509L34.8594 378.472L33.5803 379.162C32.6786 379.649 32.3599 379.961 32.5002 380.221ZM31.8776 397.909C31.2894 398.939 31.2009 399.819 31.5359 401.309L31.7369 402.202L35.2823 400.289L38.8277 398.376L38.1915 397.718C36.6636 396.138 34.7659 395.671 33.235 396.497C32.7971 396.733 32.1863 397.369 31.8776 397.909Z" fill="#E9C227"/>
</svg>
