<svg width="311" height="328" viewBox="0 0 311 328" fill="none" xmlns="http://www.w3.org/2000/svg">
<path fill-rule="evenodd" clip-rule="evenodd" d="M103.979 4.81687C97.1161 6.99658 89.8831 10.4076 87.9052 12.3972C85.9273 14.3846 82.2999 16.0117 79.8425 16.0117C77.1482 16.0117 72.5358 19.5266 68.2159 24.8742C62.4833 31.966 58.243 34.6475 46.9706 38.2973C20.325 46.9277 19.5788 47.3787 15.639 57.2515C13.6233 62.3051 12.5647 68.1479 13.287 70.2392C14.4849 73.7099 14.1128 73.6834 8.99098 69.9562L3.38368 65.8753L5.09293 75.7614C7.59413 90.2302 6.67484 105.075 3.09913 107.98C-1.62669 111.819 -0.558153 116.177 7.14045 124.453C13.3089 131.083 14.067 133.024 12.9925 139.424C12.2622 143.764 12.7 148.039 14.061 149.858C16.0966 152.586 16.6458 159.424 16.0051 174.074C15.6847 181.4 18.2894 192.865 20.2752 192.865C21.298 192.865 23.3396 196.046 24.81 199.934C27.0585 205.876 27.0466 208.604 24.7364 217.067C21.4333 229.155 21.499 228.235 23.9325 228.235C25.0269 228.235 25.9224 226.338 25.9224 224.022C25.9224 218.376 32.3753 220.224 34.9541 226.606C36.0426 229.301 39.7615 232.157 43.5919 233.24C47.293 234.286 52.2178 236.465 54.5359 238.081C56.8561 239.7 60.7979 240.632 63.2951 240.157C69.0556 239.063 71.7121 245.449 67.0658 249.223C64.1308 251.608 64.5686 252.826 71.2365 260.851C78.6585 269.784 78.7023 269.802 83.263 265.699C87.0476 262.295 87.4615 260.805 85.6627 257.069C83.8261 253.258 84.0768 252.552 87.2685 252.552C89.3478 252.552 93.4409 254.641 96.3619 257.195C100.137 260.493 103.167 261.419 106.838 260.396C111.457 259.107 111.879 259.485 110.824 263.962C109.256 270.625 114.877 277.953 118.789 274.345C120.853 272.444 122.339 272.649 124.954 275.198C126.848 277.046 130.276 279.191 132.573 279.967C134.869 280.743 137.76 283.844 138.998 286.86C140.233 289.877 142.162 292.344 143.28 292.344C144.396 292.344 145.341 293.589 145.377 295.108C145.415 296.629 147.216 300.234 149.381 303.121L153.317 308.372L158.54 302.569C164.806 295.605 166.529 295.36 168.194 301.189C168.891 303.623 171.233 306.667 173.4 307.956C176 309.503 176.946 311.676 176.182 314.356C175.252 317.61 176.02 318.35 180.064 318.09C182.835 317.913 185.106 316.498 185.106 314.948C185.11 308.818 203.936 305.336 208.721 310.582C210.741 312.795 211.728 312.616 213.682 309.682C215.538 306.893 218.833 306.139 227.495 306.523C236.696 306.935 239.913 308.142 244.323 312.835C249.496 318.337 257.603 322.933 268.68 326.638C273.591 328.281 273.607 328.243 269.968 323.716C267.94 321.191 266.684 317.827 267.174 316.237C267.665 314.648 267.341 310.489 266.454 306.999C265.128 301.786 265.964 298.824 271.124 290.419C280.329 275.426 300.597 252.552 304.678 252.552C309.706 252.552 311.252 244.813 307.772 237.062C305.102 231.116 305.12 230.446 307.943 230.446C310.747 230.446 310.731 230.015 307.79 226.402C305.979 224.179 304.497 221.426 304.497 220.283C304.497 219.143 302.396 214.743 299.825 210.51C297.256 206.277 295.571 201.471 296.078 199.83C296.585 198.192 295.905 194.576 294.566 191.795C292.705 187.937 292.652 184.04 294.333 175.325C297.274 160.091 297.59 161.177 288.576 155.549C281.403 151.068 280.838 150.099 282.856 145.746C286.467 137.956 292.988 130.966 296.641 130.966C298.506 130.966 301.084 129.556 302.372 127.831C305.371 123.817 304.606 100.941 301.224 93.4069C297.732 85.6276 292.664 63.0788 291.766 51.3181C291.042 41.8189 290.499 40.9899 277.423 29.4304C276.15 28.3051 268.177 28.4068 258.52 29.6691C240.337 32.0456 219.745 31.1348 192.446 26.7466C181.074 24.9206 174.432 24.6929 173.543 26.1011C172.791 27.2949 169.762 29.9764 166.815 32.0588C162.076 35.408 161.117 35.4655 158.502 32.5607C156.874 30.7545 153.183 29.2756 150.298 29.2756C141.517 29.2756 137.7 25.365 134.101 12.6758C130.756 0.890735 130.45 0.54145 123.557 0.693986C119.653 0.780201 110.844 2.63495 103.979 4.81687ZM15.1853 83.943C13.1636 86.1913 11.4942 82.8068 13.1537 79.8246C14.4073 77.5697 14.8769 77.5697 15.5494 79.8157C16.0111 81.3521 15.8459 83.2091 15.1853 83.943Z" fill="#6BBB5B"/>
</svg>
