<svg width="602" height="458" viewBox="0 0 602 458" fill="none" xmlns="http://www.w3.org/2000/svg">
<path d="M0 369.992C0 361.467 3.61547 360.762 9.81807 356.024C13.8502 352.944 10.8772 348.807 14.5453 345.31C16.5942 343.357 19.8362 343.917 22.3836 343.405C25.9725 342.684 27.5229 339.219 30.5047 337.572C36.3867 334.322 42.747 332.933 49.0904 330.667C54.856 328.608 61.485 327.019 66.7467 323.882C69.3932 322.304 74.5983 321.703 77.6557 321.421C82.5407 320.972 87.0393 319.198 91.8374 318.525C97.7566 317.694 103.639 317.042 109.575 316.382C116.186 315.647 122.494 313.423 129.049 312.691C140.433 311.421 152.286 312.136 163.715 312.136C175.493 312.136 186.68 313.7 198.18 316.064C210.18 318.531 221.622 322.247 233.452 325.152C238.42 326.371 242.661 329.031 247.351 330.866C254.075 333.496 260.667 336.367 267.27 339.278C280.114 344.942 292.901 349.839 303.269 359.238C311.084 366.323 316.826 374.311 323.31 382.532C330.536 391.693 341.054 397.67 349.653 405.587C356.678 412.056 361.071 421.248 367.996 427.849C370.767 430.49 377.665 432.851 381.37 433.484C387.167 434.474 393.367 434.133 399.268 434.992" stroke="#1E1E1E" stroke-width="3" stroke-linecap="round" stroke-linejoin="round"/>
<path d="M358.542 429.277C368.104 427.399 377.21 423.581 386.46 420.785C387.856 420.364 389.914 420.706 391.309 420.706C397.14 420.706 402.972 420.706 408.804 420.706C421.857 420.706 435.544 419.717 446.621 427.531C457.492 435.2 468.108 443.17 480.156 448.563C484.412 450.468 489.401 453.861 493.894 454.674C499.313 455.654 504.272 455.706 509.813 455.706" stroke="#1E1E1E" stroke-width="3" stroke-linecap="round" stroke-linejoin="round"/>
<path d="M317.815 248.565C314.156 239.9 306.712 236.188 298.502 232.295C294.42 230.36 284.493 228.78 280.159 231.422C275.489 234.269 269.582 235.719 264.482 237.851C259.23 240.046 252.482 243.319 249.452 248.208C245.259 254.973 245.816 262.205 245.816 269.954C245.816 276.621 251.362 282.61 254.543 288.207C255.999 290.77 256.395 293.587 257.856 296.064C259.122 298.212 260.835 300.051 261.977 302.295C262.687 303.69 265.946 304.592 267.31 305.549C269.227 306.893 272.504 307.748 274.744 308.247C281.74 309.804 289.724 309.065 296.886 309.279C299.937 309.369 302.724 310.662 305.774 310.707C309.444 310.761 310.117 309.864 312.885 307.85C314.431 306.726 315.376 304.938 315.795 303.088C316.766 298.796 317.81 295.493 320.36 291.779C323.884 286.646 323.894 282.757 325.815 277.096C327.765 271.349 329.451 264.186 329.451 258.168C329.451 254.881 328.135 252.108 327.31 249.002C326.667 246.583 323.886 245.749 322.219 243.922C319.879 241.36 317.85 240.338 314.502 239.2C308.079 237.017 299.948 234.279 293.088 234.279" stroke="#1E1E1E" stroke-width="3" stroke-linecap="round" stroke-linejoin="round"/>
<path d="M278.542 257.136C278.861 264.791 281.664 260.021 278.542 257.613C276.099 255.727 276.361 260.237 276.361 261.422" stroke="#1E1E1E" stroke-width="3" stroke-linecap="round" stroke-linejoin="round"/>
<path d="M265.452 277.136C267.071 275.546 269.496 272.496 268.361 276.66C268.041 277.833 267.926 278.778 266.906 279.279" stroke="#1E1E1E" stroke-width="3" stroke-linecap="round" stroke-linejoin="round"/>
<path d="M275.633 290.708C276.848 291.575 277.967 292.211 279.27 292.85" stroke="#1E1E1E" stroke-width="3" stroke-linecap="round" stroke-linejoin="round"/>
<path d="M297.451 291.422C296.013 291.739 293.815 291.735 293.815 293.564C293.815 294.01 293.686 295.255 294.542 294.834C295.956 294.14 295.997 290.654 295.997 289.279" stroke="#1E1E1E" stroke-width="3" stroke-linecap="round" stroke-linejoin="round"/>
<path d="M304.724 274.279C304.447 275.812 304.724 283.189 304.724 281.779C304.724 279.993 304.724 278.208 304.724 276.422" stroke="#1E1E1E" stroke-width="3" stroke-linecap="round" stroke-linejoin="round"/>
<path d="M295.997 256.422C296.986 260.633 298.179 259.129 298.179 256.025C298.179 251.657 296.031 254.944 294.542 257.136" stroke="#1E1E1E" stroke-width="3" stroke-linecap="round" stroke-linejoin="round"/>
<path d="M294.542 274.279C290.865 271.46 288.711 271.326 284.118 271.422C282.011 271.466 280.502 272.526 280.765 274.716C281.148 277.92 283.888 283.565 287.391 283.565C293.675 283.565 299.633 283.077 299.633 275.708C299.633 269.959 297.355 270.708 292.36 270.708" stroke="#1E1E1E" stroke-width="3" stroke-linecap="round" stroke-linejoin="round"/>
<path d="M340.663 305.061C340.663 313.686 335.139 319.276 327.006 322.045C317.754 325.196 308.505 329.826 298.764 331.49C290.692 332.868 283.659 335.603 275.775 337.363C271.021 338.424 263.436 341.383 258.482 338.95C254.974 337.227 251.759 335.164 248.341 333.275C244.787 331.312 243.535 329.173 240.624 326.45C239.001 324.933 238.518 322.995 237.068 321.49C234.745 319.078 232.385 316.874 230.523 314.069C229.631 312.726 228.349 311.894 227.21 310.776C224.6 308.213 224.662 305.938 224.139 302.442C223.819 300.309 222.328 298.897 222.159 296.569C221.857 292.416 221.496 288.341 220.987 284.189C220.491 280.133 219.25 272.857 221.068 269.03C225.229 260.272 229.002 253.193 238.846 250.776" stroke="#1E1E1E" stroke-width="3" stroke-linecap="round" stroke-linejoin="round"/>
<path d="M230.119 260.776C230.75 256.356 230.846 251.978 230.846 247.522C230.846 245.857 230.803 244.004 231.977 242.641C234.67 239.516 237.617 236.516 240.3 233.316C244.557 228.24 251.54 225.313 257.027 221.848C258.368 221.002 259.449 219.224 260.987 218.793C262.335 218.414 263.706 218.695 265.068 218.277C266.967 217.694 268.95 218.186 270.845 217.602C272.835 216.989 274.545 216.185 276.623 215.777C280.662 214.983 284.421 213.588 288.583 212.959C293.403 212.231 298.924 212.92 303.815 212.92C311.226 212.92 317.96 214.626 324.663 217.761C336.52 223.306 340.01 236.029 350.521 243.316C355.145 246.522 355.208 252.832 355.208 257.84C355.208 265.316 355.907 273.355 354.319 280.697C353.392 284.984 353.026 288.437 353.026 292.879C353.026 295.703 353.611 298.639 351.976 301.093C348.414 306.437 346.215 312.291 339.936 314.347" stroke="#1E1E1E" stroke-width="3" stroke-linecap="round" stroke-linejoin="round"/>
<path d="M345.451 295.707C350.785 297.078 354.897 299.304 360.319 300.549C365.481 301.733 370.374 304.871 374.541 308.009C383.189 314.52 394.865 316.167 403.47 322.85C406.445 325.16 410.172 326.384 413.49 328.247C417.342 330.408 419.359 334.108 422.783 336.659C425.359 338.579 427.097 341.805 429.814 343.405C433.836 345.776 432.723 342.467 432.723 338.564" stroke="#1E1E1E" stroke-width="3" stroke-linecap="round" stroke-linejoin="round"/>
<path d="M426.904 331.421C442.52 326.941 459.248 324.496 475.55 326.858C479.675 327.456 484.229 327.785 488.156 329.12C490.731 329.995 491.446 331.886 493.247 333.723C497.821 338.388 502.772 342.277 506.176 347.85" stroke="#1E1E1E" stroke-width="3" stroke-linecap="round" stroke-linejoin="round"/>
<path d="M535.994 299.993C534.307 307.45 531.198 313.616 526.944 319.914C522.481 326.521 519.008 333.723 512.641 338.882C507.395 343.132 504.235 345.751 502.095 352.215C499.933 358.751 495.111 364.848 491.631 370.707" stroke="#1E1E1E" stroke-width="3" stroke-linecap="round" stroke-linejoin="round"/>
<path d="M462.54 380.706C460.061 385.709 455.378 392.545 455.995 398.405C456.181 400.17 459.061 401.729 460.682 401.103C465.715 399.161 468.986 394.105 469.651 389.04C470.045 386.046 468.374 384.447 465.328 385.151C461.264 386.09 458.904 388.807 458.904 392.77C458.904 394.977 459.608 397.547 462.46 396.976C465.881 396.292 470.597 392.191 467.146 388.722C464.153 385.714 456.292 386.897 453.328 389.278C450.953 391.187 453.499 394.677 455.712 395.27C456.821 395.567 464.605 395.446 463.55 393.167C462.987 391.95 461.723 389.806 460.399 391.54C457.306 395.59 463.587 395.428 465.53 392.849C470.886 385.74 456.827 386.527 459.348 390.984C460.519 393.054 468.51 392.947 469.934 391.302C472.684 388.124 468.6 385.587 466.177 384.992" stroke="#1E1E1E" stroke-width="3" stroke-linecap="round" stroke-linejoin="round"/>
<path d="M327.996 189.28C330.844 196.621 329.451 205.692 329.451 213.526C329.451 217.189 327.169 220.549 325.855 223.883C324.559 227.171 324.522 229.836 322.906 224.28" stroke="#1E1E1E" stroke-width="3" stroke-linecap="round" stroke-linejoin="round"/>
<path d="M316.36 217.137C315.445 210.395 316.478 203.491 315.471 196.82C315.03 193.897 314.655 190.955 317.087 188.566C318.384 187.293 321.192 187.852 322.906 187.852C325.722 187.852 327.58 187.444 330.178 186.423" stroke="#1E1E1E" stroke-width="3" stroke-linecap="round" stroke-linejoin="round"/>
<path d="M343.996 129.281C343.162 133.297 342.805 138.221 340.683 141.82C339.561 143.723 338.345 145.554 337.451 147.574C335.297 152.439 334.91 157.571 332.36 162.455C328.341 170.152 327.996 177.256 327.996 185.709" stroke="#1E1E1E" stroke-width="3" stroke-linecap="round" stroke-linejoin="round"/>
<path d="M330.178 188.566C333.76 191.998 335.544 192.603 340.36 192.852C345.208 193.102 349.863 194.822 354.057 197.018C358.432 199.31 363.448 197.926 368.077 198.883C374.875 200.289 381.557 200.709 388.521 200.709C396.79 200.709 405.06 200.709 413.329 200.709C422.122 200.709 429.773 198.768 437.894 196.026C442.234 194.561 446.871 194.081 451.147 192.534C455.87 190.825 461.435 192.813 465.934 191.106C468.171 190.257 477.813 186.434 477.813 184.637C477.813 182.021 477.179 179.54 477.086 176.979C477.004 174.732 477.926 172.269 474.864 173.209C472.07 174.066 467.362 174.204 465.126 175.868C462.156 178.078 462.503 180.808 463.672 183.923C464.027 184.87 467.346 188.566 466.177 188.566" stroke="#1E1E1E" stroke-width="3" stroke-linecap="round" stroke-linejoin="round"/>
<path d="M466.177 191.423C456.063 191.423 446.341 192.274 436.682 189.439C431.042 187.784 422.53 184.974 419.632 179.28" stroke="#1E1E1E" stroke-width="3" stroke-linecap="round" stroke-linejoin="round"/>
<path d="M426.904 139.281C425.844 144.876 425.594 151.414 426.177 157.137C426.695 162.226 444.887 165.626 449.328 166.78C455.926 168.496 462.696 169.922 469.449 171.066C474.091 171.852 482.772 173.5 481.449 179.994" stroke="#1E1E1E" stroke-width="3" stroke-linecap="round" stroke-linejoin="round"/>
<path d="M430.541 155.709C425.528 151.401 427.632 142.058 427.632 136.066C427.632 132.687 428.847 129.543 430.258 126.463C431.21 124.386 433.259 122.427 434.662 120.59C436.944 117.602 438.705 113.709 441.248 111.027C443.441 108.713 446.549 107.631 447.672 104.638C448.473 102.501 450.934 102.554 448.157 104.718C440.199 110.916 428.025 114.957 425.288 125.709C424.4 129.197 424.621 133.955 421.41 136.344C420.014 137.382 413.727 128.362 411.47 127.455C408.558 126.285 406.886 125.965 404.521 123.725C403.601 122.854 401.083 120.028 399.834 120.709C398.095 121.658 397.099 123.359 395.228 124.241C393.029 125.278 390.568 124.995 388.198 124.995C384.675 124.995 380.206 124.229 376.764 125.074C376.013 125.259 373.384 127.571 373.612 127.297C375.083 125.53 378.418 122.653 376.602 120.313C374.519 117.628 369.578 114.281 366.057 114.281C359.646 114.281 353.368 112.85 347.269 111.027C342.293 109.54 338.328 108.793 333.087 108.408C329.732 108.162 326.064 108.561 323.229 106.583C322.013 105.734 320.675 104.549 319.188 104.202C317.092 103.711 321.492 107.836 323.067 109.281C326.339 112.282 330.244 114.073 332.845 117.614C334.954 120.486 337.021 122.082 339.633 124.281C342.426 126.633 344.987 129.481 346.986 132.535C347.648 133.546 347.604 136.424 348.36 136.424" stroke="#1E1E1E" stroke-width="3" stroke-linecap="round" stroke-linejoin="round"/>
<path d="M348.36 134.995C348.276 130.633 346.905 126.533 346.905 122.217C346.905 117.918 349.944 120.148 352.804 121.9C357.576 124.823 360.741 126.424 366.461 126.424C367.792 126.424 373.867 125.905 370.178 128.17C366.28 130.562 358.822 133.847 354.138 132.058C350.877 130.813 351.066 129.751 349.814 127.138C347.734 122.797 352.542 129.179 353.693 130.154C355.695 131.848 357.008 131.264 359.269 130.709" stroke="#1E1E1E" stroke-width="3" stroke-linecap="round" stroke-linejoin="round"/>
<path d="M374.541 117.138C374.541 122.032 374.541 126.926 374.541 131.82C374.541 133.531 374.298 134.993 375.269 136.423" stroke="#1E1E1E" stroke-width="3" stroke-linecap="round" stroke-linejoin="round"/>
<path d="M387.632 137.852C387.632 135.03 388.111 131.69 387.592 128.884C387.235 126.959 386.562 125.509 387.269 123.566C387.816 122.061 387.423 120.338 389.087 119.44C392.107 117.808 395.509 117.198 398.541 115.709" stroke="#1E1E1E" stroke-width="3" stroke-linecap="round" stroke-linejoin="round"/>
<path d="M410.177 120.709C403.549 127.092 397.814 131.099 397.814 139.995" stroke="#1E1E1E" stroke-width="3" stroke-linecap="round" stroke-linejoin="round"/>
<path d="M410.177 128.566C409.015 134.618 405.087 139.606 405.087 145.709" stroke="#1E1E1E" stroke-width="3" stroke-linecap="round" stroke-linejoin="round"/>
<path d="M405.814 155.709C403.74 157.796 402.106 159.015 402.178 161.979C402.228 164.069 403.55 164.838 405.41 163.447C408.254 161.318 408.818 152.952 403.632 155.55C401.244 156.747 400.377 159.581 403.996 159.955C407.506 160.318 405.428 158.041 402.905 159.28" stroke="#1E1E1E" stroke-width="3" stroke-linecap="round" stroke-linejoin="round"/>
<path d="M421.814 199.994C420.802 205.709 421.086 211.515 421.086 217.296C421.086 222.274 420.359 227.157 420.359 232.137" stroke="#1E1E1E" stroke-width="3" stroke-linecap="round" stroke-linejoin="round"/>
<path d="M361.451 234.994C366.502 237.525 371.239 239.411 376.319 241.74C379.969 243.413 382.079 247.851 386.178 247.851" stroke="#1E1E1E" stroke-width="3" stroke-linecap="round" stroke-linejoin="round"/>
<path d="M392.723 257.136C396.793 248.254 404.411 244.694 411.915 238.962C415.107 236.524 424.962 230.847 429.086 234.319C436.052 240.184 440.32 246.191 442.743 254.994C443.829 258.943 442.177 271.347 442.177 267.255C442.177 262.392 440.53 257.721 439.672 252.97C439.006 249.286 438.626 244.899 435.591 242.216C431.876 238.932 425.033 236.947 420.399 235.073C416.255 233.397 410.76 235.344 406.662 236.462C398.137 238.788 392.337 245.117 388.683 252.533C387.249 255.444 385.353 258.791 385.45 262.136C385.514 264.312 391.085 252.684 391.996 251.343C395.727 245.846 404.281 239.483 411.066 238.724C417.417 238.013 426.342 237.363 432.278 239.954C438.071 242.483 437.884 248.839 439.631 254.517C440.001 255.719 441.841 262.225 441.126 257.533C440.379 252.626 440.471 247.626 438.137 243.168C436.956 240.915 431.265 242.137 429.086 242.137C424.022 242.137 418.958 242.137 413.894 242.137C404.064 242.137 391.303 243.349 384.319 251.264C383.178 252.557 383.171 254.088 383.268 255.708C383.329 256.715 385.338 255.13 385.45 255.073C388.554 253.5 391.644 252.543 394.905 251.422" stroke="#1E1E1E" stroke-width="3" stroke-linecap="round" stroke-linejoin="round"/>
<path d="M441.45 252.136C445.987 255.55 451.071 257.636 455.268 261.382C458.326 264.113 463.102 267.616 466.944 268.922C470.551 270.148 474.397 271.793 478.055 272.692C481.762 273.602 488.18 274.533 491.308 276.581C494.884 278.922 498.739 280.651 502.378 283.088C505.237 285.002 507.987 287.136 511.671 287.136C517.192 287.136 524.67 285.748 529.449 288.565" stroke="#1E1E1E" stroke-width="3" stroke-linecap="round" stroke-linejoin="round"/>
<path d="M509.813 308.564C512.784 309.746 525.085 313.636 525.085 317.136" stroke="#1E1E1E" stroke-width="3" stroke-linecap="round" stroke-linejoin="round"/>
<path d="M502.54 319.279C505.598 321.487 509.152 322.965 512.56 324.437C513.643 324.905 514.879 327.313 515.954 328.167C517.248 329.196 518.423 329.607 519.994 329.993" stroke="#1E1E1E" stroke-width="3" stroke-linecap="round" stroke-linejoin="round"/>
<path d="M511.994 336.421C508.284 333.558 504.693 330.987 502.378 326.818C501.15 324.606 500.114 323.658 498.176 322.136" stroke="#1E1E1E" stroke-width="3" stroke-linecap="round" stroke-linejoin="round"/>
<path d="M560.721 207.137C563.994 207.137 570.903 205.744 570.903 210.788C570.903 214.17 570.176 217.511 570.176 220.788C570.176 222.773 569.923 224.601 568.721 226.264C566.705 229.054 564.229 232.526 561.852 234.994C557.371 239.646 552.719 243.988 548.681 249.121C543.36 255.883 544.118 265.48 539.267 272.811C536.355 277.211 531.614 279.951 528.721 284.438C526.625 287.689 527.573 289.806 526.54 292.85" stroke="#1E1E1E" stroke-width="3" stroke-linecap="round" stroke-linejoin="round"/>
<path d="M537.449 298.564C536.728 294.227 536.24 290.265 537.61 286.104C538.821 282.429 542.525 279.481 544.398 276.065C548.229 269.078 553.798 262.687 558.62 256.343C563.165 250.362 564.885 243.572 567.509 236.7C569.839 230.597 570.589 227.696 575.549 223.248C577.851 221.184 580.539 220.066 583.024 218.248C587.055 215.3 593.133 214.646 596.761 211.423C599.832 208.694 588.986 206.459 588.842 206.423C581.599 204.606 574.152 202.851 566.66 202.851C563.984 202.851 563.63 202.588 563.63 205.311C563.63 207.44 562.748 210.746 565.812 209.994" stroke="#1E1E1E" stroke-width="3" stroke-linecap="round" stroke-linejoin="round"/>
<path d="M223.27 424.277C219.604 429.078 217.719 434.136 216.725 439.991" stroke="#1E1E1E" stroke-width="3" stroke-linecap="round" stroke-linejoin="round"/>
<path d="M254.543 370.707C256.834 375.957 260.649 380.558 263.27 385.706" stroke="#1E1E1E" stroke-width="3" stroke-linecap="round" stroke-linejoin="round"/>
<path d="M174.544 398.563C168.521 403.042 163.256 408.811 157.089 412.849" stroke="#1E1E1E" stroke-width="3" stroke-linecap="round" stroke-linejoin="round"/>
<path d="M139.635 359.278C137.792 364.921 137.45 370.718 135.999 376.421" stroke="#1E1E1E" stroke-width="3" stroke-linecap="round" stroke-linejoin="round"/>
<path d="M116.362 377.135C114.944 381.856 113.193 386.424 112.403 391.302C112.105 393.138 112.309 394.893 111.271 396.421" stroke="#1E1E1E" stroke-width="3" stroke-linecap="round" stroke-linejoin="round"/>
<path d="M476.908 358.685C481.879 362.131 486.538 360.624 491.003 363.182C492.932 364.288 493.017 368.183 494.938 370.069" stroke="#1E1E1E" stroke-width="3" stroke-linecap="round" stroke-linejoin="round"/>
<path d="M420.243 335.918C422.925 334.628 431.315 332.124 428.328 332.124C423.773 332.124 419.218 332.124 414.662 332.124C414.086 332.124 402.247 331.507 406.077 333.388" stroke="#1E1E1E" stroke-width="3" stroke-linecap="round" stroke-linejoin="round"/>
<path d="M416.723 132.138C418.268 127.662 421.347 121.967 425.45 119.281" stroke="#1E1E1E" stroke-width="3" stroke-linecap="round" stroke-linejoin="round"/>
<path d="M492.295 391.711C495.626 386.044 495.627 381.889 494.664 375.459C493.255 366.048 485.373 358.887 478.46 352.707C475.431 350 471.928 347.406 468.046 345.978C465.567 345.066 463.04 345.161 460.611 344.419C457.022 343.323 455.753 342.39 452.134 342.728C444.44 343.449 441.579 344.203 436.276 349.865C431.097 355.395 426.477 360.866 423.334 367.912C419.307 376.939 418.473 385.321 419.297 395.177C419.765 400.777 426.076 405.923 428.644 410.466C431.301 415.167 434.976 419.247 439.269 422.63C445.824 427.797 463.031 435.784 471.582 430.598C475.342 428.317 479.997 423.454 482.37 419.944C485.49 415.327 489.666 411.897 492.516 407.049C494.815 403.138 496.426 398.97 498.715 395.076C500.58 391.903 501.82 390.516 500.074 387.049" stroke="#1E1E1E" stroke-width="3" stroke-linecap="round" stroke-linejoin="round"/>
<path d="M573.496 190.461C573.084 192.989 570.56 199.846 574.426 201.002C577.657 201.968 582.258 200.438 584.943 198.613C587.221 197.064 578.12 196.732 576.644 199.034C575.741 200.442 576.602 203.375 578.075 204.164C580.733 205.588 586.292 200.38 587.805 198.894C594.408 192.409 585.888 167.757 576.143 172.543C570.864 175.135 569.85 190.675 578.647 185.121C582.053 182.971 584.349 179.401 582.94 175.424C582.509 174.206 578.07 165.372 576.071 170.083C573.653 175.784 586.638 161.205 587.09 155.046C587.494 149.522 581.496 146.044 576.572 148.159C575.181 148.757 577.732 150.425 578.647 147.878C581.233 140.682 580.972 128.396 577.789 121.457C577.159 120.086 571.482 115.851 572.566 117.803C574.673 121.597 582.306 119.258 585.086 118.084C604.202 110.013 605.071 91.2195 586.947 81.2634C585.771 80.6175 576.256 77.9784 577.002 75.7824C579.047 69.757 580.683 64.8408 580.364 58.2152C580.205 54.9097 577.298 49.2136 578.862 46.2694C580.297 43.5681 584.104 35.776 581.724 32.9183C575.854 25.8721 584.402 16.8725 586.16 8.81609C587.289 3.63875 579.521 0.995153 578.647 6.14587C577.838 10.9171 579.413 19.3203 574.283 13.5944C570.005 8.82053 564.927 2 558.042 2" stroke="#1E1E1E" stroke-width="3" stroke-linecap="round" stroke-linejoin="round"/>
</svg>
